<svg id="Layer_1" data-name="Layer 1" xmlns="http://www.w3.org/2000/svg" viewBox="0 0 3295.68 459"><defs><style>.cls-1{fill:#ff9000;}.cls-2,.cls-3{fill:#123456;}.cls-3{fill-rule:evenodd;}</style></defs><title>na-full-real</title><path class="cls-1" d="M1454.13,419.73a35.53,35.53,0,0,0,4.71,17.79A34.64,34.64,0,0,0,1471.32,450a35.32,35.32,0,0,0,17.79,4.7,36.87,36.87,0,0,0,21.17-6.23c6-4.09,10.64-10,13.81-17.7,51-116.57,87.63-201.68,140.53-323.39,51.13,117.66,89.9,207.43,139.29,320.94a45.66,45.66,0,0,0,14.32,19.12c6.13,4.72,13.6,7.17,22.5,7.26a35.7,35.7,0,0,0,18.2-4.9,35,35,0,0,0,12.69-12.89,37.92,37.92,0,0,0,4.7-18.4,30.49,30.49,0,0,0-1-7.78,31.81,31.81,0,0,0-3.28-8.18L1712.48,46.63c-4.3-9.61-10.12-17.08-17.59-22.5s-16.47-8.07-27.21-8.18H1664c-10.74.11-19.94,2.87-27.51,8.18s-13.61,12.89-17.9,22.5L1459,402.55a55.54,55.54,0,0,0-3.58,8.79,27,27,0,0,0-1.33,8.39"/><path class="cls-1" d="M1955.49,417.89a36.63,36.63,0,0,0,5,18.51,39.41,39.41,0,0,0,13.29,13.3,36.53,36.53,0,0,0,18.52,5,38.14,38.14,0,0,0,19-5,37.71,37.71,0,0,0,13.29-13.3,35.64,35.64,0,0,0,5.11-18.51V191.45h56.47a31.46,31.46,0,0,0,15.74-4.19,30.44,30.44,0,0,0,11.25-10.94,30.81,30.81,0,0,0,4.3-15.55,31.13,31.13,0,0,0-4.2-15.65,29.94,29.94,0,0,0-11-10.94,33.22,33.22,0,0,0-16.05-4.09h-57.69v-17.8c0-16.77,3.68-29.25,10.84-37.22s18-12,32.12-11.87a69.34,69.34,0,0,1,7.87.41c2.76.2,5.22.51,7.47.82a29.31,29.31,0,0,0,15.74-3.89,30.4,30.4,0,0,0,11.25-11,31.45,31.45,0,0,0,4.3-15.75,32.39,32.39,0,0,0-3.69-14.93A29.49,29.49,0,0,0,2105,8.18a28,28,0,0,0-12.67-5.12c-5.22-.92-10.94-1.62-17.08-2.24s-13-.82-20.35-.82q-23.94,0-42,6.44a82.21,82.21,0,0,0-31,19.33c-8.59,8.58-15.13,19.63-19.64,32.93s-6.74,29.05-6.74,46.84v23.94H1942.6a31.38,31.38,0,0,0-31.29,31.29,30.37,30.37,0,0,0,15.54,26.49,31.47,31.47,0,0,0,15.75,4.19h12.89Z"/><path class="cls-1" d="M2186.22,417.89a36.63,36.63,0,0,0,5,18.51,39.44,39.44,0,0,0,13.3,13.3,36.49,36.49,0,0,0,18.51,5,38.17,38.17,0,0,0,19-5,37.74,37.74,0,0,0,13.3-13.3,35.83,35.83,0,0,0,5.11-18.51V191.45h56.46a31.53,31.53,0,0,0,15.75-4.19,30.41,30.41,0,0,0,11.24-10.94,30.81,30.81,0,0,0,4.3-15.55,31.13,31.13,0,0,0-4.2-15.65,29.94,29.94,0,0,0-11-10.94,33.22,33.22,0,0,0-16.05-4.09h-57.7v-17.8c0-16.77,3.69-29.25,10.85-37.22s18-12,32.12-11.87a69.05,69.05,0,0,1,7.86.41c2.77.2,5.23.51,7.48.82a29.37,29.37,0,0,0,15.75-3.89,30.37,30.37,0,0,0,11.24-11,31.45,31.45,0,0,0,4.3-15.75,32.51,32.51,0,0,0-3.68-14.93,29.59,29.59,0,0,0-9.41-10.64,28.08,28.08,0,0,0-12.68-5.12c-5.22-.92-10.94-1.62-17.08-2.24S2293,0,2285.63,0q-24,0-42,6.44a82.21,82.21,0,0,0-31,19.33C2204,34.35,2197.46,45.4,2193,58.7s-6.74,29.05-6.74,46.84v23.94h-12.89a31.57,31.57,0,0,0-15.75,4.29,31.38,31.38,0,0,0-15.54,27,30.37,30.37,0,0,0,15.54,26.49,31.5,31.5,0,0,0,15.75,4.19h12.89Z"/><path class="cls-1" d="M2659.34,416.05a34.68,34.68,0,0,0,6.95-9.92,31.6,31.6,0,0,0,2.87-12.78,30,30,0,0,0-4-15.45,28.19,28.19,0,0,0-10.43-10.64,31.49,31.49,0,0,0-25.67-2.25,36.16,36.16,0,0,0-8.39,5,124.91,124.91,0,0,1-34.47,20.56c-12.57,5-26.69,7.57-42.24,7.67a98.92,98.92,0,0,1-43.66-9.61,84.35,84.35,0,0,1-32.53-27.83c-8.58-12.26-14.31-27.19-17.08-44.78h203.12a36.12,36.12,0,0,0,17.49-4.61A33.79,33.79,0,0,0,2684,299a37.74,37.74,0,0,0,4.81-18.52,172.75,172.75,0,0,0-6.14-45.31A168.64,168.64,0,0,0,2664.24,192a149.42,149.42,0,0,0-30.68-36.51,140.65,140.65,0,0,0-43.16-25.17c-16.47-6.13-35-9.3-55.64-9.41-23.21.11-44.49,4.61-63.81,13.3a152.69,152.69,0,0,0-50.11,36.3,164.88,164.88,0,0,0-32.64,53.7q-11.64,30.52-11.76,65.46v1.22c.11,25.05,4.41,48,12.78,68.43a156.08,156.08,0,0,0,88,87.54q30.08,12,65.56,12.17c25.05-.1,47.05-4,66.17-11.56a164.85,164.85,0,0,0,50.43-31.39M2450.08,266.93q3.54-25.31,14.73-44.48a83.41,83.41,0,0,1,28.84-29.87c11.76-7.16,25.26-10.84,40.5-10.94,16.37.1,30.37,4,42,11.45a79.45,79.45,0,0,1,27.61,30.48q10.14,19.17,12.59,43.36Z"/><path class="cls-1" d="M2914.61,459q26.85-.15,48.17-5.82a147.63,147.63,0,0,0,38.25-16,172.39,172.39,0,0,0,31.4-24.23,28.63,28.63,0,0,0,7.77-10,32.66,32.66,0,0,0,2.66-13.3,33.83,33.83,0,0,0-4.3-16.37,32.17,32.17,0,0,0-11.45-11.66,31.06,31.06,0,0,0-16.16-4.5,29.3,29.3,0,0,0-11.77,2.66,34.76,34.76,0,0,0-8.48,5.32A130.23,130.23,0,0,1,2958,386c-11.86,5.21-25.06,7.87-39.68,8-14.32-.1-27.41-2.76-39.27-8.07a92.69,92.69,0,0,1-30.58-22.09,100.32,100.32,0,0,1-19.94-33,115.92,115.92,0,0,1-7.16-40.51V289a115.67,115.67,0,0,1,7-39.88A103.92,103.92,0,0,1,2848,216.31a89.2,89.2,0,0,1,29.76-22.2,87.21,87.21,0,0,1,37.43-8.18c14.63.1,27.41,2.76,38.56,7.77a127.54,127.54,0,0,1,30.78,19.84,35.08,35.08,0,0,0,9.42,5,35.84,35.84,0,0,0,12.67,2.35,35.38,35.38,0,0,0,17.39-4.5,33.88,33.88,0,0,0,12.27-12.07,33.51,33.51,0,0,0,4.71-17.18,34.23,34.23,0,0,0-1.94-11.15,37.69,37.69,0,0,0-4.5-8.79,38.28,38.28,0,0,0-5.22-5.83A167.73,167.73,0,0,0,2999,140.21a156.52,156.52,0,0,0-37.22-14.11c-13.7-3.48-29.05-5.11-45.92-5.22q-36.83.32-67.51,13.5A165.55,165.55,0,0,0,2794.85,171a169.15,169.15,0,0,0-35.09,53.9,172.24,172.24,0,0,0-12.68,65.35v1.23a170.29,170.29,0,0,0,12.68,65,164.26,164.26,0,0,0,88.07,89.29c20.34,8.59,42.54,13,66.78,13.19"/><path class="cls-1" d="M3223.89,457.16a145.18,145.18,0,0,0,26.8-2.25,152.13,152.13,0,0,0,24.12-6.34,32.85,32.85,0,0,0,13.71-10.94,30.72,30.72,0,0,0,5.93-17.9,29.56,29.56,0,0,0-4.39-15.55,32.87,32.87,0,0,0-11.46-11.05,32,32,0,0,0-15.45-4.08c-1.32.1-3.57.4-7,.92a89.69,89.69,0,0,1-11.45.92c-12.68.1-22.5-3.07-29.35-9.41s-10.43-16.77-10.54-31.1V191.45h58.29a33.8,33.8,0,0,0,16.37-4.29,32.09,32.09,0,0,0,11.66-11.45,31.27,31.27,0,0,0,0-32.32,32.12,32.12,0,0,0-11.66-11.46,33.91,33.91,0,0,0-16.37-4.29h-58.29V72.41a36.67,36.67,0,0,0-5-18.51,37.77,37.77,0,0,0-13.31-13.3,36.56,36.56,0,0,0-18.5-5,37.55,37.55,0,0,0-18.93,5,37.11,37.11,0,0,0-13.39,13.3,35.59,35.59,0,0,0-5.12,18.51v55.23h-12.27a32.87,32.87,0,0,0-16.17,4.29,32.4,32.4,0,0,0-11.45,11.46,32.58,32.58,0,0,0,0,32.32,32.37,32.37,0,0,0,11.45,11.45,32.77,32.77,0,0,0,16.17,4.29h12.27v170.6c.1,23.62,4.19,42.34,12.07,56.25s18.82,23.93,32.72,30.06,30.18,8.9,48.49,8.8"/><path class="cls-2" d="M0,430.77a25.5,25.5,0,0,0,3.16,12,24.26,24.26,0,0,0,8.4,8.59,23,23,0,0,0,11.76,3.37,24.24,24.24,0,0,0,12.17-3.37,24.79,24.79,0,0,0,8.59-8.59,24.27,24.27,0,0,0,3.16-12V98.18L313.57,438.75A54.26,54.26,0,0,0,325,449.28a24.4,24.4,0,0,0,13.71,4.2h2.46c6.54-.1,11.86-2.35,15.84-6.55s6.14-9.62,6.25-16.16V43a23.72,23.72,0,0,0-3.18-12,24,24,0,0,0-8.38-8.6A21.2,21.2,0,0,0,340,19a22.61,22.61,0,0,0-12.18,3.37A23.47,23.47,0,0,0,319.3,31,23.79,23.79,0,0,0,316,43V367L55.22,34.35A43.91,43.91,0,0,0,44.59,24a25.52,25.52,0,0,0-13.91-3.79H23.93a22.23,22.23,0,0,0-12,3.39,24.65,24.65,0,0,0-8.58,8.58A23.79,23.79,0,0,0,0,44.18Z"/><path class="cls-2" d="M622.84,416.66a113.83,113.83,0,0,1-83.66-36.1,120.22,120.22,0,0,1-24.65-39.28,131.86,131.86,0,0,1-8.88-48v-1.23a133.62,133.62,0,0,1,8.48-47.36,119.37,119.37,0,0,1,23.73-39,110.06,110.06,0,0,1,36.61-26.6c14.22-6.34,29.86-9.62,47.15-9.72a114.58,114.58,0,0,1,84,36.41,124.12,124.12,0,0,1,24.85,39.49,130.77,130.77,0,0,1,9,48.06v1.22A133.07,133.07,0,0,1,731,341.8a121.2,121.2,0,0,1-24.05,38.86,110.12,110.12,0,0,1-36.81,26.28c-14.22,6.34-30,9.62-47.26,9.72M621.62,459c24-.2,46.23-4.6,66.37-13.29a161.27,161.27,0,0,0,52.67-36A165.56,165.56,0,0,0,775.44,357a168.23,168.23,0,0,0,12.48-63.71v-1.23a168.27,168.27,0,0,0-12.38-63.51,161.47,161.47,0,0,0-86.73-87.85q-30.07-12.89-66-13.09-36,.3-66.27,13.29a161.88,161.88,0,0,0-52.47,35.9,164.91,164.91,0,0,0-34.46,52.77,168.21,168.21,0,0,0-12.48,63.72v1.22a166.75,166.75,0,0,0,12.38,63.52,161,161,0,0,0,86.21,87.85C575.8,454.5,597.69,458.8,621.62,459Z"/><path class="cls-2" d="M979.37,457.16a128.16,128.16,0,0,0,25.16-2.25,111.15,111.15,0,0,0,21.48-6.34,21.66,21.66,0,0,0,9.72-7.16,18.55,18.55,0,0,0,3.77-11.25,20.56,20.56,0,0,0-20.24-20.24,26.26,26.26,0,0,0-5.42,1.11,94.38,94.38,0,0,1-9.41,2.05,77.22,77.22,0,0,1-14,1.12c-10.74.1-20-1.63-28-5.11a38.44,38.44,0,0,1-18.6-16.77c-4.41-7.77-6.65-18.1-6.75-30.89V176.12h82.22a22.2,22.2,0,0,0,15.14-6,20.65,20.65,0,0,0,6.33-14.83,20.21,20.21,0,0,0-3-10.33,22.1,22.1,0,0,0-7.77-7.57,20.65,20.65,0,0,0-10.74-3H937V59.52a23.19,23.19,0,0,0-3.39-12,24.54,24.54,0,0,0-8.58-8.6,23.33,23.33,0,0,0-12-3.37,22.95,22.95,0,0,0-20.25,12,23.91,23.91,0,0,0-3.07,12v74.86H864a20.35,20.35,0,0,0-10.33,2.87,20.69,20.69,0,0,0-10.53,18,20.49,20.49,0,0,0,3,10.33,22.35,22.35,0,0,0,7.57,7.56,20.57,20.57,0,0,0,10.33,3h25.77V367.57c.21,21.38,4.09,38.66,12,51.85s18.3,22.81,31.81,28.84,28.63,9,45.81,8.9"/><path class="cls-2" d="M1370.25,411.14a22.6,22.6,0,0,0,5.53-7.16,19.43,19.43,0,0,0,1.84-8.18,20.07,20.07,0,0,0-6-14.32,21.19,21.19,0,0,0-14.83-5.94,17.79,17.79,0,0,0-7.47,1.64,29.14,29.14,0,0,0-6,3.89,149.92,149.92,0,0,1-25.37,19.12,120.31,120.31,0,0,1-30.06,12.89,132.62,132.62,0,0,1-36,4.81,112.48,112.48,0,0,1-40.29-7.16A104.58,104.58,0,0,1,1177.38,390a107.93,107.93,0,0,1-24.86-33.66c-6.45-13.39-10.64-28.63-12.38-45.81h229.51a22,22,0,0,0,22.09-22.09,189.94,189.94,0,0,0-6.34-49,169.29,169.29,0,0,0-18.41-44,144.74,144.74,0,0,0-30.07-35.4,132.3,132.3,0,0,0-41.12-23.72c-15.44-5.73-32.52-8.59-51.34-8.69-22.09.1-42.34,4.5-60.75,12.88a147,147,0,0,0-48.27,35.39,162.41,162.41,0,0,0-31.71,52.46q-11.34,29.76-11.45,64.33v1.23q.15,37,12.48,67.2a156.59,156.59,0,0,0,34.06,52.15A150.38,150.38,0,0,0,1189.13,447a161.43,161.43,0,0,0,61.47,12c17.9-.1,34.05-2,48.38-6a146.27,146.27,0,0,0,38.86-16.57,182.79,182.79,0,0,0,32.41-25.26M1140.14,275.52a144.92,144.92,0,0,1,10.95-43.06,119.22,119.22,0,0,1,22.19-34.15,97.11,97.11,0,0,1,31.4-22.6,92.84,92.84,0,0,1,38.56-8.19c15.84.1,29.75,3.08,41.83,8.8a90.69,90.69,0,0,1,30.68,23.52,115.58,115.58,0,0,1,19.73,34.47,155.88,155.88,0,0,1,9,41.21Z"/><polygon class="cls-3" points="1665.22 200.38 1721.09 332.69 1609.35 332.69 1665.22 200.38"/><path class="cls-3" d="M1584,454.6V408.34c0-12.27,10.75-22.32,23.92-22.32s23.92,10.06,23.92,22.32V454.6Zm57.28,0V408.34c0-12.27,10.76-22.32,23.93-22.32s23.92,10.06,23.92,22.32V454.6ZM1722.52,386h0c13.16,0,23.93,10.06,23.93,22.32v46.25H1698.6V408.34C1698.6,396.07,1709.36,386,1722.52,386Z"/></svg>