<?xml version="1.0" encoding="UTF-8"?>
<svg width="481px" height="388px" viewBox="0 0 481 388" version="1.1" xmlns="http://www.w3.org/2000/svg" xmlns:xlink="http://www.w3.org/1999/xlink">
  <title>
    Calendar-bro (1)
  </title>
  <g id="Presenter" stroke="none" stroke-width="1" fill="none" fill-rule="evenodd">
    <g id="Dashboard-/-Zero-state" transform="translate(-738.000000, -318.000000)">
      <g id="Calendar-bro-(1)" transform="translate(978.500000, 512.000000) scale(-1, 1) translate(-978.500000, -512.000000) translate(738.000000, 318.000000)">
        <g id="freepik--background-simple--inject-1--inject-117" transform="translate(28.881844, 18.844380)" fill-rule="nonzero">
          <path d="M432.774582,216.233026 C434.232084,208.973465 436.623798,201.933278 439.890029,195.288184 C448.812219,177.02 455.225043,161.038127 449.5483,140.639769 C435.640836,90.8204899 379.07415,84.9987608 351.17,47.4251873 C308.03121,-10.6359654 202.035591,-15.6770029 151.402161,34.4991643 C135.87755,49.8787896 128.605965,71.6043228 112.914063,86.8166571 C89.794438,109.244813 55.4663112,112.133372 31.7221326,134.494611 C-6.98902017,170.975216 -10.7474928,232.794841 23.6140922,273.814611 C59.9051009,317.131844 111.129625,310.02755 160.881988,300.815389 C185.362248,296.287378 210.812795,291.380173 235.76147,294.859827 C288.971182,302.354467 352.10683,331.585793 403.677089,302.4883 C431.146282,286.985994 431.848905,262.806859 431.213199,234.601585 C431.058112,228.439989 431.581726,222.280042 432.774582,216.233026 L432.774582,216.233026 Z" id="Path" fill="#A9CEF4"/>
          <path d="M432.774582,216.233026 C434.232084,208.973465 436.623798,201.933278 439.890029,195.288184 C448.812219,177.02 455.225043,161.038127 449.5483,140.639769 C435.640836,90.8204899 379.07415,84.9987608 351.17,47.4251873 C308.03121,-10.6359654 202.035591,-15.6770029 151.402161,34.4991643 C135.87755,49.8787896 128.605965,71.6043228 112.914063,86.8166571 C89.794438,109.244813 55.4663112,112.133372 31.7221326,134.494611 C-6.98902017,170.975216 -10.7474928,232.794841 23.6140922,273.814611 C59.9051009,317.131844 111.129625,310.02755 160.881988,300.815389 C185.362248,296.287378 210.812795,291.380173 235.76147,294.859827 C288.971182,302.354467 352.10683,331.585793 403.677089,302.4883 C431.146282,286.985994 431.848905,262.806859 431.213199,234.601585 C431.058112,228.439989 431.581726,222.280042 432.774582,216.233026 L432.774582,216.233026 Z" id="Path" fill="#FFFFFF" opacity="0.6"/>
        </g>
        <g id="freepik--Shadow--inject-1--inject-117" transform="translate(31.227666, 296.662824)" fill-rule="nonzero">
          <ellipse id="Oval" fill="#A9CEF4" cx="213.574928" cy="45.1685879" rx="213.574928" ry="45.1685879"/>
          <ellipse id="Oval" fill="#FFFFFF" opacity="0.3" cx="213.574928" cy="45.1685879" rx="213.574928" ry="45.1685879"/>
        </g>
        <g id="freepik--Plants--inject-1--inject-117" fill-rule="nonzero">
          <path d="M1.17103746,39.1907205 C0.644830147,37.2876562 0.951769228,35.2506486 2.01539226,33.5871422 C3.0790153,31.9236357 4.79919271,30.7902332 6.74740634,30.4692795 C12.5802882,29.6774352 19.7403458,37.5066571 22.0155043,42.2465706 C22.2051009,42.6592219 24.5360231,49.417781 24.4244957,49.417781 C24.3129683,49.417781 14.0859078,49.6519885 9.9259366,47.800634 C6.27899135,46.228098 2.14132565,43.2280115 1.17103746,39.1907205 Z M150.974611,21.1902017 C150.11585,25.2497983 146.056254,28.3614121 142.509683,30.0343228 C138.963112,31.7072334 130.542795,31.9972046 128.479539,32.0306628 C127.364265,33.3578386 126.170922,34.7965418 124.888357,36.402536 C122.65781,39.2576369 120.181902,42.5030836 117.7283,46.2057925 C117.070288,47.1983862 116.401124,48.2802017 115.73196,49.3285591 C117.226427,47.800634 119.289683,45.7373775 119.512738,45.5589337 C123.628098,42.2911816 133.487118,38.3765706 138.38317,41.63317 C139.999008,42.7696988 141.055684,44.5394005 141.289714,46.5009967 C141.523744,48.4625929 140.913072,50.431219 139.609971,51.9159942 C136.966772,55.1279827 131.936888,56.0202017 128.011124,55.8640634 C124.08536,55.7079251 116.244986,51.9717579 114.572075,51.1353026 C113.133372,53.4662248 111.705821,55.8975216 110.367493,58.518415 C107.875661,63.2429578 105.811608,68.1810078 104.200029,73.273487 L104.501153,73.4184726 C105.694496,71.8459366 108.293084,68.6004899 108.538444,68.3662824 C112.263458,64.6524207 121.642911,59.6894524 126.873545,62.3772622 C128.584298,63.3359797 129.812059,64.970993 130.25566,66.8812378 C130.699262,68.7914826 130.317662,70.8002251 129.204467,72.4147262 C126.973919,75.9055331 122.033256,77.3442363 118.118646,77.611902 C113.65755,77.9353314 104.278098,74.4110663 103.92121,74.2660807 C102.473842,79.3675379 101.356259,84.5568483 100.575389,89.8018444 C99.9731412,93.6829971 99.515879,97.6087608 99.0920749,101.612594 C99.9062248,100.49732 103.318963,96.2258213 103.55317,95.9470029 C107.278184,92.2442939 116.657637,87.2701729 121.877118,89.9691354 C123.609126,90.922343 124.853982,92.5672095 125.300856,94.4930232 C125.74773,96.4188368 125.354442,98.4438254 124.219193,100.062363 C121.988646,103.542017 117.047983,104.98072 113.133372,105.248386 C108.72804,105.560663 99.7500865,102.225994 99.0140058,101.902565 C98.8244092,103.709308 98.6348127,105.504899 98.4563689,107.322795 C97.8764265,113.222594 97.3410951,119.15585 96.6050144,124.988732 C96.3485014,127.007378 96.0362248,128.992565 95.7239481,130.977752 C96.9953602,129.327147 99.3597406,126.371671 99.5939481,126.137464 C103.318963,122.434755 112.698415,117.460634 117.929049,120.159597 C119.642473,121.115851 120.872589,122.751002 121.316446,124.662346 C121.760302,126.573689 121.376649,128.583594 120.259971,130.197061 C118.029424,133.676715 113.088761,135.115418 109.17415,135.394236 C105.259539,135.673055 97.6533718,133.029856 95.5231988,132.249164 C94.9767147,135.594986 94.4079251,138.818127 93.604928,141.996657 C93.2480403,143.368444 92.9803746,144.784841 92.5565706,146.078559 L91.4412968,149.970865 C90.5490778,152.602911 89.734928,155.04536 88.8427089,157.476657 C88.3965994,158.703458 87.9616427,159.85219 87.5155331,161.045533 C88.5527378,159.171873 90.2479539,156.249856 90.4263977,155.993343 C93.5491643,151.766455 102.058703,145.442853 107.635072,147.316513 C109.492205,147.99296 110.973359,149.42832 111.707777,151.263301 C112.442195,153.098282 112.360364,155.159199 111.482767,156.930173 C109.765245,160.722104 105.136859,162.885735 101.300317,163.744496 C97.0845821,164.703631 88.0285591,162.863429 86.924438,162.629222 C85.8091643,165.540086 84.6938905,168.350576 83.6455331,170.97147 C80.2997118,179.257954 77.1211816,186.038818 74.8571758,190.756427 L74.4891354,191.514813 L90.9840346,191.514813 L85.2849856,302.596081 C84.9606445,311.131804 77.9341829,317.877207 69.3923343,317.853091 L69.3923343,317.853091 C60.9400395,317.858215 53.966743,311.237997 53.5331412,302.79683 L47.8340922,191.715562 L65.5446398,191.715562 C65.4554179,190.946023 65.366196,190.131873 65.2658213,189.217349 C64.6747262,184.087089 63.7155908,176.748588 62.176513,168.027147 C61.7415562,165.506628 61.239683,162.841124 60.6820461,160.108703 C59.5667723,160.253689 50.3992219,161.413573 46.2615562,160.108703 C42.5142363,158.993429 38.0531412,156.450605 36.6255908,152.547147 C35.8856245,150.715736 35.9587617,148.656157 36.8267696,146.881847 C37.6947776,145.107536 39.2758756,143.785664 41.1759078,143.245764 C46.8749568,141.784755 54.8937752,148.744063 57.6931124,153.182853 C57.8715562,153.472824 59.6002305,157.075159 60.4478386,158.937666 C60.1132565,157.287061 59.7898271,155.647608 59.410634,153.930086 C58.8753026,151.465331 58.2953602,148.877896 57.6373487,146.357378 C57.2804611,145.06366 56.9124207,143.75879 56.5220749,142.442767 C56.1317291,141.126744 55.6856196,139.877637 55.2729683,138.561614 C54.6261095,136.665648 53.8565706,134.736225 53.0424207,132.806801 C50.566513,133.498271 43.250317,135.383084 39.4918444,134.836599 C35.7333718,134.290115 30.8150144,132.472219 28.8186744,128.836427 C27.8066471,127.137437 27.5652237,125.088124 28.1547185,123.200464 C28.7442132,121.312803 30.1089514,119.765076 31.9079827,118.943948 C37.3170605,116.635331 46.2950144,122.289769 49.7523631,126.271297 C49.8638905,126.393977 50.5107493,127.308501 51.2579827,128.40147 C50.4549856,126.550115 49.6631412,124.687608 48.7932277,122.825101 C46.3173199,117.561009 43.6295101,112.263458 40.9863112,106.954755 C40.4286744,105.839481 39.8710375,104.724207 39.3357061,103.608934 C37.2501441,104.200029 29.2982421,106.319049 25.4059366,105.750259 C21.5136311,105.18147 16.7291066,103.385879 14.7327666,99.7389337 C13.7377251,98.0407598 13.5082922,96.0006551 14.1012911,94.1238881 C14.69429,92.2471211 16.0542601,90.7092173 17.8443804,89.8910663 C23.2534582,87.5936023 32.2314121,93.2368876 35.6887608,97.2295677 C35.8114409,97.3634006 36.5809798,98.4563689 37.4174352,99.6943228 C36.0121902,96.7834582 34.6404035,93.8725937 33.3689914,90.9282709 C31.1733128,85.9035367 29.3105025,80.7398266 27.7926225,75.4705764 C27.0676945,75.6824784 17.8443804,78.3591354 13.4613545,77.7011239 C9.58020173,77.143487 4.79567723,75.3367435 2.79933718,71.700951 C1.78661498,70.0033841 1.54356681,67.9552455 2.13086426,66.0678076 C2.71816171,64.1803698 4.08038773,62.6317303 5.8774928,61.8084726 C11.2977233,59.5110086 20.2756772,65.1542939 23.7218732,69.1358213 C23.9672334,69.4257925 26.6885014,73.3961671 27.6141787,74.8571758 C27.6092428,74.7940733 27.6092428,74.7306817 27.6141787,74.6675793 C26.2501027,69.4528236 25.3543277,64.1266947 24.9375216,58.7526225 C24.5275017,53.9574557 24.3934477,49.1426849 24.5360231,44.3321326 C24.6475504,39.8710375 25.0155908,35.7891354 25.3724784,32.1868012 C25.5843804,30.235072 25.8074352,28.450634 26.0416427,26.7888761 L25.941268,26.8557925 C25.8408934,26.9227089 23.8780115,20.0526225 23.7999424,19.606513 C22.9300288,14.4204899 24.3129683,3.90345821 29.5324496,1.19334294 C31.3138738,0.334800371 33.3761236,0.273325562 35.2055248,1.02423093 C37.034926,1.7751363 38.4592806,3.2677406 39.123804,5.13025937 C40.6405764,9.00025937 38.9676657,13.8293948 36.8932565,17.1863689 C34.8188473,20.5433429 27.9710663,25.4170893 26.2981556,26.5881268 C26.0974063,28.3168012 25.8966571,30.1681556 25.7182133,32.1644957 C25.4393948,35.76683 25.1605764,39.8375793 25.1494236,44.2875216 C25.1494236,45.4808646 25.1494236,46.7522767 25.2051873,47.9902305 C25.6066859,45.8935159 26.197781,43.038415 26.3204611,42.7595965 C27.9376081,37.76317 34.0046974,29.0640346 39.8933429,29.0751873 C41.8687928,29.132662 43.7266456,30.0273162 45.0033074,31.5359049 C46.2799692,33.0444937 46.8550271,35.0247289 46.5849856,36.9824784 C46.1611816,41.1201441 42.4473199,44.6332565 39.0903458,46.6742075 C35.7333718,48.7151585 27.09,49.9754179 25.2386455,50.1873199 C25.3278674,52.9308934 25.472853,55.7636888 25.8074352,58.6634006 C26.3364375,63.9759831 27.3366858,69.2310194 28.7963689,74.3664553 L29.130951,74.3664553 C29.2647839,72.3924207 29.6439769,68.254755 29.7108934,67.9090202 C30.8261671,62.7676081 35.8448991,53.4104611 41.7000865,52.819366 C43.6698272,52.6602846 45.6143203,53.3461117 47.0484114,54.7057323 C48.4825026,56.0653528 49.2709489,57.9705469 49.2170317,59.9459654 C49.2170317,64.0947839 45.9492795,68.0093948 42.8376657,70.3960807 C39.2464841,73.1508069 29.5212968,75.359049 29.1532565,75.4371182 C30.7419323,80.5015871 32.6605917,85.4565717 34.8969164,90.2702594 C36.5363689,93.8391354 38.3319597,97.3968588 40.1721614,100.943429 C40.2390778,99.5493372 40.7297983,94.1179539 40.8078674,93.7276081 C41.9231412,88.586196 46.9418732,79.229049 52.7970605,78.6268012 C54.7659269,78.4713191 56.7083318,79.158355 58.1415825,80.5171787 C59.5748332,81.8760024 60.3643754,83.7790469 60.3140058,85.7534006 C60.3140058,89.9133718 57.0351009,93.81683 53.923487,96.2035159 C50.4215274,98.8913256 41.1201441,101.054957 40.3282997,101.233401 C41.164755,102.839395 42.0012104,104.456542 42.8488184,106.062536 C45.6258501,111.315476 48.4251873,116.557262 51.0572334,121.821354 C51.9606052,123.650403 52.7859078,125.479452 53.6223631,127.308501 C53.7673487,125.222939 54.1242363,121.453314 54.18,121.129885 C55.2952738,115.988473 60.3251585,106.631326 66.1691931,106.029078 C68.1389338,105.869996 70.0834269,106.555824 71.517518,107.915444 C72.9516092,109.275065 73.7400555,111.180259 73.6861383,113.155677 C73.6861383,117.315648 70.4183862,121.219107 67.3067723,123.605793 C64.1951585,125.992478 56.3882421,127.988818 54.1911527,128.52415 C55.5629395,131.602305 56.8789625,134.613545 57.9942363,137.6917 C58.4514986,139.030029 58.9979827,140.357205 59.3660231,141.662075 L60.5482133,145.55438 C61.2508357,148.24219 61.92,150.729251 62.5222478,153.249769 C62.8345245,154.521182 63.0910375,155.725677 63.3810086,156.952478 C63.2137176,154.833458 63.0129683,151.454179 63.024121,151.141902 C63.3029395,145.900115 66.9052738,135.918415 72.59317,134.412795 C74.5168583,133.95724 76.5435141,134.341314 78.1671365,135.469125 C79.7907589,136.596936 80.8581128,138.362043 81.1027089,140.323746 C81.1812646,140.832833 81.2148525,141.347847 81.2030836,141.862824 C83.4932769,145.87381 84.7180954,150.404487 84.7608069,155.023055 C84.7608069,155.357637 84.2143228,159.316859 83.8908934,161.335504 C84.5265994,159.774121 85.1511527,158.22389 85.7757061,156.595591 C86.7013833,154.242363 87.5936023,151.732997 88.4858213,149.3017 L89.734928,145.4317 C90.1810375,144.12683 90.4487032,142.833112 90.8502017,141.505937 C91.3632277,139.56536 91.7870317,137.524409 92.2108357,135.505764 C89.7683862,134.702767 82.6194813,132.249164 79.7866859,129.717493 C76.9538905,127.185821 73.8645821,122.958934 74.210317,118.821268 C74.3071105,116.848063 75.2366625,115.008611 76.767852,113.760266 C78.2990415,112.511921 80.2880324,111.971951 82.2402882,112.274611 C88.0285591,113.389885 92.4004323,123.014697 93.0695965,128.223026 C93.0695965,128.390317 93.1253602,129.505591 93.1476657,130.832767 C93.5045533,128.847579 93.8725937,126.851239 94.1625648,124.821441 C95.0101729,119.066628 95.6793372,113.16683 96.3931124,107.267032 C96.538098,106.029078 96.705389,104.802277 96.8503746,103.575476 C94.7871182,102.917464 87.0248127,100.330029 84.0581844,97.6756772 C81.0915562,95.0213256 78.1360807,90.9171182 78.4818156,86.7794524 C78.5716645,84.8035886 79.4993443,82.9596653 81.0323384,81.7098493 C82.5653325,80.4600333 84.5583252,79.9227972 86.5117867,80.2327954 C92.3000576,81.3480692 96.6607781,90.9728818 97.3410951,96.1812104 C97.3410951,96.3596542 97.3410951,97.6979827 97.4191643,99.1924496 C97.8429683,95.9804611 98.3113833,92.8019308 98.8801729,89.6457061 C99.8055127,84.2183591 101.098489,78.8601441 102.750173,73.6080692 C102.014092,73.3850144 92.8576945,70.5299135 89.5564841,67.5855908 C86.6233141,64.9646974 83.6232277,60.8270317 83.9801153,56.689366 C84.0699642,54.7135021 84.997644,52.8695789 86.5306381,51.6197629 C88.0636322,50.3699469 90.0566249,49.8327107 92.0100865,50.1427089 C97.7872046,51.2579827 102.159078,60.8827954 102.839395,66.0911239 C102.839395,66.4591643 102.962075,71.277147 102.928617,73.0058213 C102.928617,72.9389049 102.928617,72.8719885 102.98438,72.8162248 C104.726982,67.7143443 106.91775,62.77672 109.531037,58.0611527 C111.851515,53.8281483 114.413437,49.7320528 117.204121,45.7931412 C119.758098,42.1238905 122.312075,38.9342075 124.609539,36.1237176 C125.858646,34.6069452 127.029683,33.2463112 128.133804,31.9860519 L128.011124,31.9860519 C127.899597,31.9860519 130.052075,25.1605764 130.241671,24.7479251 C132.382997,19.9522478 139.331153,11.9334294 145.175187,12.5579827 C147.143925,12.8262792 148.904101,13.9232954 150.012149,15.572581 C151.120196,17.2218665 151.470437,19.2661259 150.974611,21.1902017 L150.974611,21.1902017 Z M83.5117003,162.383862 C82.5079539,161.904294 74.8014121,158.090058 71.7901729,154.822305 C69.1838446,156.241948 66.4949531,157.504461 63.7378963,158.603084 C64.4182133,161.636628 65.065072,164.592104 65.6115562,167.369135 C67.3513833,176.157493 68.4778098,183.540605 69.191585,188.726628 C69.3365706,189.841902 69.4704035,190.81219 69.5819308,191.715562 L69.9722767,191.715562 L71.2659942,189.206196 C73.5969164,184.600115 76.8423631,177.953084 80.3889337,169.811585 C81.4149856,167.46951 82.4633429,164.971297 83.5117003,162.383862 Z M114.337867,50.0757925 C114.427089,50.0757925 116.211527,43.2168588 116.278444,42.7595965 C117.003372,37.5624207 115.341614,27.0788473 110.044063,24.5137176 C108.238949,23.7045646 106.175048,23.7004961 104.366758,24.5025259 C102.558468,25.3045557 101.176117,26.8371386 100.564236,28.7182997 C99.1478386,32.6217579 100.954582,37.4062824 103.084755,40.6963401 C105.582968,44.610951 114.326715,50.0757925 114.337867,50.0757925 L114.337867,50.0757925 Z" id="Shape" fill="#A9CEF4"/>
          <path d="M1.17103746,39.1907205 C0.644830147,37.2876562 0.951769228,35.2506486 2.01539226,33.5871422 C3.0790153,31.9236357 4.79919271,30.7902332 6.74740634,30.4692795 C12.5802882,29.6774352 19.7403458,37.5066571 22.0155043,42.2465706 C22.2051009,42.6592219 24.5360231,49.417781 24.4244957,49.417781 C24.3129683,49.417781 14.0859078,49.6519885 9.9259366,47.800634 C6.27899135,46.228098 2.14132565,43.2280115 1.17103746,39.1907205 Z M150.974611,21.1902017 C150.11585,25.2497983 146.056254,28.3614121 142.509683,30.0343228 C138.963112,31.7072334 130.542795,31.9972046 128.479539,32.0306628 C127.364265,33.3578386 126.170922,34.7965418 124.888357,36.402536 C122.65781,39.2576369 120.181902,42.5030836 117.7283,46.2057925 C117.070288,47.1983862 116.401124,48.2802017 115.73196,49.3285591 C117.226427,47.800634 119.289683,45.7373775 119.512738,45.5589337 C123.628098,42.2911816 133.487118,38.3765706 138.38317,41.63317 C139.999008,42.7696988 141.055684,44.5394005 141.289714,46.5009967 C141.523744,48.4625929 140.913072,50.431219 139.609971,51.9159942 C136.966772,55.1279827 131.936888,56.0202017 128.011124,55.8640634 C124.08536,55.7079251 116.244986,51.9717579 114.572075,51.1353026 C113.133372,53.4662248 111.705821,55.8975216 110.367493,58.518415 C107.875661,63.2429578 105.811608,68.1810078 104.200029,73.273487 L104.501153,73.4184726 C105.694496,71.8459366 108.293084,68.6004899 108.538444,68.3662824 C112.263458,64.6524207 121.642911,59.6894524 126.873545,62.3772622 C128.584298,63.3359797 129.812059,64.970993 130.25566,66.8812378 C130.699262,68.7914826 130.317662,70.8002251 129.204467,72.4147262 C126.973919,75.9055331 122.033256,77.3442363 118.118646,77.611902 C113.65755,77.9353314 104.278098,74.4110663 103.92121,74.2660807 C102.473842,79.3675379 101.356259,84.5568483 100.575389,89.8018444 C99.9731412,93.6829971 99.515879,97.6087608 99.0920749,101.612594 C99.9062248,100.49732 103.318963,96.2258213 103.55317,95.9470029 C107.278184,92.2442939 116.657637,87.2701729 121.877118,89.9691354 C123.609126,90.922343 124.853982,92.5672095 125.300856,94.4930232 C125.74773,96.4188368 125.354442,98.4438254 124.219193,100.062363 C121.988646,103.542017 117.047983,104.98072 113.133372,105.248386 C108.72804,105.560663 99.7500865,102.225994 99.0140058,101.902565 C98.8244092,103.709308 98.6348127,105.504899 98.4563689,107.322795 C97.8764265,113.222594 97.3410951,119.15585 96.6050144,124.988732 C96.3485014,127.007378 96.0362248,128.992565 95.7239481,130.977752 C96.9953602,129.327147 99.3597406,126.371671 99.5939481,126.137464 C103.318963,122.434755 112.698415,117.460634 117.929049,120.159597 C119.642473,121.115851 120.872589,122.751002 121.316446,124.662346 C121.760302,126.573689 121.376649,128.583594 120.259971,130.197061 C118.029424,133.676715 113.088761,135.115418 109.17415,135.394236 C105.259539,135.673055 97.6533718,133.029856 95.5231988,132.249164 C94.9767147,135.594986 94.4079251,138.818127 93.604928,141.996657 C93.2480403,143.368444 92.9803746,144.784841 92.5565706,146.078559 L91.4412968,149.970865 C90.5490778,152.602911 89.734928,155.04536 88.8427089,157.476657 C88.3965994,158.703458 87.9616427,159.85219 87.5155331,161.045533 C88.5527378,159.171873 90.2479539,156.249856 90.4263977,155.993343 C93.5491643,151.766455 102.058703,145.442853 107.635072,147.316513 C109.492205,147.99296 110.973359,149.42832 111.707777,151.263301 C112.442195,153.098282 112.360364,155.159199 111.482767,156.930173 C109.765245,160.722104 105.136859,162.885735 101.300317,163.744496 C97.0845821,164.703631 88.0285591,162.863429 86.924438,162.629222 C85.8091643,165.540086 84.6938905,168.350576 83.6455331,170.97147 C80.2997118,179.257954 77.1211816,186.038818 74.8571758,190.756427 L74.4891354,191.514813 L90.9840346,191.514813 L85.2849856,302.596081 C84.9606445,311.131804 77.9341829,317.877207 69.3923343,317.853091 L69.3923343,317.853091 C60.9400395,317.858215 53.966743,311.237997 53.5331412,302.79683 L47.8340922,191.715562 L65.5446398,191.715562 C65.4554179,190.946023 65.366196,190.131873 65.2658213,189.217349 C64.6747262,184.087089 63.7155908,176.748588 62.176513,168.027147 C61.7415562,165.506628 61.239683,162.841124 60.6820461,160.108703 C59.5667723,160.253689 50.3992219,161.413573 46.2615562,160.108703 C42.5142363,158.993429 38.0531412,156.450605 36.6255908,152.547147 C35.8856245,150.715736 35.9587617,148.656157 36.8267696,146.881847 C37.6947776,145.107536 39.2758756,143.785664 41.1759078,143.245764 C46.8749568,141.784755 54.8937752,148.744063 57.6931124,153.182853 C57.8715562,153.472824 59.6002305,157.075159 60.4478386,158.937666 C60.1132565,157.287061 59.7898271,155.647608 59.410634,153.930086 C58.8753026,151.465331 58.2953602,148.877896 57.6373487,146.357378 C57.2804611,145.06366 56.9124207,143.75879 56.5220749,142.442767 C56.1317291,141.126744 55.6856196,139.877637 55.2729683,138.561614 C54.6261095,136.665648 53.8565706,134.736225 53.0424207,132.806801 C50.566513,133.498271 43.250317,135.383084 39.4918444,134.836599 C35.7333718,134.290115 30.8150144,132.472219 28.8186744,128.836427 C27.8066471,127.137437 27.5652237,125.088124 28.1547185,123.200464 C28.7442132,121.312803 30.1089514,119.765076 31.9079827,118.943948 C37.3170605,116.635331 46.2950144,122.289769 49.7523631,126.271297 C49.8638905,126.393977 50.5107493,127.308501 51.2579827,128.40147 C50.4549856,126.550115 49.6631412,124.687608 48.7932277,122.825101 C46.3173199,117.561009 43.6295101,112.263458 40.9863112,106.954755 C40.4286744,105.839481 39.8710375,104.724207 39.3357061,103.608934 C37.2501441,104.200029 29.2982421,106.319049 25.4059366,105.750259 C21.5136311,105.18147 16.7291066,103.385879 14.7327666,99.7389337 C13.7377251,98.0407598 13.5082922,96.0006551 14.1012911,94.1238881 C14.69429,92.2471211 16.0542601,90.7092173 17.8443804,89.8910663 C23.2534582,87.5936023 32.2314121,93.2368876 35.6887608,97.2295677 C35.8114409,97.3634006 36.5809798,98.4563689 37.4174352,99.6943228 C36.0121902,96.7834582 34.6404035,93.8725937 33.3689914,90.9282709 C31.1733128,85.9035367 29.3105025,80.7398266 27.7926225,75.4705764 C27.0676945,75.6824784 17.8443804,78.3591354 13.4613545,77.7011239 C9.58020173,77.143487 4.79567723,75.3367435 2.79933718,71.700951 C1.78661498,70.0033841 1.54356681,67.9552455 2.13086426,66.0678076 C2.71816171,64.1803698 4.08038773,62.6317303 5.8774928,61.8084726 C11.2977233,59.5110086 20.2756772,65.1542939 23.7218732,69.1358213 C23.9672334,69.4257925 26.6885014,73.3961671 27.6141787,74.8571758 C27.6092428,74.7940733 27.6092428,74.7306817 27.6141787,74.6675793 C26.2501027,69.4528236 25.3543277,64.1266947 24.9375216,58.7526225 C24.5275017,53.9574557 24.3934477,49.1426849 24.5360231,44.3321326 C24.6475504,39.8710375 25.0155908,35.7891354 25.3724784,32.1868012 C25.5843804,30.235072 25.8074352,28.450634 26.0416427,26.7888761 L25.941268,26.8557925 C25.8408934,26.9227089 23.8780115,20.0526225 23.7999424,19.606513 C22.9300288,14.4204899 24.3129683,3.90345821 29.5324496,1.19334294 C31.3138738,0.334800371 33.3761236,0.273325562 35.2055248,1.02423093 C37.034926,1.7751363 38.4592806,3.2677406 39.123804,5.13025937 C40.6405764,9.00025937 38.9676657,13.8293948 36.8932565,17.1863689 C34.8188473,20.5433429 27.9710663,25.4170893 26.2981556,26.5881268 C26.0974063,28.3168012 25.8966571,30.1681556 25.7182133,32.1644957 C25.4393948,35.76683 25.1605764,39.8375793 25.1494236,44.2875216 C25.1494236,45.4808646 25.1494236,46.7522767 25.2051873,47.9902305 C25.6066859,45.8935159 26.197781,43.038415 26.3204611,42.7595965 C27.9376081,37.76317 34.0046974,29.0640346 39.8933429,29.0751873 C41.8687928,29.132662 43.7266456,30.0273162 45.0033074,31.5359049 C46.2799692,33.0444937 46.8550271,35.0247289 46.5849856,36.9824784 C46.1611816,41.1201441 42.4473199,44.6332565 39.0903458,46.6742075 C35.7333718,48.7151585 27.09,49.9754179 25.2386455,50.1873199 C25.3278674,52.9308934 25.472853,55.7636888 25.8074352,58.6634006 C26.3364375,63.9759831 27.3366858,69.2310194 28.7963689,74.3664553 L29.130951,74.3664553 C29.2647839,72.3924207 29.6439769,68.254755 29.7108934,67.9090202 C30.8261671,62.7676081 35.8448991,53.4104611 41.7000865,52.819366 C43.6698272,52.6602846 45.6143203,53.3461117 47.0484114,54.7057323 C48.4825026,56.0653528 49.2709489,57.9705469 49.2170317,59.9459654 C49.2170317,64.0947839 45.9492795,68.0093948 42.8376657,70.3960807 C39.2464841,73.1508069 29.5212968,75.359049 29.1532565,75.4371182 C30.7419323,80.5015871 32.6605917,85.4565717 34.8969164,90.2702594 C36.5363689,93.8391354 38.3319597,97.3968588 40.1721614,100.943429 C40.2390778,99.5493372 40.7297983,94.1179539 40.8078674,93.7276081 C41.9231412,88.586196 46.9418732,79.229049 52.7970605,78.6268012 C54.7659269,78.4713191 56.7083318,79.158355 58.1415825,80.5171787 C59.5748332,81.8760024 60.3643754,83.7790469 60.3140058,85.7534006 C60.3140058,89.9133718 57.0351009,93.81683 53.923487,96.2035159 C50.4215274,98.8913256 41.1201441,101.054957 40.3282997,101.233401 C41.164755,102.839395 42.0012104,104.456542 42.8488184,106.062536 C45.6258501,111.315476 48.4251873,116.557262 51.0572334,121.821354 C51.9606052,123.650403 52.7859078,125.479452 53.6223631,127.308501 C53.7673487,125.222939 54.1242363,121.453314 54.18,121.129885 C55.2952738,115.988473 60.3251585,106.631326 66.1691931,106.029078 C68.1389338,105.869996 70.0834269,106.555824 71.517518,107.915444 C72.9516092,109.275065 73.7400555,111.180259 73.6861383,113.155677 C73.6861383,117.315648 70.4183862,121.219107 67.3067723,123.605793 C64.1951585,125.992478 56.3882421,127.988818 54.1911527,128.52415 C55.5629395,131.602305 56.8789625,134.613545 57.9942363,137.6917 C58.4514986,139.030029 58.9979827,140.357205 59.3660231,141.662075 L60.5482133,145.55438 C61.2508357,148.24219 61.92,150.729251 62.5222478,153.249769 C62.8345245,154.521182 63.0910375,155.725677 63.3810086,156.952478 C63.2137176,154.833458 63.0129683,151.454179 63.024121,151.141902 C63.3029395,145.900115 66.9052738,135.918415 72.59317,134.412795 C74.5168583,133.95724 76.5435141,134.341314 78.1671365,135.469125 C79.7907589,136.596936 80.8581128,138.362043 81.1027089,140.323746 C81.1812646,140.832833 81.2148525,141.347847 81.2030836,141.862824 C83.4932769,145.87381 84.7180954,150.404487 84.7608069,155.023055 C84.7608069,155.357637 84.2143228,159.316859 83.8908934,161.335504 C84.5265994,159.774121 85.1511527,158.22389 85.7757061,156.595591 C86.7013833,154.242363 87.5936023,151.732997 88.4858213,149.3017 L89.734928,145.4317 C90.1810375,144.12683 90.4487032,142.833112 90.8502017,141.505937 C91.3632277,139.56536 91.7870317,137.524409 92.2108357,135.505764 C89.7683862,134.702767 82.6194813,132.249164 79.7866859,129.717493 C76.9538905,127.185821 73.8645821,122.958934 74.210317,118.821268 C74.3071105,116.848063 75.2366625,115.008611 76.767852,113.760266 C78.2990415,112.511921 80.2880324,111.971951 82.2402882,112.274611 C88.0285591,113.389885 92.4004323,123.014697 93.0695965,128.223026 C93.0695965,128.390317 93.1253602,129.505591 93.1476657,130.832767 C93.5045533,128.847579 93.8725937,126.851239 94.1625648,124.821441 C95.0101729,119.066628 95.6793372,113.16683 96.3931124,107.267032 C96.538098,106.029078 96.705389,104.802277 96.8503746,103.575476 C94.7871182,102.917464 87.0248127,100.330029 84.0581844,97.6756772 C81.0915562,95.0213256 78.1360807,90.9171182 78.4818156,86.7794524 C78.5716645,84.8035886 79.4993443,82.9596653 81.0323384,81.7098493 C82.5653325,80.4600333 84.5583252,79.9227972 86.5117867,80.2327954 C92.3000576,81.3480692 96.6607781,90.9728818 97.3410951,96.1812104 C97.3410951,96.3596542 97.3410951,97.6979827 97.4191643,99.1924496 C97.8429683,95.9804611 98.3113833,92.8019308 98.8801729,89.6457061 C99.8055127,84.2183591 101.098489,78.8601441 102.750173,73.6080692 C102.014092,73.3850144 92.8576945,70.5299135 89.5564841,67.5855908 C86.6233141,64.9646974 83.6232277,60.8270317 83.9801153,56.689366 C84.0699642,54.7135021 84.997644,52.8695789 86.5306381,51.6197629 C88.0636322,50.3699469 90.0566249,49.8327107 92.0100865,50.1427089 C97.7872046,51.2579827 102.159078,60.8827954 102.839395,66.0911239 C102.839395,66.4591643 102.962075,71.277147 102.928617,73.0058213 C102.928617,72.9389049 102.928617,72.8719885 102.98438,72.8162248 C104.726982,67.7143443 106.91775,62.77672 109.531037,58.0611527 C111.851515,53.8281483 114.413437,49.7320528 117.204121,45.7931412 C119.758098,42.1238905 122.312075,38.9342075 124.609539,36.1237176 C125.858646,34.6069452 127.029683,33.2463112 128.133804,31.9860519 L128.011124,31.9860519 C127.899597,31.9860519 130.052075,25.1605764 130.241671,24.7479251 C132.382997,19.9522478 139.331153,11.9334294 145.175187,12.5579827 C147.143925,12.8262792 148.904101,13.9232954 150.012149,15.572581 C151.120196,17.2218665 151.470437,19.2661259 150.974611,21.1902017 L150.974611,21.1902017 Z M83.5117003,162.383862 C82.5079539,161.904294 74.8014121,158.090058 71.7901729,154.822305 C69.1838446,156.241948 66.4949531,157.504461 63.7378963,158.603084 C64.4182133,161.636628 65.065072,164.592104 65.6115562,167.369135 C67.3513833,176.157493 68.4778098,183.540605 69.191585,188.726628 C69.3365706,189.841902 69.4704035,190.81219 69.5819308,191.715562 L69.9722767,191.715562 L71.2659942,189.206196 C73.5969164,184.600115 76.8423631,177.953084 80.3889337,169.811585 C81.4149856,167.46951 82.4633429,164.971297 83.5117003,162.383862 Z M114.337867,50.0757925 C114.427089,50.0757925 116.211527,43.2168588 116.278444,42.7595965 C117.003372,37.5624207 115.341614,27.0788473 110.044063,24.5137176 C108.238949,23.7045646 106.175048,23.7004961 104.366758,24.5025259 C102.558468,25.3045557 101.176117,26.8371386 100.564236,28.7182997 C99.1478386,32.6217579 100.954582,37.4062824 103.084755,40.6963401 C105.582968,44.610951 114.326715,50.0757925 114.337867,50.0757925 L114.337867,50.0757925 Z" id="Shape" fill="#06A77D" opacity="0.3"/>
        </g>
        <g id="freepik--Calendar--inject-1--inject-117" transform="translate(61.340058, 71.377522)">
          <path d="M368.720663,18.1343516 C368.720663,18.1343516 357.813285,26.4765994 356.307666,32.9005764 C354.802046,39.3245533 356.742622,46.1611816 358.025187,50.2319308 C359.307752,54.3026801 359.519654,73.9872622 347.541614,82.7533141 C335.563573,91.519366 330.210259,100.296571 331.492824,111.215101 C332.775389,122.133631 349.036081,134.111671 362.519741,136.866398 C376.003401,139.621124 395.041124,133.442507 402.524611,117.393718 C410.008098,101.344928 399.959481,83.6455331 394.394265,73.6080692 C388.829049,63.5706052 389.264006,54.135389 395.509539,53.711585 C401.755072,53.287781 404.92245,54.8268588 405.145504,46.0050432 C405.368559,37.1832277 403.216081,23.5434294 391.873746,16.6956484 C380.531412,9.84786744 368.720663,18.1343516 368.720663,18.1343516 Z" id="Path" stroke="#2E353A" stroke-width="1.11527378" fill="#2E353A" fill-rule="nonzero" stroke-linecap="round" stroke-linejoin="round"/>
          <path d="M341.86487,125.758271 C342.980144,126.505504 353.017608,130.598559 360.445331,119.066628 C367.873055,107.534697 357.757522,96.9061383 359.709251,86.7236888" id="Path" stroke="#FFFFFF" stroke-width="0.557636888"/>
          <path d="M380.921758,31.4061095 C380.921758,31.4061095 377.442104,20.1641499 384.981354,23.8110951 C393.067089,27.7145533 399.479914,46.1165706 396.691729,50.2988473" id="Path" stroke="#FFFFFF" stroke-width="0.557636888"/>
          <path d="M378.847349,29.9451009 C378.847349,29.9451009 374.665072,21.859366 377.453256,18.2347262 C380.241441,14.6100865 386.654265,18.7923631 390.000086,21.3017291" id="Path" stroke="#FFFFFF" stroke-width="0.557636888"/>
          <path d="M388.327176,51.9717579 C388.327176,51.9717579 389.44245,56.9904899 386.096628,67.0279539 C382.750807,77.0654179 376.616801,88.4969741 382.750807,99.0920749 C388.884813,109.687176 393.624726,116.936455 386.654265,127.531556" id="Path" stroke="#FFFFFF" stroke-width="0.557636888"/>
          <path d="M388.327176,57.8269452 C388.569709,64.3639815 388.102276,70.9080376 386.933084,77.3442363 C384.981354,88.4969741 391.11536,95.7462536 397.528184,102.716715 C403.941009,109.687176 402.268098,115.542363 400.03755,121.955187" id="Path" stroke="#FFFFFF" stroke-width="0.557636888"/>
          <path d="M378.56853,31.6180115 C378.56853,31.6180115 365.464063,32.7332853 361.560605,31.0603746 C357.657147,29.387464 358.493602,27.9933718 358.493602,27.9933718" id="Path" stroke="#FFFFFF" stroke-width="0.557636888"/>
          <path d="M380.308357,76.1620461 C380.308357,76.1620461 382.014726,93.4934006 384.200663,103.519712 C386.386599,113.546023 389.866254,126.20438 388.99634,129.695187 C388.126427,133.185994 368.921412,162.841124 368.921412,162.841124 L363.255821,158.91536 L375.033112,123.583487 L365.118329,90.4598559 C365.118329,90.4598559 374.196657,77.1546398 380.308357,76.1620461 Z" id="Path" stroke="#2E353A" stroke-width="1.11527378" fill="#FFFFFF" fill-rule="nonzero" stroke-linecap="round" stroke-linejoin="round"/>
          <path d="M378.780432,73.3404035 C375.992248,70.128415 370.003228,61.7861671 370.003228,61.7861671 L360.590317,50.6334294 L347.541614,32.6663689 C345.824092,30.3131412 340.046974,31.1607493 323.362478,31.383804 C306.677983,31.6068588 256.033401,21.9708934 256.033401,21.9708934 L254.327032,33.1236311 C254.327032,33.1236311 300.67781,43.1610951 312.443948,44.2763689 C324.210086,45.3916427 335.128617,46.8414986 335.128617,46.8414986 C333.521354,50.0430076 332.091639,53.3306088 330.845965,56.689366 C329.563401,60.5370605 314.585274,81.0804035 314.585274,81.0804035 C314.585274,81.0804035 314.217233,81.3034582 313.581527,81.7272622 C313.414236,85.4522767 313.771124,93.3595677 319.33634,97.5306916 C323.641297,100.753833 329.942594,102.114467 334.492911,102.683256 L334.492911,102.683256 C334.57098,102.426744 334.637896,102.203689 334.69366,102.04755 C335.340519,100.330029 340.046974,97.7648991 342.612104,97.5864553 C345.177233,97.4080115 353.095677,97.7983573 357.813285,97.3745533 C362.530893,96.9507493 365.08487,90.5267723 365.08487,90.5267723 C365.08487,90.5267723 375.479222,80.377781 380.263746,76.2289625 C379.96715,75.1767219 379.462791,74.1945497 378.780432,73.3404035 L378.780432,73.3404035 Z" id="Path" stroke="#2E353A" stroke-width="1.11527378" fill="#FFFFFF" fill-rule="nonzero" stroke-linecap="round" stroke-linejoin="round"/>
          <polyline id="Path" stroke="#2E353A" stroke-width="0.836455331" stroke-linecap="round" stroke-linejoin="round" points="341.05072 49.4289337 335.128617 46.8080403 339.433573 53.6558213"/>
          <path d="M326.117205,88.3965994 C330.574399,91.1618396 335.847858,92.3079013 341.05072,91.6420461" id="Path" stroke="#2E353A" stroke-width="0.836455331" stroke-linecap="round" stroke-linejoin="round"/>
          <path d="M321.198847,80.6008357 C321.198847,80.6008357 322.169135,84.5042939 328.347752,87.1028818" id="Path" stroke="#2E353A" stroke-width="0.836455331" stroke-linecap="round" stroke-linejoin="round"/>
          <path d="M374.999654,123.583487 C374.999654,123.583487 379.048098,121.84366 382.293545,126.393977" id="Path" stroke="#2E353A" stroke-width="0.836455331" stroke-linecap="round" stroke-linejoin="round"/>
          <polyline id="Path" stroke="#2E353A" stroke-width="0.836455331" stroke-linecap="round" stroke-linejoin="round" points="376.126081 93.2703458 365.08487 90.4598559 374.82121 98.1440922"/>
          <path d="M345.924467,36.8040346 C345.924467,36.8040346 340.403862,46.5403746 333.912968,46.2169452 C325.091153,45.7708357 300.131326,38.4100288 300.131326,35.8225937 C300.131326,33.2351585 306.956801,32.2537176 306.956801,32.2537176" id="Path" stroke="#2E353A" stroke-width="0.836455331" stroke-linecap="round" stroke-linejoin="round"/>
          <path d="M365.08487,44.8786167 C365.08487,44.8786167 360.623775,43.7633429 357.378329,45.7373775 C354.132882,47.7114121 345.61219,66.2807205 345.61219,66.2807205 C345.61219,66.2807205 346.247896,67.1394813 348.824179,67.1394813 C351.400461,67.1394813 352.036167,70.5633718 352.036167,73.7642075 C352.036167,76.9650432 351.813112,78.4706628 352.883775,78.2253026 C353.954438,77.9799424 360.378415,75.6601729 361.66098,76.5189337 C362.943545,77.3776945 359.943458,81.6491931 360.545706,82.0953026 C361.147954,82.5414121 366.534726,77.1657925 368.252248,71.3886744 C369.969769,65.6115562 371.676138,57.0574063 371.241182,53.6335159 C370.806225,50.2096254 368.040346,45.7262248 365.08487,44.8786167 Z" id="Path" stroke="#2E353A" stroke-width="1.11527378" fill="#FF9000" fill-rule="nonzero" stroke-linecap="round" stroke-linejoin="round"/>
          <path d="M368.720663,62.644928 C366.36428,65.2738155 363.866063,67.7720324 361.237176,70.128415 C356.307666,74.5895101 352.248069,77.8349568 352.459971,75.7047839 C352.671873,73.574611 357.590231,62.0092219 358.872795,55.6298559 C360.15536,49.2504899 362.519741,44.9232277 365.08487,44.9232277 C367.65,44.9232277 373.215216,57.9942363 368.720663,62.644928 Z" id="Path" stroke="#2E353A" stroke-width="1.11527378" fill="#FFFFFF" fill-rule="nonzero" stroke-linecap="round" stroke-linejoin="round"/>
          <path d="M366.155533,35.041902 C366.50148,36.0955424 367.28044,36.9515873 368.296859,37.3951297 C369.791326,37.8189337 380.921758,31.4061095 380.921758,31.4061095 C380.921758,31.4061095 388.840202,48.3025072 387.546484,50.8676369 C386.252767,53.4327666 382.416225,56.6559078 378.133573,59.6448415 C373.850922,62.6337752 365.943631,64.9981556 362.943545,63.280634 C359.943458,61.5631124 362.084784,44.0310086 362.084784,44.0310086 C362.084784,44.0310086 359.731556,41.2428242 362.296686,36.7482709 C364.861816,32.2537176 366.155533,35.041902 366.155533,35.041902 Z" id="Path" stroke="#2E353A" stroke-width="1.11527378" fill="#FFFFFF" fill-rule="nonzero" stroke-linecap="round" stroke-linejoin="round"/>
          <path d="M384.077983,52.4959366 C384.077983,52.4959366 384.267579,51.1687608 381.791671,51.1687608 C379.315764,51.1687608 374.966196,55.7190778 374.966196,55.7190778" id="Path" stroke="#2E353A" stroke-width="0.836455331" stroke-linecap="round" stroke-linejoin="round"/>
          <line x1="373.259827" y1="56.0982709" x2="371.932651" y2="54.7710951" id="Path" stroke="#2E353A" stroke-width="0.836455331" stroke-linecap="round" stroke-linejoin="round"/>
          <path d="M371.386167,58.5741787 C371.386167,58.5741787 367.973429,58.005389 367.40464,53.6335159" id="Path" stroke="#2E353A" stroke-width="0.836455331" stroke-linecap="round" stroke-linejoin="round"/>
          <path d="M379.282305,45.6035447 C379.282305,45.6035447 378.434697,41.4435735 374.82121,40.6405764" id="Path" stroke="#2E353A" stroke-width="0.836455331" stroke-linecap="round" stroke-linejoin="round"/>
          <path d="M374.988501,47.8340922 C374.118588,48.5144092 373.159452,48.737464 372.836023,48.3248127 C372.512594,47.9121614 372.94755,47.0310951 373.806311,46.3507781 C374.665072,45.6704611 375.63536,45.4474063 375.95879,45.8600576 C376.282219,46.2727089 375.847262,47.1537752 374.988501,47.8340922 Z" id="Path" fill="#2E353A" fill-rule="nonzero"/>
          <path d="M380.364121,54.860317 C379.650346,55.4179539 378.858501,55.6075504 378.590836,55.2618156 C378.32317,54.9160807 378.680058,54.1465418 379.393833,53.6223631 C380.107608,53.0981844 380.899452,52.8862824 381.167118,53.2208646 C381.434784,53.5554467 381.077896,54.2915274 380.364121,54.860317 Z" id="Path" fill="#2E353A" fill-rule="nonzero"/>
          <path d="M359.54196,236.962219 L370.482795,252.163401 C370.482795,252.163401 370.482795,254.951585 366.579337,254.951585 C362.675879,254.951585 360.445331,254.951585 358.214784,252.163401 C355.984236,249.375216 355.984236,247.702305 353.753689,246.587032 C351.523141,245.471758 349.292594,245.471758 350.407867,239.337752 C351.523141,233.203746 359.54196,236.962219 359.54196,236.962219 Z" id="Path" stroke="#2E353A" stroke-width="1.11527378" fill="#FFFFFF" fill-rule="nonzero" stroke-linecap="round" stroke-linejoin="round"/>
          <path d="M370.438184,252.509135 C368.705458,253.34128 366.761297,253.629016 364.861816,253.334438 C360.913746,252.620663 358.515908,248.672594 357.054899,246.977378 C355.59389,245.282161 353.809452,245.293314 352.125389,243.876916 C351.324085,243.192374 350.625456,242.396087 350.05098,241.512536 C349.816772,245.482911 351.746196,245.616744 353.664467,246.587032 C355.895014,247.702305 355.895014,249.375216 358.125562,252.163401 C360.35611,254.951585 362.586657,254.951585 366.490115,254.951585 C369.624035,254.951585 370.270893,253.256369 370.438184,252.509135 Z" id="Path" stroke="#2E353A" stroke-width="1.11527378" fill="#FFFFFF" fill-rule="nonzero" stroke-linecap="round" stroke-linejoin="round"/>
          <path d="M358.917406,235.032795 C356.686859,228.341153 353.508329,188.280519 351.857723,175.599856 C348.511902,149.814726 333.63415,116.34536 333.63415,116.34536 L334.492911,102.649798 C329.942594,102.081009 323.641297,100.720375 319.33634,97.4972334 C313.759971,93.3261095 313.414236,85.4188184 313.581527,81.693804 C310.759885,83.5117003 302.42879,88.9876945 295.324496,94.7425072 C286.558444,101.80219 280.558271,126.840086 278.851902,134.747378 C277.145533,142.654669 275.21611,165.975043 275.21611,165.975043 C275.21611,165.975043 259.803026,171.964063 253.602104,180.473602 C247.401182,188.983141 228.564207,208.28853 228.564207,208.28853 L230.281729,214.712507 C230.281729,214.712507 236.058847,210.652911 240.977205,206.794063 C245.895562,202.935216 284.205216,181.544265 286.770346,180.027493 C289.335476,178.51072 292.346715,175.566398 295.759452,166.97879 C297.008559,163.84487 298.770692,158.714611 300.510519,153.461671 L306.454928,134.948127 L312.176282,130.07438 C317.819568,145.331326 330.935187,174.741095 332.797695,178.945677 C335.028242,183.986715 336.723458,206.403718 342.890922,220.422709 C349.058386,234.4417 350.697839,241.166801 350.697839,241.166801 C350.697839,241.166801 361.159107,241.757896 358.917406,235.032795 Z" id="Path" stroke="#2E353A" stroke-width="1.11527378" fill="#2E353A" fill-rule="nonzero" stroke-linecap="round" stroke-linejoin="round"/>
          <line x1="334.12487" y1="105.292997" x2="336.255043" y2="117.7283" id="Path" stroke="#FFFFFF" stroke-width="0.557636888"/>
          <path d="M32.5436888,9.2456196 L0.334582133,282.822277 C0.245516469,283.626056 0.621706983,284.410446 1.30426738,284.844156 C1.98682779,285.277867 2.85673191,285.285265 3.54657061,284.863228 L24.2460519,272.126801 C26.7997718,270.544045 30.1483435,271.268993 31.8187608,273.766254 L57.8269452,312.432795 L68.6785591,149.781268 L32.5436888,9.2456196 Z" id="Path" stroke="#2E353A" stroke-width="1.11527378" fill="#A9CEF4" fill-rule="nonzero" stroke-linecap="round" stroke-linejoin="round"/>
          <path d="M32.3429395,16.1268588 L3.23429395,275.985648 C3.10577204,277.131864 3.66878629,278.245267 4.66812543,278.821157 C5.66746458,279.397048 6.91309317,279.325914 7.84037464,278.64 L22.9746398,267.487262 C24.5653611,266.310737 26.5704418,265.841339 28.5181022,266.189512 C30.4657625,266.537685 32.1840325,267.672688 33.2686167,269.327464 L50.9791643,296.3617 C51.3740542,296.979783 52.1395906,297.248843 52.8343481,297.013735 C53.5291055,296.778627 53.9739335,296.099975 53.9123343,295.369107 L33.2351585,16.1380115 C33.1908844,15.9287184 33.0074197,15.7753843 32.7935117,15.7753843 C32.5796037,15.7753843 32.3924312,15.9187378 32.3429395,16.1268588 Z" id="Path" stroke="#2E353A" stroke-width="1.11527378" fill="#A9CEF4" fill-rule="nonzero" stroke-linecap="round" stroke-linejoin="round"/>
          <path d="M32.744438,12.3572334 L3.21198847,275.963343 C3.08346657,277.109559 3.64648082,278.222961 4.64581996,278.798852 C5.6451591,279.374742 6.8907877,279.303608 7.81806916,278.617695 L22.9523343,267.464957 C24.5430557,266.288432 26.5481364,265.819033 28.4957967,266.167206 C30.4434571,266.51538 32.161727,267.650383 33.2463112,269.305159 L50.9568588,296.339395 C51.3517487,296.957477 52.1172851,297.226537 52.8120426,296.991429 C53.5068,296.756321 53.9516281,296.07767 53.8900288,295.346801 L32.9563401,12.3572334 C32.9412968,12.3114654 32.8985659,12.2805305 32.850389,12.2805305 C32.8022122,12.2805305 32.7594813,12.3114654 32.744438,12.3572334 Z" id="Path" fill="#000000" fill-rule="nonzero" opacity="0.6"/>
          <path d="M27.3576657,266.037406 C29.7364657,266.078861 31.9409003,267.293806 33.2463112,269.282853 L50.9568588,296.317089 C51.3517487,296.935172 52.1172851,297.204232 52.8120426,296.969124 C53.5068,296.734016 53.9516281,296.055365 53.8900288,295.324496 L51.3583573,261.152507 L26.9784726,265.925879 C27.1080536,265.951223 27.2349976,265.988559 27.3576657,266.037406 L27.3576657,266.037406 Z" id="Path" stroke="#2E353A" stroke-width="1.11527378" fill="#A9CEF4" fill-rule="nonzero" stroke-linecap="round" stroke-linejoin="round"/>
          <path d="M27.3576657,266.037406 C29.7364657,266.078861 31.9409003,267.293806 33.2463112,269.282853 L50.9568588,296.317089 C51.3517487,296.935172 52.1172851,297.204232 52.8120426,296.969124 C53.5068,296.734016 53.9516281,296.055365 53.8900288,295.324496 L51.3583573,261.152507 L26.9784726,265.925879 C27.1080536,265.951223 27.2349976,265.988559 27.3576657,266.037406 L27.3576657,266.037406 Z" id="Path" fill="#000000" fill-rule="nonzero" opacity="0.3"/>
          <polygon id="Path" stroke="#2E353A" stroke-width="1.11527378" fill="#2E353A" fill-rule="nonzero" stroke-linecap="round" stroke-linejoin="round" points="33.2017003 9.07832853 57.8157925 312.432795 344.831499 257.739769 277.379741 21.1567435"/>
          <polygon id="Path" stroke="#2E353A" stroke-width="1.11527378" fill="#A9CEF4" fill-rule="nonzero" stroke-linecap="round" stroke-linejoin="round" points="46.5069164 15.6249856 63.4144669 296.395159 333.31072 247.323112 276.420605 29.1867147"/>
          <polygon id="Path" stroke="#2E353A" stroke-width="1.11527378" fill="#FFFFFF" fill-rule="nonzero" stroke-linecap="round" stroke-linejoin="round" points="63.0018156 153.796254 75.8386167 286.881873 321.065014 242.293228 298.279971 142.264323"/>
          <line x1="110.334035" y1="280.257147" x2="106.263285" y2="237.508703" id="Path" stroke="#2E353A" stroke-width="1.11527378" fill="#FFFFFF" fill-rule="nonzero" stroke-linecap="round" stroke-linejoin="round"/>
          <line x1="147.862997" y1="273.643573" x2="143.937233" y2="238.010576" id="Path" stroke="#2E353A" stroke-width="1.11527378" fill="#FFFFFF" fill-rule="nonzero" stroke-linecap="round" stroke-linejoin="round"/>
          <line x1="184.655879" y1="266.516974" x2="180.072104" y2="238.010576" id="Path" stroke="#2E353A" stroke-width="1.11527378" fill="#FFFFFF" fill-rule="nonzero" stroke-linecap="round" stroke-linejoin="round"/>
          <line x1="222.564035" y1="260.014928" x2="217.110346" y2="226.032536" id="Path" stroke="#2E353A" stroke-width="1.11527378" fill="#FFFFFF" fill-rule="nonzero" stroke-linecap="round" stroke-linejoin="round"/>
          <line x1="255.955331" y1="253.99245" x2="251.30464" y2="220.824207" id="Path" stroke="#2E353A" stroke-width="1.11527378" fill="#FFFFFF" fill-rule="nonzero" stroke-linecap="round" stroke-linejoin="round"/>
          <line x1="287.974841" y1="248.070346" x2="281.048991" y2="208.188156" id="Path" stroke="#2E353A" stroke-width="1.11527378" fill="#FFFFFF" fill-rule="nonzero" stroke-linecap="round" stroke-linejoin="round"/>
          <path d="M363.222363,158.91536 C363.222363,158.91536 359.809625,162.350403 359.586571,164.134841 C359.363516,165.91928 361.147954,171.294899 361.147954,171.294899 L366.523573,172.187118 L368.887954,162.841124 L363.222363,158.91536 Z" id="Path" stroke="#2E353A" stroke-width="1.11527378" fill="#FFFFFF" fill-rule="nonzero" stroke-linecap="round" stroke-linejoin="round"/>
          <path d="M47.8675504,93.1922767 C47.8675504,93.1922767 53.5331412,174.729942 58.7414697,204.463141 C63.9497983,234.19634 73.6080692,278.695764 73.6080692,278.695764 C73.6080692,278.695764 240.899135,252.799107 323.429395,217.846427 L316.737752,185.88268 L47.8675504,93.1922767 Z" id="Path" fill="#A9CEF4" fill-rule="nonzero" opacity="0.49" style="mix-blend-mode:multiply"/>
          <path d="M40.3059942,12.5691354 L275.26072,25.2274928 C275.26072,25.2274928 298.134986,93.7610663 320.897723,132.461066 C343.660461,171.161066 381.200576,168.640548 381.200576,168.640548 C381.200576,168.640548 295.101441,215.716254 228.040029,240.776455 C158.246196,266.840403 97.7202882,271.524553 97.7202882,271.524553 C97.7202882,271.524553 42.5923055,196.221268 40.3059942,12.5691354 Z" id="Path" stroke="#2E353A" stroke-width="1.11527378" fill="#A9CEF4" fill-rule="nonzero" stroke-linecap="round" stroke-linejoin="round"/>
          <path d="M67.2063977,0.368040346 C62.8456772,0.368040346 59.6894524,4.23804035 58.6968588,10.3051297 L63.1579539,10.5504899 C63.8494236,7.04853026 65.2212104,4.82913545 67.195245,4.82913545 C69.4927089,4.82913545 72.0466859,8.52069164 72.0466859,13.8293948 C72.0466859,19.138098 69.4927089,22.8408069 67.195245,22.8408069 C65.9633476,22.8408069 64.9646974,23.8394571 64.9646974,25.0713545 C64.9646974,26.3032519 65.9633476,27.301902 67.195245,27.301902 C72.4147262,27.301902 76.507781,21.3797983 76.507781,13.8293948 C76.507781,6.27899135 72.425879,0.368040346 67.2063977,0.368040346 Z" id="Path" stroke="#2E353A" stroke-width="1.11527378" fill="#FFFFFF" fill-rule="nonzero"/>
          <path d="M73.6080692,17.4428818 C73.3944583,18.229418 73.1184832,18.9976729 72.7827666,19.7403458" id="Path" stroke="#2E353A" stroke-width="0.836455331" stroke-linecap="round" stroke-linejoin="round"/>
          <path d="M60.9051009,8.29763689 C60.9051009,8.29763689 62.5780115,2.25285303 67.5186744,2.58743516 C71.3998271,2.85510086 74.6006628,8.62106628 74.0653314,14.7885303" id="Path" stroke="#2E353A" stroke-width="0.836455331" stroke-linecap="round" stroke-linejoin="round"/>
          <path d="M105.951009,2.31976945 C101.590288,2.31976945 98.4340634,6.18976945 97.4414697,12.2568588 L101.902565,12.502219 C102.594035,9.00025937 103.965821,6.78086455 105.939856,6.78086455 C108.23732,6.78086455 110.791297,10.4724207 110.791297,15.7811239 C110.791297,21.0898271 108.23732,24.792536 105.939856,24.792536 C104.707959,24.792536 103.709308,25.7911862 103.709308,27.0230836 C103.709308,28.254981 104.707959,29.2536311 105.939856,29.2536311 C111.159337,29.2536311 115.252392,23.3315274 115.252392,15.7811239 C115.252392,8.23072046 111.181643,2.31976945 105.951009,2.31976945 Z" id="Path" stroke="#2E353A" stroke-width="1.11527378" fill="#FFFFFF" fill-rule="nonzero"/>
          <path d="M112.363833,19.394611 C112.150222,20.1811471 111.874247,20.949402 111.53853,21.6920749" id="Path" stroke="#2E353A" stroke-width="0.836455331" stroke-linecap="round" stroke-linejoin="round"/>
          <path d="M99.6608646,10.249366 C99.6608646,10.249366 101.333775,4.20458213 106.274438,4.53916427 C110.155591,4.80682997 113.356427,10.5727954 112.821095,16.7402594" id="Path" stroke="#2E353A" stroke-width="0.836455331" stroke-linecap="round" stroke-linejoin="round"/>
          <path d="M144.717925,4.27149856 C140.357205,4.27149856 137.20098,8.14149856 136.208386,14.2085879 L140.669481,14.4539481 C141.360951,10.9519885 142.732738,8.73259366 144.706772,8.73259366 C147.004236,8.73259366 149.558213,12.4241499 149.558213,17.732853 C149.558213,23.0415562 147.004236,26.7442651 144.706772,26.7442651 C143.474875,26.7442651 142.476225,27.7429153 142.476225,28.9748127 C142.476225,30.2067101 143.474875,31.2053602 144.706772,31.2053602 C149.926254,31.2053602 154.019308,25.2832565 154.019308,17.732853 C154.019308,10.1824496 149.937406,4.27149856 144.717925,4.27149856 Z" id="Path" stroke="#2E353A" stroke-width="1.11527378" fill="#FFFFFF" fill-rule="nonzero"/>
          <path d="M151.119597,21.3463401 C150.905986,22.1328762 150.630011,22.9011312 150.294294,23.643804" id="Path" stroke="#2E353A" stroke-width="0.836455331" stroke-linecap="round" stroke-linejoin="round"/>
          <path d="M138.416628,12.2010951 C138.416628,12.2010951 140.089539,6.15631124 145.030202,6.49089337 C148.911354,6.75855908 152.11219,12.5245245 151.576859,18.6919885" id="Path" stroke="#2E353A" stroke-width="0.836455331" stroke-linecap="round" stroke-linejoin="round"/>
          <path d="M183.473689,6.22322767 C179.112968,6.22322767 175.956744,10.0932277 174.96415,16.160317 L179.425245,16.4056772 C180.116715,12.9037176 181.488501,10.6843228 183.462536,10.6843228 C185.76,10.6843228 188.313977,14.375879 188.313977,19.6845821 C188.313977,24.9932853 185.76,28.6959942 183.462536,28.6959942 C182.230639,28.6959942 181.231988,29.6946444 181.231988,30.9265418 C181.231988,32.1584392 182.230639,33.1570893 183.462536,33.1570893 C188.682017,33.1570893 192.775072,27.2349856 192.775072,19.6845821 C192.775072,12.1341787 188.69317,6.22322767 183.473689,6.22322767 Z" id="Path" stroke="#2E353A" stroke-width="1.11527378" fill="#FFFFFF" fill-rule="nonzero"/>
          <path d="M189.87536,23.2980692 C189.661749,24.0846053 189.385774,24.8528603 189.050058,25.5955331" id="Path" stroke="#2E353A" stroke-width="0.836455331" stroke-linecap="round" stroke-linejoin="round"/>
          <path d="M177.172392,14.1528242 C177.172392,14.1528242 178.845303,8.10804035 183.785965,8.44262248 C187.667118,8.71028818 190.867954,14.4762536 190.332622,20.6437176" id="Path" stroke="#2E353A" stroke-width="0.836455331" stroke-linecap="round" stroke-linejoin="round"/>
          <path d="M222.932075,7.95190202 C218.571354,7.95190202 215.41513,11.821902 214.433689,17.9001441 L218.894784,18.1455043 C219.597406,14.6435447 220.969193,12.4129971 222.932075,12.4129971 C225.229539,12.4129971 227.794669,16.1157061 227.794669,21.4244092 C227.794669,26.7331124 225.229539,30.4246686 222.932075,30.4246686 C221.700178,30.4246686 220.701527,31.4233187 220.701527,32.6552161 C220.701527,33.8871135 221.700178,34.8857637 222.932075,34.8857637 C228.162709,34.8857637 232.255764,28.9748127 232.255764,21.4244092 C232.255764,13.8740058 228.162709,7.95190202 222.932075,7.95190202 Z" id="Path" stroke="#2E353A" stroke-width="1.11527378" fill="#FFFFFF" fill-rule="nonzero"/>
          <path d="M229.333746,25.0378963 C229.121897,25.8213707 228.845863,26.5860607 228.508444,27.3242075" id="Path" stroke="#2E353A" stroke-width="0.836455331" stroke-linecap="round" stroke-linejoin="round"/>
          <path d="M216.630778,15.8926513 C216.630778,15.8926513 218.314841,9.8367147 223.244352,10.1712968 C227.136657,10.4389625 230.32634,16.2160807 229.802161,22.3835447" id="Path" stroke="#2E353A" stroke-width="0.836455331" stroke-linecap="round" stroke-linejoin="round"/>
          <path d="M260.840231,10.037464 C256.47951,10.037464 253.323285,13.907464 252.341844,19.9745533 L256.802939,20.2310663 C257.505562,16.7291066 258.877349,14.4985591 260.840231,14.4985591 C263.137695,14.4985591 265.702824,18.201268 265.702824,23.4988184 C265.702824,28.7963689 263.137695,32.5102305 260.840231,32.5102305 C259.608333,32.5102305 258.609683,33.5088807 258.609683,34.7407781 C258.609683,35.9726755 259.608333,36.9713256 260.840231,36.9713256 C266.070865,36.9713256 270.163919,31.0492219 270.163919,23.4988184 C270.163919,15.948415 266.070865,10.037464 260.840231,10.037464 Z" id="Path" stroke="#2E353A" stroke-width="1.11527378" fill="#FFFFFF" fill-rule="nonzero"/>
          <path d="M267.241902,27.0565418 C267.031878,27.8442026 266.755799,28.6127475 266.416599,29.3540058" id="Path" stroke="#2E353A" stroke-width="0.836455331" stroke-linecap="round" stroke-linejoin="round"/>
          <path d="M254.538934,17.9224496 C254.538934,17.9224496 256.222997,11.866513 261.152507,12.2010951 C265.044813,12.4687608 268.234496,18.2347262 267.710317,24.4021902" id="Path" stroke="#2E353A" stroke-width="0.836455331" stroke-linecap="round" stroke-linejoin="round"/>
          <path d="M368.887954,162.829971 C368.887954,162.829971 371.118501,165.885821 371.118501,167.190692 C371.118501,168.495562 368.062651,170.681499 368.062651,173.726196 C368.062651,176.770893 364.136888,175.956744 363.701931,173.726196 C363.266974,171.495648 364.571844,168.495562 364.571844,168.495562 C364.571844,168.495562 362.753948,167.380288 362.341297,163.454524 C361.928646,159.528761 365.464063,160.644035 365.464063,160.644035 L368.887954,162.829971 Z" id="Path" stroke="#2E353A" stroke-width="1.11527378" fill="#FFFFFF" fill-rule="nonzero" stroke-linecap="round" stroke-linejoin="round"/>
          <path d="M313.124265,132.63951 C296.963948,105.159164 279.989481,61.7638617 273.95585,45.7931412 L63.9829711,37.2836023 C63.8494236,192.473948 110.824755,256.591037 110.824755,256.591037 C110.824755,256.591037 164.302133,252.453372 225.976772,229.411816 C285.242421,207.273631 355.928473,170.112709 355.928473,170.112709 C355.928473,170.112709 333.232651,166.844957 313.124265,132.63951 Z" id="Path" stroke="#2E353A" stroke-width="1.11527378" fill="#FFFFFF" fill-rule="nonzero" stroke-linecap="round" stroke-linejoin="round"/>
          <path d="M273.95585,45.7931412 L63.9832565,37.2836023 C63.9832565,52.5517003 64.4182133,66.9164265 65.2212104,80.4446974 L286.959942,78.3702882 C281.216282,64.685879 276.587896,52.6966859 273.95585,45.7931412 Z" id="Path" stroke="#2E353A" stroke-width="1.11527378" fill="#2E353A" fill-rule="nonzero" stroke-linecap="round" stroke-linejoin="round"/>
          <line x1="277.669712" y1="92.0546974" x2="287.595648" y2="91.7089625" id="Path" stroke="#2E353A" stroke-width="3.34582133" stroke-linecap="round" stroke-linejoin="round"/>
          <line x1="248.49415" y1="93.0472911" x2="270.230836" y2="92.3000576" id="Path" stroke="#2E353A" stroke-width="3.34582133" stroke-linecap="round" stroke-linejoin="round"/>
          <line x1="213.173429" y1="94.240634" x2="241.111037" y2="93.2926513" id="Path" stroke="#2E353A" stroke-width="3.34582133" stroke-linecap="round" stroke-linejoin="round"/>
          <line x1="177.239308" y1="95.4562824" x2="207.005965" y2="94.452536" id="Path" stroke="#2E353A" stroke-width="3.34582133" stroke-linecap="round" stroke-linejoin="round"/>
          <line x1="142.49853" y1="96.6384726" x2="169.78928" y2="95.7127954" id="Path" stroke="#2E353A" stroke-width="3.34582133" stroke-linecap="round" stroke-linejoin="round"/>
          <line x1="105.895245" y1="97.8875793" x2="133.2083" y2="96.9507493" id="Path" stroke="#2E353A" stroke-width="3.34582133" stroke-linecap="round" stroke-linejoin="round"/>
          <line x1="73.6749856" y1="98.9805476" x2="99.0920749" y2="98.110634" id="Path" stroke="#2E353A" stroke-width="3.34582133" stroke-linecap="round" stroke-linejoin="round"/>
          <line x1="69.5373199" y1="122.90317" x2="300.543977" y2="108.828415" id="Path" stroke="#2E353A" stroke-width="1.11527378" stroke-linecap="round" stroke-linejoin="round"/>
          <path d="M106.040231,120.917983 C106.040231,120.917983 109.832161,182.347262 150.327752,250.535101" id="Path" stroke="#2E353A" stroke-width="1.11527378" stroke-linecap="round" stroke-linejoin="round"/>
          <path d="M143.31268,118.453228 C143.31268,118.453228 147.584179,188.715476 191.983228,240.163055" id="Path" stroke="#2E353A" stroke-width="1.11527378" stroke-linecap="round" stroke-linejoin="round"/>
          <path d="M177.060865,116.378818 C177.060865,116.378818 179.291412,181.064697 229.199914,227.549308" id="Path" stroke="#2E353A" stroke-width="1.11527378" stroke-linecap="round" stroke-linejoin="round"/>
          <path d="M212.047003,114.873199 C212.047003,114.873199 217.556455,186.786052 265.858963,212.113919" id="Path" stroke="#2E353A" stroke-width="1.11527378" stroke-linecap="round" stroke-linejoin="round"/>
          <path d="M248.706052,111.98464 C248.706052,111.98464 252.587205,166.376542 301.993833,196.165504" id="Path" stroke="#2E353A" stroke-width="1.11527378" stroke-linecap="round" stroke-linejoin="round"/>
          <path d="M277.569337,110.222507 C277.569337,110.222507 290.863401,165.986196 328.057781,184.042478" id="Path" stroke="#2E353A" stroke-width="1.11527378" stroke-linecap="round" stroke-linejoin="round"/>
          <line x1="74.6006628" y1="154.588098" x2="310.547983" y2="128.635677" id="Path" stroke="#2E353A" stroke-width="1.11527378" stroke-linecap="round" stroke-linejoin="round"/>
          <path d="M80.7569741,182.347262 C80.7569741,182.347262 131.13389,180.373228 321.522277,145.286715" id="Path" stroke="#2E353A" stroke-width="1.11527378" stroke-linecap="round" stroke-linejoin="round"/>
          <path d="M89.6457061,211.734726 C89.6457061,211.734726 138.717752,217.311095 330.968646,156.093718" id="Path" stroke="#2E353A" stroke-width="1.11527378" stroke-linecap="round" stroke-linejoin="round"/>
          <path d="M100.263112,237.37487 C100.263112,237.37487 141.171354,250.925447 342.121383,164.882075" id="Path" stroke="#2E353A" stroke-width="1.11527378" stroke-linecap="round" stroke-linejoin="round"/>
          <path d="M154.67732,67.6413545 L79.0394524,66.6264553 C77.7721605,66.6075187 76.7141552,65.6543608 76.5635447,64.3959078 L75.9166859,58.2842075 C75.8399365,57.5727288 76.0719786,56.8624959 76.5539841,56.3335695 C77.0359896,55.8046431 77.7216755,55.5078116 78.4372046,55.5183285 L153.160548,56.8120461 C154.295588,56.8319421 155.277268,57.6081547 155.558386,58.7080115 L157.075159,64.5185879 C157.267433,65.2631533 157.106091,66.0547812 156.637755,66.6647066 C156.16942,67.2746321 155.446284,67.6348832 154.67732,67.6413545 Z" id="Path" fill="#FFFFFF" fill-rule="nonzero"/>
        </g>
      </g>
    </g>
  </g>
</svg>
