<svg width="416" height="361" xmlns="http://www.w3.org/2000/svg"><g fill="none" fill-rule="evenodd"><g fill-rule="nonzero"><path d="M55.17 279.29s40.41 51.17 109.47 53.25c69.06 2.08 130.82-41 181.77-74.52 50.95-33.52 67.67-89.68 42.23-136-25.44-46.32-71.6-30.45-127-63C206.24 26.47 196.31 9.4 132 12.32 67.69 15.24 14.54 83.92 16.88 160.86c2.34 76.94 38.29 118.43 38.29 118.43z" fill="#A9CEF4"/><path d="M55.17 279.29s40.41 51.17 109.47 53.25c69.06 2.08 130.82-41 181.77-74.52 50.95-33.52 67.67-89.68 42.23-136-25.44-46.32-71.6-30.45-127-63C206.24 26.47 196.31 9.4 132 12.32 67.69 15.24 14.54 83.92 16.88 160.86c2.34 76.94 38.29 118.43 38.29 118.43z" fill="#FFF" opacity=".7"/></g><path d="M67.73 26.08c-.06 0 .7-3.73.77-4 .86-2.67 4.1-7.31 7.23-7.3A3.71 3.71 0 0179.3 19c-.23 2.2-2.21 4.08-4 5.16-2.1 1.31-7.57 1.92-7.57 1.92z" fill="#A9CEF4" fill-rule="nonzero"/><path d="M61.66 1c3 1.06 4.42 6.52 4.32 9.32 0 .24-.56 4-.61 4h-.06c.23.86.48 1.79.73 2.81.44 1.88.92 4 1.29 6.36.429 2.528.71 5.08.84 7.64a48.28 48.28 0 01-.29 8.6.36.36 0 000 .1c.39-.83 1.55-3.13 1.65-3.29 1.54-2.34 5.88-6 8.91-5.13a3.7 3.7 0 012.32 5c-.8 2.06-3.2 3.35-5.21 3.92-2.27.65-7.33-.11-7.73-.18a65.43 65.43 0 01-1.86 8.57c-.467 1.64-.973 3.277-1.52 4.91.35-.71.68-1.34.73-1.42 1.54-2.35 5.89-6 8.91-5.13a3.7 3.7 0 012.32 5c-.8 2.06-3.2 3.35-5.21 3.92-2.01.57-6.37 0-7.51-.15l-.63 1.88c-1 3-2.09 6-3 8.94-.33 1-.62 2.08-.91 3.12.32-.63.59-1.16.64-1.24 1.53-2.34 5.88-6 8.9-5.13a3.72 3.72 0 012.33 5c-.8 2.07-3.21 3.35-5.22 3.93-2.01.58-5.94.07-7.3-.12a66.29 66.29 0 00-.74 3.19c-.13.73-.3 1.41-.39 2.14l-.3 2.15c-.14 1.37-.3 2.78-.4 4.12-.08.93-.14 1.82-.2 2.72.32-1 1-3.07 1-3.23a14.42 14.42 0 014.8-5.46 3.63 3.63 0 01.41-.72 3.7 3.7 0 015.45-.85c2.38 2.05 1.78 7.67.69 10.25-.06.15-.95 1.72-1.52 2.71.43-.53.83-1.05 1.28-1.58.87-1.07 1.77-2.11 2.73-3.23l1.47-1.59c.48-.54 1.06-1 1.59-1.59 1.25-1.21 2.58-2.38 3.95-3.53-.93-.76-4.21-3.52-5.15-5.4-.94-1.88-1.61-4.51-.63-6.5a3.72 3.72 0 015.27-1.67c2.65 1.67 2.92 7.32 2.23 10 0 .17-.76 2.06-1.17 3.09.83-.68 1.65-1.36 2.51-2 2.48-1.91 5.05-3.78 7.6-5.65l2.33-1.72c-.33-.27-4.29-3.47-5.35-5.58-.93-1.87-1.61-4.51-.63-6.49a3.71 3.71 0 015.27-1.67c2.66 1.66 2.92 7.31 2.23 10-.05.2-1.08 2.92-1.37 3.6 1.7-1.27 3.39-2.55 5-3.89a64.65 64.65 0 006.2-5.77c-.15-.13-4.3-3.45-5.38-5.6-.94-1.87-1.61-4.52-.63-6.5a3.71 3.71 0 015.26-1.67c2.66 1.67 2.93 7.32 2.24 10 0 .18-.83 2.25-1.22 3.23l.15.1a48.44 48.44 0 005.09-6.84c.84-1.33 1.56-2.64 2.24-3.93-.84-.54-4.63-3.05-5.82-4.88-1.19-1.83-2.09-4.31-1.34-6.39a3.71 3.71 0 015.05-2.24c2.83 1.37 3.71 7 3.32 9.73 0 .15-.4 1.66-.69 2.75.29-.59.61-1.19.88-1.76 1-2.13 1.85-4.15 2.55-6 .4-1 .73-1.95 1-2.83-.55-1-2.69-4.84-2.9-7-.21-2.16.13-4.78 1.76-6.28a3.71 3.71 0 015.51.34c1.88 2.51.09 7.88-1.53 10.16-.14.2-2.69 3-2.72 3v-.06c-.28.85-.58 1.76-.94 2.74-.66 1.82-1.43 3.86-2.42 6a67.81 67.81 0 01-3.53 6.83 48.53 48.53 0 01-5 7l-.07.08c.78-.48 3-1.76 3.19-1.84 2.58-1.1 8.2-1.72 10.26.64a3.71 3.71 0 01-.82 5.46c-1.81 1.28-4.52 1-6.52.4-2.25-.72-6-4.14-6.34-4.42A65 65 0 0197 64.42c-1.29 1.11-2.63 2.19-4 3.26.69-.4 1.31-.75 1.4-.79 2.57-1.1 8.19-1.72 10.25.64a3.7 3.7 0 01-.82 5.46c-1.8 1.28-4.52 1-6.51.4-1.99-.6-5.32-3.5-6.18-4.27-.53.4-1 .81-1.57 1.22-2.51 1.92-5 3.83-7.45 5.79-.85.68-1.66 1.39-2.48 2.1l1.22-.68c2.57-1.1 8.19-1.73 10.25.63a3.72 3.72 0 01-.82 5.47c-1.8 1.28-4.52 1-6.51.39-1.99-.61-5-3.22-6-4.13-.81.75-1.63 1.5-2.38 2.26-.51.53-1 1-1.5 1.57l-1.44 1.62c-.87 1.07-1.78 2.16-2.61 3.22-.58.73-1.12 1.44-1.66 2.16.83-.7 2.51-2 2.66-2.12 2.37-1.48 7.84-3 10.23-.92a3.71 3.71 0 010 5.52c-1.6 1.54-4.32 1.7-6.38 1.38-2.28-.36-6.4-3-6.91-3.38-.9 1.19-1.76 2.34-2.56 3.45-2.77 3.83-4.93 7.13-6.41 9.45l-.15.24-1.92-.93.3-.46a193.635 193.635 0 019.62-13.17 40.65 40.65 0 01-3-3.69c-2.21.87-6.79.9-7.39.9-.09 1.48-.17 2.93-.23 4.29-.2 4.72-.18 8.66-.13 11.42v.32l-2.11-1c0-2.74.11-6.44.39-10.82.09-1.5.22-3.11.37-4.76-.59-.15-5.36-1.37-7.16-2.81-1.63-1.31-3.35-3.42-3.29-5.64a3.71 3.71 0 014.08-3.72c3.11.4 5.72 5.42 6.23 8.17 0 .17.16 2 .22 3.1.07-.67.12-1.33.2-2 .13-1.37.31-2.73.5-4.2.11-.71.23-1.42.34-2.14.11-.72.3-1.46.45-2.2.38-1.7.84-3.41 1.35-5.12-1.2-.12-5.45-.62-7.27-1.67-1.82-1.05-3.84-2.87-4.11-5.07a3.71 3.71 0 013.47-4.3c3.13-.07 6.47 4.49 7.39 7.14.06.16.51 2.13.74 3.22.31-1 .61-2.05 1-3.08 1-3 2.13-5.93 3.23-8.9.34-.91.66-1.82 1-2.73-.43 0-5.5-.53-7.54-1.7-1.81-1-3.83-2.87-4.11-5.07a3.72 3.72 0 013.47-4.3c3.14-.07 6.48 4.49 7.4 7.14.07.2.71 3 .84 3.76.72-2 1.43-4 2-6a64.85 64.85 0 002-8.24c-.2 0-5.49-.5-7.58-1.7-1.82-1-3.84-2.87-4.11-5.07a3.7 3.7 0 013.47-4.29c3.13-.08 6.47 4.48 7.39 7.13.06.17.56 2.33.77 3.37h.17a47.81 47.81 0 00.48-8.51c0-1.57-.15-3.06-.3-4.51-1 0-5.54 0-7.54-.87s-4.13-2.43-4.65-4.58a3.71 3.71 0 013-4.65c3.11-.43 6.93 3.75 8.14 6.27.06.14.58 1.61.93 2.69-.07-.66-.14-1.34-.23-2-.31-2.35-.75-4.48-1.15-6.37-.24-1.07-.47-2-.7-2.93-1-.5-4.92-2.56-6.26-4.22-1.34-1.66-2.54-4.07-2-6.21A3.71 3.71 0 0161.66 1z" fill="#A9CEF4" fill-rule="nonzero"/><path d="M118.34 49.29c-2.45-.1-7.35-2.61-7.35-2.61s2.63-2.73 2.82-2.88c2.19-1.74 7.45-3.83 10.06-2.09a3.7 3.7 0 01.65 5.48c-1.4 1.71-4.09 2.19-6.18 2.1z" fill="#A9CEF4" fill-rule="nonzero"/><g opacity=".5" fill-rule="nonzero"><path d="M67.73 26.08c-.06 0 .7-3.73.77-4 .86-2.67 4.1-7.31 7.23-7.3A3.71 3.71 0 0179.3 19c-.23 2.2-2.21 4.08-4 5.16-2.1 1.31-7.57 1.92-7.57 1.92z" fill="#91C8E2"/><path d="M61.66 1c3 1.06 4.42 6.52 4.32 9.32 0 .24-.56 4-.61 4h-.06c.23.86.48 1.79.73 2.81.44 1.88.92 4 1.29 6.36.429 2.528.71 5.08.84 7.64a48.28 48.28 0 01-.29 8.6.36.36 0 000 .1c.39-.83 1.55-3.13 1.65-3.29 1.54-2.34 5.88-6 8.91-5.13a3.7 3.7 0 012.32 5c-.8 2.06-3.2 3.35-5.21 3.92-2.27.65-7.33-.11-7.73-.18a65.43 65.43 0 01-1.86 8.57c-.467 1.64-.973 3.277-1.52 4.91.35-.71.68-1.34.73-1.42 1.54-2.35 5.89-6 8.91-5.13a3.7 3.7 0 012.32 5c-.8 2.06-3.2 3.35-5.21 3.92-2.01.57-6.37 0-7.51-.15l-.63 1.88c-1 3-2.09 6-3 8.94-.33 1-.62 2.08-.91 3.12.32-.63.59-1.16.64-1.24 1.53-2.34 5.88-6 8.9-5.13a3.72 3.72 0 012.33 5c-.8 2.07-3.21 3.35-5.22 3.93-2.01.58-5.94.07-7.3-.12a66.29 66.29 0 00-.74 3.19c-.13.73-.3 1.41-.39 2.14l-.3 2.15c-.14 1.37-.3 2.78-.4 4.12-.08.93-.14 1.82-.2 2.72.32-1 1-3.07 1-3.23a14.42 14.42 0 014.8-5.46 3.63 3.63 0 01.41-.72 3.7 3.7 0 015.45-.85c2.38 2.05 1.78 7.67.69 10.25-.06.15-.95 1.72-1.52 2.71.43-.53.83-1.05 1.28-1.58.87-1.07 1.77-2.11 2.73-3.23l1.47-1.59c.48-.54 1.06-1 1.59-1.59 1.25-1.21 2.58-2.38 3.95-3.53-.93-.76-4.21-3.52-5.15-5.4-.94-1.88-1.61-4.51-.63-6.5a3.72 3.72 0 015.27-1.67c2.65 1.67 2.92 7.32 2.23 10 0 .17-.76 2.06-1.17 3.09.83-.68 1.65-1.36 2.51-2 2.48-1.91 5.05-3.78 7.6-5.65l2.33-1.72c-.33-.27-4.29-3.47-5.35-5.58-.93-1.87-1.61-4.51-.63-6.49a3.71 3.71 0 015.27-1.67c2.66 1.66 2.92 7.31 2.23 10-.05.2-1.08 2.92-1.37 3.6 1.7-1.27 3.39-2.55 5-3.89a64.65 64.65 0 006.2-5.77c-.15-.13-4.3-3.45-5.38-5.6-.94-1.87-1.61-4.52-.63-6.5a3.71 3.71 0 015.26-1.67c2.66 1.67 2.93 7.32 2.24 10 0 .18-.83 2.25-1.22 3.23l.15.1a48.44 48.44 0 005.09-6.84c.84-1.33 1.56-2.64 2.24-3.93-.84-.54-4.63-3.05-5.82-4.88-1.19-1.83-2.09-4.31-1.34-6.39a3.71 3.71 0 015.05-2.24c2.83 1.37 3.71 7 3.32 9.73 0 .15-.4 1.66-.69 2.75.29-.59.61-1.19.88-1.76 1-2.13 1.85-4.15 2.55-6 .4-1 .73-1.95 1-2.83-.55-1-2.69-4.84-2.9-7-.21-2.16.13-4.78 1.76-6.28a3.71 3.71 0 015.51.34c1.88 2.51.09 7.88-1.53 10.16-.14.2-2.69 3-2.72 3v-.06c-.28.85-.58 1.76-.94 2.74-.66 1.82-1.43 3.86-2.42 6a67.81 67.81 0 01-3.53 6.83 48.53 48.53 0 01-5 7l-.07.08c.78-.48 3-1.76 3.19-1.84 2.58-1.1 8.2-1.72 10.26.64a3.71 3.71 0 01-.82 5.46c-1.81 1.28-4.52 1-6.52.4-2.25-.72-6-4.14-6.34-4.42A65 65 0 0197 64.42c-1.29 1.11-2.63 2.19-4 3.26.69-.4 1.31-.75 1.4-.79 2.57-1.1 8.19-1.72 10.25.64a3.7 3.7 0 01-.82 5.46c-1.8 1.28-4.52 1-6.51.4-1.99-.6-5.32-3.5-6.18-4.27-.53.4-1 .81-1.57 1.22-2.51 1.92-5 3.83-7.45 5.79-.85.68-1.66 1.39-2.48 2.1l1.22-.68c2.57-1.1 8.19-1.73 10.25.63a3.72 3.72 0 01-.82 5.47c-1.8 1.28-4.52 1-6.51.39-1.99-.61-5-3.22-6-4.13-.81.75-1.63 1.5-2.38 2.26-.51.53-1 1-1.5 1.57l-1.44 1.62c-.87 1.07-1.78 2.16-2.61 3.22-.58.73-1.12 1.44-1.66 2.16.83-.7 2.51-2 2.66-2.12 2.37-1.48 7.84-3 10.23-.92a3.71 3.71 0 010 5.52c-1.6 1.54-4.32 1.7-6.38 1.38-2.28-.36-6.4-3-6.91-3.38-.9 1.19-1.76 2.34-2.56 3.45-2.77 3.83-4.93 7.13-6.41 9.45l-.15.24-1.92-.93.3-.46a193.635 193.635 0 019.62-13.17 40.65 40.65 0 01-3-3.69c-2.21.87-6.79.9-7.39.9-.09 1.48-.17 2.93-.23 4.29-.2 4.72-.18 8.66-.13 11.42v.32l-2.11-1c0-2.74.11-6.44.39-10.82.09-1.5.22-3.11.37-4.76-.59-.15-5.36-1.37-7.16-2.81-1.63-1.31-3.35-3.42-3.29-5.64a3.71 3.71 0 014.08-3.72c3.11.4 5.72 5.42 6.23 8.17 0 .17.16 2 .22 3.1.07-.67.12-1.33.2-2 .13-1.37.31-2.73.5-4.2.11-.71.23-1.42.34-2.14.11-.72.3-1.46.45-2.2.38-1.7.84-3.41 1.35-5.12-1.2-.12-5.45-.62-7.27-1.67-1.82-1.05-3.84-2.87-4.11-5.07a3.71 3.71 0 013.47-4.3c3.13-.07 6.47 4.49 7.39 7.14.06.16.51 2.13.74 3.22.31-1 .61-2.05 1-3.08 1-3 2.13-5.93 3.23-8.9.34-.91.66-1.82 1-2.73-.43 0-5.5-.53-7.54-1.7-1.81-1-3.83-2.87-4.11-5.07a3.72 3.72 0 013.47-4.3c3.14-.07 6.48 4.49 7.4 7.14.07.2.71 3 .84 3.76.72-2 1.43-4 2-6a64.85 64.85 0 002-8.24c-.2 0-5.49-.5-7.58-1.7-1.82-1-3.84-2.87-4.11-5.07a3.7 3.7 0 013.47-4.29c3.13-.08 6.47 4.48 7.39 7.13.06.17.56 2.33.77 3.37h.17a47.81 47.81 0 00.48-8.51c0-1.57-.15-3.06-.3-4.51-1 0-5.54 0-7.54-.87s-4.13-2.43-4.65-4.58a3.71 3.71 0 013-4.65c3.11-.43 6.93 3.75 8.14 6.27.06.14.58 1.61.93 2.69-.07-.66-.14-1.34-.23-2-.31-2.35-.75-4.48-1.15-6.37-.24-1.07-.47-2-.7-2.93-1-.5-4.92-2.56-6.26-4.22-1.34-1.66-2.54-4.07-2-6.21A3.71 3.71 0 0161.66 1z" fill="#06A77D" opacity=".3"/><path d="M118.34 49.29c-2.45-.1-7.35-2.61-7.35-2.61s2.63-2.73 2.82-2.88c2.19-1.74 7.45-3.83 10.06-2.09a3.7 3.7 0 01.65 5.48c-1.4 1.71-4.09 2.19-6.18 2.1z" fill="#FFF"/></g><path d="M89.73 110.65S74.86 74.81 66.54 76.37c-8.32 1.56 14.27 57.14 14.27 57.14s-26.16-49.35-44-49.35S43.35 138.7 66 156.88c0 0-35.68-38.44-56.49-30.13C-11.3 135.06 51.08 174 51.08 174S14.81 162.59 19 171.43c4.19 8.84 15.46 10.38 15.46 10.38l9.54 2.08h52l8-3.11s33.3-16.63 24.38-23.38c-8.92-6.75-28.54 7.79-28.54 7.79s33.89-37.4 27.35-51.42c-6.54-14.02-35.68 25.45-35.68 25.45s23.79-50.39 19-59.22c-4.79-8.83-20.78 30.65-20.78 30.65z" fill="#A9CEF4" fill-rule="nonzero"/><path d="M89.73 110.65S74.86 74.81 66.54 76.37c-8.32 1.56 14.27 57.14 14.27 57.14s-26.16-49.35-44-49.35S43.35 138.7 66 156.88c0 0-35.68-38.44-56.49-30.13C-11.3 135.06 51.08 174 51.08 174S14.81 162.59 19 171.43c4.19 8.84 15.46 10.38 15.46 10.38L50 183.89h42l12-3.11s33.3-16.63 24.38-23.38c-8.92-6.75-28.54 7.79-28.54 7.79s33.89-37.4 27.35-51.42c-6.54-14.02-35.68 25.45-35.68 25.45s23.79-50.39 19-59.22c-4.79-8.83-20.78 30.65-20.78 30.65z" fill="#06A77D" fill-rule="nonzero" opacity=".3"/><path d="M94.49 112.54c-13.08 38.65-13.08 66-13.08 66s15.46.6 31.51-11.3M88 133.35a232.21 232.21 0 00-10.71-33.89" stroke="#263238" stroke-linecap="round" stroke-linejoin="round"/><path d="M49.3 110.75l33.29 49.36s22.6-19 30.33-29.73M82 172s-35.08-16.65-49.35-26.16" stroke="#263238" stroke-linecap="round" stroke-linejoin="round"/><g fill-rule="nonzero" stroke="#ABABAB" stroke-linecap="round" stroke-linejoin="round"><path fill="#C2C2C2" d="M180.38 30.63h7.23v301.29h-7.23zM50.32 30.63h7.23v301.29h-7.23zM115.35 30.63h7.23v301.29h-7.23zM245.4 30.63h7.23v301.29h-7.23z"/><path fill="#C2C2C2" d="M47.99 40.02h202.47v13.73H47.99z"/><path fill="#A6A6A6" d="M120.16 40.02h130.3v13.73h-130.3z"/><path fill="#C2C2C2" d="M47.99 178.27h202.47V192H47.99z"/><path fill="#A6A6A6" d="M120.16 178.27h130.3V192h-130.3z"/><path fill="#C2C2C2" d="M47.99 316.51h202.47v13.73H47.99z"/><path fill="#A6A6A6" d="M120.16 316.51h130.3v13.73h-130.3z"/></g><g><path fill="#A9CEF4" fill-rule="nonzero" d="M14.23 242.8h105.96v89.01H14.23z"/><path stroke="#696969" fill="#FFF" fill-rule="nonzero" opacity=".6" stroke-linecap="round" stroke-linejoin="round" d="M14.23 242.8h105.96v89.01H14.23z"/><path stroke="#696969" stroke-linecap="round" stroke-linejoin="round" d="M14.23 242.8h105.96v89.01H14.23z"/><path fill="#A9CEF4" fill-rule="nonzero" d="M84.98 242.8h35.21v89.01H84.98z"/><path stroke="#696969" fill="#FFF" fill-rule="nonzero" opacity=".39" stroke-linecap="round" stroke-linejoin="round" d="M84.98 242.8h35.21v89.01H84.98z"/><path stroke="#696969" stroke-linecap="round" stroke-linejoin="round" d="M84.98 242.8h35.21v89.01H84.98zM102.95 243.04v88.88"/><path fill="#A9CEF4" fill-rule="nonzero" d="M19.58 153.93h105.96v89.01H19.58z"/><path stroke="#696969" fill="#FFF" fill-rule="nonzero" opacity=".6" stroke-linecap="round" stroke-linejoin="round" d="M19.58 153.93h105.96v89.01H19.58z"/><path stroke="#696969" stroke-linecap="round" stroke-linejoin="round" d="M19.58 153.93h105.96v89.01H19.58z"/><path fill="#A9CEF4" fill-rule="nonzero" d="M90.33 153.93h35.21v89.01H90.33z"/><path stroke="#696969" fill="#FFF" fill-rule="nonzero" opacity=".39" stroke-linecap="round" stroke-linejoin="round" d="M90.33 153.93h35.21v89.01H90.33z"/><path stroke="#696969" stroke-linecap="round" stroke-linejoin="round" d="M90.33 153.93h35.21v89.01H90.33zM108.3 154.17v88.88"/><path fill="#A9CEF4" fill-rule="nonzero" d="M295.32 242.8h105.96v89.01H295.32z"/><path stroke="#919191" fill="#FFF" fill-rule="nonzero" opacity=".6" stroke-linecap="round" stroke-linejoin="round" d="M295.32 242.8h105.96v89.01H295.32z"/><path stroke="#919191" stroke-linecap="round" stroke-linejoin="round" d="M295.32 242.8h105.96v89.01H295.32z"/><path fill="#A9CEF4" fill-rule="nonzero" d="M366.07 242.8h35.21v89.01h-35.21z"/><path stroke="#919191" fill="#FFF" fill-rule="nonzero" opacity=".39" stroke-linecap="round" stroke-linejoin="round" d="M366.07 242.8h35.21v89.01h-35.21z"/><path stroke="#919191" stroke-linecap="round" stroke-linejoin="round" d="M366.07 242.8h35.21v89.01h-35.21zM384.04 243.04v88.88"/><path fill="#A9CEF4" fill-rule="nonzero" d="M295.32 153.7h105.96v89.01H295.32z"/><path stroke="#919191" fill="#FFF" fill-rule="nonzero" opacity=".6" stroke-linecap="round" stroke-linejoin="round" d="M295.32 153.7h105.96v89.01H295.32z"/><path stroke="#919191" stroke-linecap="round" stroke-linejoin="round" d="M295.32 153.7h105.96v89.01H295.32z"/><path fill="#A9CEF4" fill-rule="nonzero" d="M366.07 153.7h35.21v89.01h-35.21z"/><path stroke="#919191" fill="#FFF" fill-rule="nonzero" opacity=".39" stroke-linecap="round" stroke-linejoin="round" d="M366.07 153.7h35.21v89.01h-35.21z"/><path stroke="#919191" stroke-linecap="round" stroke-linejoin="round" d="M366.07 153.7h35.21v89.01h-35.21zM384.04 153.94v88.88"/><path fill="#A9CEF4" fill-rule="nonzero" d="M304.32 80h87.65v73.63h-87.65z"/><path stroke="#919191" fill="#FFF" fill-rule="nonzero" opacity=".6" stroke-linecap="round" stroke-linejoin="round" d="M304.32 80h87.65v73.63h-87.65z"/><path stroke="#919191" stroke-linecap="round" stroke-linejoin="round" d="M304.32 80h87.65v73.63h-87.65z"/><path fill="#A9CEF4" fill-rule="nonzero" d="M362.85 80h29.12v73.63h-29.12z"/><path stroke="#919191" fill="#FFF" fill-rule="nonzero" opacity=".39" stroke-linecap="round" stroke-linejoin="round" d="M362.85 80h29.12v73.63h-29.12z"/><path stroke="#919191" stroke-linecap="round" stroke-linejoin="round" d="M362.85 80h29.12v73.63h-29.12zM377.71 80.2v73.52"/></g><g transform="translate(205 185)"><path stroke="#263238" fill="#FFF" fill-rule="nonzero" stroke-linecap="round" stroke-linejoin="round" d="M162.03 113.35h13.73v8.59h-13.73z"/><circle stroke="#263238" fill="#263238" fill-rule="nonzero" stroke-linecap="round" stroke-linejoin="round" cx="46.56" cy="138.62" r="8.3"/><path stroke="#263238" fill="#263238" fill-rule="nonzero" stroke-linecap="round" stroke-linejoin="round" d="M178.24 1.24h4.9v137.57h-4.9z"/><path d="M180.53 49.36l-11.59-9.22a32.91 32.91 0 01-11.43-33.67 8.28 8.28 0 018-6.27h30a8.26 8.26 0 018 6.27 32.9 32.9 0 01-11.42 33.67l-11.56 9.22zm-15-44.47a3.57 3.57 0 00-3.48 2.72 28.18 28.18 0 009.79 28.86l8.67 6.9 8.68-6.9A28.2 28.2 0 00199 7.61a3.58 3.58 0 00-3.48-2.72h-29.99z" fill="#263238" fill-rule="nonzero"/><path fill="#FFF" fill-rule="nonzero" d="M.03 117.65h151.73v17.66H.03z"/><path stroke="#263238" fill="#000" fill-rule="nonzero" opacity=".28" stroke-linecap="round" stroke-linejoin="round" d="M.03 117.65h151.73v17.66H.03z"/><path stroke="#263238" stroke-linecap="round" stroke-linejoin="round" d="M.03 117.65h151.73v17.66H.03z"/><path stroke="#263238" stroke-linecap="round" stroke-linejoin="round" d="M.03 117.65h17v17.66h-17zM134.75 117.65h17v17.66h-17zM67.39 117.65h17v17.66h-17z"/><path stroke="#263238" fill="#FFF" fill-rule="nonzero" stroke-linecap="round" stroke-linejoin="round" d="M151.76 135.31h10.46L175.3 85.6h-10.46zM173.83 106.53h13.73v22.24h-13.73z"/><path d="M177.33 146.92a3 3 0 01-2.95-2.95V132.9a3 3 0 012.95-2.95 3 3 0 012.95 2.95V144a3 3 0 01-2.95 2.92zM184.34 146.92a3 3 0 01-2.95-2.95V132.9a3 3 0 012.95-2.95 3 3 0 013 2.95V144a3 3 0 01-3 2.92z" fill="#263238" fill-rule="nonzero"/></g><g stroke="#263238" stroke-linecap="round" stroke-linejoin="round"><path d="M.82 331.92h413.81"/></g><g transform="translate(71 59)"><ellipse fill="#A9CEF4" fill-rule="nonzero" cx="72.59" cy="293.03" rx="72.24" ry="8.78"/><ellipse fill="#FFF" fill-rule="nonzero" opacity=".5" cx="72.59" cy="293.03" rx="72.24" ry="8.78"/><path d="M222.08 293c0 2.42-16.13 4.38-36 4.38s-36-2-36-4.38 16.12-4.37 36-4.37 36 1.99 36 4.37z" fill="#A9CEF4" fill-rule="nonzero"/><path d="M222.08 293c0 2.42-16.13 4.38-36 4.38s-36-2-36-4.38 16.12-4.37 36-4.37 36 1.99 36 4.37z" fill="#FFF" fill-rule="nonzero" opacity=".5"/><path d="M87 3.79S81.41-.6 75 1.59c-6.41 2.19-11.27 12.87-13 21.55-1.73 8.68-8.38 15.26-6.78 25.44 1.6 10.18 13.17 11.77 27.14 13.27s21.55-.2 28.13-9.38c6.58-9.18 3.79-20.35-.1-30.23-3.89-9.88-10.37-19.05-15.76-20.75C89.24-.21 87 3.79 87 3.79z" stroke="#263238" fill="#263238" fill-rule="nonzero" stroke-linecap="round" stroke-linejoin="round"/><path d="M63.9 56a16.55 16.55 0 002.93 1M85.6 10.9A68.93 68.93 0 0177 25.18c-5.72 7.35-18.37 14.29-19.18 22a7.35 7.35 0 001.77 5.77M108.81 47.77a12.86 12.86 0 01-1.58 2.72M104 28.45s6.43 7.42 5.81 15.34M84.38 6.81a15.77 15.77 0 00-14.11 6.09" stroke="#FFF" stroke-linecap="round" stroke-linejoin="round"/><path d="M47.49 195.3l-1.25 19.24s-5.32 25.81-7 36.45c-1.68 10.64-4.76 26.82-5.32 26.82-.56 0-9.74 5.55-12.68 10.08-2.94 4.53.79 6.45 4.87 5 4.08-1.45 9.62-5.55 11.43-10.42 1.81-4.87 2.71-6.68 2.83-7.47.12-.79 19.47-52.74 21.39-58.29 1.92-5.55 6-21.85 6-21.85l9.51-32.26s10.18 33.17 10.3 34.64c.12 1.47 10.52 86.25 11 89.42.48 3.17.34 5.43 2.26 6.11 1.92.68 6.45.68 8.83.68s10.64 1.25 14.71.23 4.53-1.7 1.7-3.74-18.55-3.34-20-9.28c-.12-.45-.23-87.72-.23-87.72s-1.36-28.86-3.62-37h-52.3l-2.43 39.36z" stroke="#263238" fill="#FFF" fill-rule="nonzero" stroke-linecap="round" stroke-linejoin="round"/><path d="M26.1 292.87c4.07-1.48 9.62-5.55 11.43-10.42l.38-1c-2.31 2.46-6 5.88-6 5.88a7.3 7.3 0 00-1.47-3.17 2.65 2.65 0 00-2.61-.79l4-4.4c-3 1.86-8.4 5.66-10.52 8.93-3.03 4.51.69 6.44 4.79 4.97zM126 289.92c-1.94-1.39-9.91-2.44-15.23-4.87a1.8 1.8 0 00-.5.69 20 20 0 00-.79 2.94l-11-2.35v.31c.45 3.17.34 5.43 2.26 6.11 1.92.68 6.45.68 8.83.68s10.64 1.25 14.71.23 4.59-1.66 1.72-3.74zM62.73 109s-5.19 2.39-11.47 13.67c-6.87 12.31-5.69 19.15-5.79 34-.1 14.85-.4 39.5-.4 39.5s19 5.09 32.63 4.29c13.63-.8 30.92-3.89 30.92-3.89s-3.69-50.28-7.18-64.74c-3.49-14.46-5.59-21-5.59-21a82.83 82.83 0 01-20.35.3C63.93 110 62.73 109 62.73 109z" stroke="#263238" fill="#263238" fill-rule="nonzero" stroke-linecap="round" stroke-linejoin="round"/><path d="M84.59 153.47c.52 1.71 1 3.44 1.42 5.17M72.54 125.17a166.59 166.59 0 0110.34 23.12" stroke="#FFF" stroke-linecap="round" stroke-linejoin="round"/><path d="M190.12 99.44c-.6-.4-10.43-1.94-10.43-1.94l-1.92-.79s11.9.95 12 .45c.1-.5.5-1.1-.3-1.2-.8-.1-16.11-3.21-16.11-3.21s3.89-3.68 4.39-4.48c.5-.8 1.19-2.4.39-2.4-.8 0-1 .5-2.09 1.2-1.09.7-5.39 2.4-6.59 3.39-1.2.99-4.78 3.59-4.78 3.59l-41.58-5.72s-14.6-18-17.77-21.84a41.47 41.47 0 00-7.47-6.8c-3.06-1.35-3 .91-3 .91l6.39 28.4s16.53 9.85 17.55 9.85c1.02 0 45.68 1.48 45.68 1.48s3 1.4 4.88 2.59 13.87 5 13.87 5 .8-.4-.1-1.1c-.9-.7-6.68-3.49-6.68-3.49l12 2.6s.7-.5.4-1c-.3-.5-11-4.59-11-4.59l12 .6s.86-1.1.27-1.5z" stroke="#263238" fill="#FFF" fill-rule="nonzero" stroke-linecap="round" stroke-linejoin="round"/><path d="M120.59 85.24c-4.31-5.31-12.92-15.91-15.26-18.75a41.47 41.47 0 00-7.47-6.8c-3.06-1.35-3 .91-3 .91l6.39 28.4s7.46 4.44 12.66 7.36l6.68-11.12z" stroke="#263238" fill="#FFF" fill-rule="nonzero" stroke-linecap="round" stroke-linejoin="round"/><path d="M76.4 57.26s-8.68.4-14 6.29-4.69 18.85-2.49 26.63c2.2 7.78 5 12.07 4.39 14.77-.61 2.7-2.79 3.59-1.6 6.08s8.08 5.19 20.25 4.79c12.17-.4 14.47-3 14.57-5.28.1-2.28-.8-4.19-.5-5.59.3-1.4 9.08-9.18 9.08-17.76 0-8.58-3.79-11.57-4.69-17.76-.9-6.19-.6-7.08-4.29-9.78-3.69-2.7-15.83-4.09-20.72-2.39z" stroke="#263238" fill="#FFF" fill-rule="nonzero" stroke-linecap="round" stroke-linejoin="round"/><path d="M72.46 87a41.42 41.42 0 01-9.57 6M73.42 88S71.27 94.94 66 98.77" stroke="#263238" stroke-linecap="round" stroke-linejoin="round"/><path stroke="#263238" fill="#FF9000" fill-rule="nonzero" stroke-linecap="round" stroke-linejoin="round" d="M94.96 63.54l1 9.58-4.2-4.89z"/><path stroke="#263238" fill="#FF9000" fill-rule="nonzero" stroke-linecap="round" stroke-linejoin="round" d="M89.37 73.92l5.59-10.38-5.09-5.48z"/><path d="M78.6 40.3a42.56 42.56 0 011.29 10.58 39 39 0 01-.7 6.88l10.18 16.16 2.89-15 1.9-10.38s-11.57-.66-15.56-8.24z" stroke="#263238" fill="#FFF" fill-rule="nonzero" stroke-linecap="round" stroke-linejoin="round"/><path stroke="#263238" fill="#FF9000" fill-rule="nonzero" stroke-linecap="round" stroke-linejoin="round" d="M88.77 65.24l.6 8.68-2.99-4.69z"/><path stroke="#263238" fill="#FF9000" fill-rule="nonzero" stroke-linecap="round" stroke-linejoin="round" d="M75.8 57.36l9.28 16.66 3.69-8.78-9.87-13.57z"/><path fill="#A9CEF4" fill-rule="nonzero" d="M154.17 65.13h84.21v69.1h-84.21z"/><path fill="#000" fill-rule="nonzero" opacity=".2" d="M154.17 65.13h84.21v69.1h-84.21z"/><path stroke="#263238" stroke-linecap="round" stroke-linejoin="round" d="M154.17 65.13h84.21v69.1h-84.21z"/><path stroke="#263238" fill="#A9CEF4" fill-rule="nonzero" stroke-linecap="round" stroke-linejoin="round" d="M136.34 65.13h84.21v69.1h-84.21z"/><path d="M252.25 157.49c-2.7-4.28-13.87-23.26-13.87-23.26h-17.82l9.17 23.26h22.52z" fill="#A9CEF4" fill-rule="nonzero"/><path d="M252.25 157.49c-2.7-4.28-13.87-23.26-13.87-23.26h-17.82l9.17 23.26h22.52z" fill="#000" fill-rule="nonzero" opacity=".2"/><path d="M252.25 157.49c-2.7-4.28-13.87-23.26-13.87-23.26h-17.82l9.17 23.26h22.52z" stroke="#263238" stroke-linecap="round" stroke-linejoin="round"/><path d="M122.42 157.49c2.7-4.28 13.86-23.26 13.86-23.26h17.83l-9.17 23.26h-22.52z" stroke="#263238" fill="#A9CEF4" fill-rule="nonzero" stroke-linecap="round" stroke-linejoin="round"/><path stroke="#263238" fill="#A9CEF4" fill-rule="nonzero" stroke-linecap="round" stroke-linejoin="round" d="M136.28 134.23l-7.75 23.26h87.95l4.08-23.26z"/><path stroke="#263238" stroke-linecap="round" stroke-linejoin="round" d="M249.22 90.13v23.14M253.6 100.14v18.76M127.29 113.27v14.38M123.54 121.4v11.25"/><path d="M61.93 82.1a46.15 46.15 0 0010.28 8.68c6 3.59 28 16.06 29.73 16.76 1.73.7 54.27-7.88 54.27-7.88s3 1.4 4.89 2.59c1.89 1.19 13.87 5 13.87 5s.8-.4-.1-1.09c-.9-.69-6.68-3.5-6.68-3.5l12 2.6s.7-.5.4-1c-.3-.5-11-4.59-11-4.59l12 .6s.9-1.1.3-1.5c-.6-.4-12.89-3.2-12.89-3.2s13.07-1.1 13.17-1.6c.1-.5.5-1.09-.3-1.19-.8-.1-17.16-1.7-17.16-1.7s4.29-2.69 4.79-3.49c.5-.8 1.2-2.4.4-2.4-.8 0-1 .5-2.09 1.2-1.09.7-5.39 2.4-6.59 3.39-1.2.99-4.79 3.6-4.79 3.6l-48.08.1L78.5 69.93" stroke="#263238" fill="#FFF" fill-rule="nonzero" stroke-linecap="round" stroke-linejoin="round"/><path d="M181.85 92.78c-.79-.1-17.16-1.7-17.16-1.7s4.29-2.69 4.79-3.49c.5-.8 1.2-2.4.4-2.4-.8 0-1 .5-2.09 1.2-1.09.7-5.39 2.4-6.59 3.39-1.2.99-4.79 3.6-4.79 3.6l-48.08.1-5.33-4.23c-2 3.51-5.74 10.09-8.17 14.43 3.74 2.08 6.57 3.63 7.14 3.86 1.7.7 54.27-7.88 54.27-7.88s3 1.4 4.89 2.59c1.89 1.19 13.87 5 13.87 5s.8-.4-.1-1.09c-.9-.69-6.68-3.5-6.68-3.5l12 2.6s.7-.5.4-1c-.3-.5-11-4.59-11-4.59l12 .6s.9-1.1.3-1.5c-.6-.4-12.92-3.2-12.92-3.2s13.07-1.1 13.17-1.6c.1-.5.48-1.09-.32-1.19zM101.34 31.92a1.43 1.43 0 012.5.6 8.08 8.08 0 01-1.6 6.18c-1.1 1.1-2.1 1.4-2.1 0a63.83 63.83 0 011.2-6.78h0z" stroke="#263238" fill="#FFF" fill-rule="nonzero" stroke-linecap="round" stroke-linejoin="round"/><path d="M89.06 14.44a20.41 20.41 0 01-5.87 12.91 48.85 48.85 0 01-10.76 8s.58 3.13 1.76 4.11c1.18.98 3.52.79 3.52.79a25.37 25.37 0 006.46 9.78c4.69 4.3 10.17 3.91 13.3-2.54 3.13-6.45 4.7-12.92 4.31-16.64l-.39-3.72s-10.18-5.65-12.33-12.69z" stroke="#263238" fill="#FFF" fill-rule="nonzero" stroke-linecap="round" stroke-linejoin="round"/><ellipse fill="#263238" fill-rule="nonzero" cx="88.47" cy="32.18" rx="1" ry="1.6"/><ellipse fill="#263238" fill-rule="nonzero" cx="93.36" cy="44.95" rx="1" ry="1.6"/><ellipse fill="#263238" fill-rule="nonzero" cx="97.15" cy="32.18" rx="1" ry="1.6"/><path d="M95.35 30.48a9.4 9.4 0 00-.3 3.69c.3 1.7 1.7 4.59.5 5.09a3.29 3.29 0 01-3.39-.4M85.87 29.29s.48-3.06 4.49-2.71M96.61 27.52s3.74-3 4.95 2.49" stroke="#263238" stroke-linecap="round" stroke-linejoin="round"/></g></g></svg>