<?xml version="1.0" encoding="UTF-8"?>
<svg width="32px" height="41px" viewBox="0 0 32 41" version="1.1" xmlns="http://www.w3.org/2000/svg" xmlns:xlink="http://www.w3.org/1999/xlink">
    <title>ics-format copy</title>
    <g id="RSVP" stroke="none" stroke-width="1" fill="none" fill-rule="evenodd">
        <g id="RSVP-/-Participant" transform="translate(-221.000000, -717.000000)" fill-rule="nonzero">
            <g id="Group-5" transform="translate(181.000000, 304.000000)">
                <g id="Group-3" transform="translate(0.000000, 130.000000)">
                    <g id="ics-format-copy" transform="translate(40.000000, 283.000000)">
                        <path d="M27.826087,40.3478261 L4.17391304,40.3478261 C1.86872452,40.3478261 0,38.4791016 0,36.173913 L0,4.17391304 C0,1.86872452 1.86872452,0 4.17391304,0 L23.6521739,0 L32,8.34782609 L32,36.173913 C32,38.4791016 30.1312755,40.3478261 27.826087,40.3478261 Z" id="Path" fill="#CFD2FC"></path>
                        <path d="M0,29.2173913 L32,29.2173913 L32,36.173913 C32,38.4791016 30.1312755,40.3478261 27.826087,40.3478261 L4.17391304,40.3478261 C1.86872452,40.3478261 0,38.4791016 0,36.173913 L0,29.2173913 Z" id="Path" fill="#5153FF"></path>
                        <path d="M32,8.34782609 L27.826087,8.34782609 C25.5208984,8.34782609 23.6521739,6.47910156 23.6521739,4.17391304 L23.6521739,1.2357265e-15 L32,8.34782609 Z" id="Path" fill="#8690FA"></path>
                        <path d="M10.1646087,9.73913043 L21.8353913,9.73913043 C22.1327336,9.73913043 22.4178975,9.8572492 22.6281502,10.0675019 C22.838403,10.2777547 22.9565217,10.5629186 22.9565217,10.8602609 L22.9565217,23.6521739 L9.04347826,23.6521739 L9.04347826,10.8602609 C9.04347826,10.2410776 9.54542545,9.73913043 10.1646087,9.73913043 L10.1646087,9.73913043 Z" id="Path" fill="#8690FA"></path>
                        <path d="M21.8353913,9.73913043 L10.1646087,9.73913043 C9.86725935,9.73913043 9.58208203,9.85721872 9.37182429,10.0674765 C9.16156655,10.2777342 9.04347826,10.5629115 9.04347826,10.8602609 L9.04347826,12.5217391 L22.9565217,12.5217391 L22.9565217,10.8602609 C22.9565217,10.5629115 22.8384335,10.2777342 22.6281757,10.0674765 C22.417918,9.85721872 22.1327407,9.73913043 21.8353913,9.73913043 L21.8353913,9.73913043 Z" id="Path" fill="#5153FF"></path>
                        <path d="M11.826087,11.1304348 C11.4418889,11.1304348 11.1304348,10.8189807 11.1304348,10.4347826 L11.1304348,8.34782609 C11.1304348,7.963628 11.4418889,7.65217391 11.826087,7.65217391 C12.210285,7.65217391 12.5217391,7.963628 12.5217391,8.34782609 L12.5217391,10.4347826 C12.5217391,10.8189807 12.210285,11.1304348 11.826087,11.1304348 Z" id="Path" fill="#8690FA"></path>
                        <path d="M20.173913,11.1304348 C19.789715,11.1304348 19.4782609,10.8189807 19.4782609,10.4347826 L19.4782609,8.34782609 C19.4782609,7.963628 19.789715,7.65217391 20.173913,7.65217391 C20.5581111,7.65217391 20.8695652,7.963628 20.8695652,8.34782609 L20.8695652,10.4347826 C20.8695652,10.8189807 20.5581111,11.1304348 20.173913,11.1304348 Z" id="Path" fill="#8690FA"></path>
                        <g id="Group" transform="translate(8.347826, 14.608696)" fill="#FFFFFF">
                            <circle id="Oval" cx="6.26086957" cy="0.695652174" r="1"></circle>
                            <circle id="Oval" cx="9.04347826" cy="0.695652174" r="1"></circle>
                            <circle id="Oval" cx="11.826087" cy="0.695652174" r="1"></circle>
                            <circle id="Oval" cx="3.47826087" cy="3.47826087" r="1"></circle>
                            <circle id="Oval" cx="6.26086957" cy="3.47826087" r="1"></circle>
                            <circle id="Oval" cx="9.04347826" cy="3.47826087" r="1"></circle>
                            <circle id="Oval" cx="11.826087" cy="3.47826087" r="1"></circle>
                            <circle id="Oval" cx="3.47826087" cy="6.26086957" r="1"></circle>
                            <circle id="Oval" cx="6.26086957" cy="6.26086957" r="1"></circle>
                            <circle id="Oval" cx="9.04347826" cy="6.26086957" r="1"></circle>
                            <circle id="Oval" cx="11.826087" cy="6.26086957" r="1"></circle>
                            <path d="M13.2173913,18.0869565 L14.6086957,18.0869565 C14.9928937,18.0869565 15.3043478,17.7755024 15.3043478,17.3913043 C15.3043478,17.0071063 14.9928937,16.6956522 14.6086957,16.6956522 L13.2173913,16.6956522 C12.064797,16.6956522 11.1304348,17.6300144 11.1304348,18.7826087 C11.1304348,19.935203 12.064797,20.8695652 13.2173913,20.8695652 C13.6015894,20.8695652 13.9130435,21.1810193 13.9130435,21.5652174 C13.9130435,21.9494155 13.6015894,22.2608696 13.2173913,22.2608696 L11.826087,22.2608696 C11.4418889,22.2608696 11.1304348,22.5723237 11.1304348,22.9565217 C11.1304348,23.3407198 11.4418889,23.6521739 11.826087,23.6521739 L13.2173913,23.6521739 C14.3699856,23.6521739 15.3043478,22.7178117 15.3043478,21.5652174 C15.3043478,20.4126231 14.3699856,19.4782609 13.2173913,19.4782609 C12.8331932,19.4782609 12.5217391,19.1668068 12.5217391,18.7826087 C12.5217391,18.3984106 12.8331932,18.0869565 13.2173913,18.0869565 Z" id="Path"></path>
                            <path d="M8.34782609,18.0869565 C8.48600143,18.0875476 8.62230196,18.1189787 8.74678261,18.1789565 C9.09431379,18.342817 9.50887862,18.1939225 9.6727391,17.8463913 C9.83659958,17.4988601 9.68770508,17.0842953 9.34017391,16.9204348 C9.03018833,16.772744 8.69119693,16.695957 8.34782609,16.6956522 C6.81347826,16.6956522 5.56521739,18.256 5.56521739,20.173913 C5.56521739,22.0918261 6.81347826,23.6521739 8.34782609,23.6521739 C8.69119693,23.6518691 9.03018833,23.5750821 9.34017391,23.4273913 C9.68770508,23.2635308 9.83659958,22.848966 9.6727391,22.5014348 C9.50887862,22.1539036 9.09431379,22.0050091 8.74678261,22.1688696 C8.62230196,22.2288474 8.48600143,22.2602785 8.34782609,22.2608696 C7.59365217,22.2608696 6.95652174,21.3052174 6.95652174,20.173913 C6.95652174,19.0426087 7.59365217,18.0869565 8.34782609,18.0869565 L8.34782609,18.0869565 Z" id="Path"></path>
                            <path d="M3.47826087,18.0869565 C3.86245896,18.0869565 4.17391304,17.7755024 4.17391304,17.3913043 C4.17391304,17.0071063 3.86245896,16.6956522 3.47826087,16.6956522 L0.695652174,16.6956522 C0.311454087,16.6956522 0,17.0071063 0,17.3913043 C0,17.7755024 0.311454087,18.0869565 0.695652174,18.0869565 L1.39130435,18.0869565 L1.39130435,22.2608696 L0.695652174,22.2608696 C0.311454087,22.2608696 0,22.5723237 0,22.9565217 C0,23.3407198 0.311454087,23.6521739 0.695652174,23.6521739 L3.47826087,23.6521739 C3.86245896,23.6521739 4.17391304,23.3407198 4.17391304,22.9565217 C4.17391304,22.5723237 3.86245896,22.2608696 3.47826087,22.2608696 L2.7826087,22.2608696 L2.7826087,18.0869565 L3.47826087,18.0869565 Z" id="Path"></path>
                        </g>
                    </g>
                </g>
            </g>
        </g>
    </g>
</svg>