<?xml version="1.0" encoding="UTF-8"?>
<svg xmlns="http://www.w3.org/2000/svg" xmlns:xlink="http://www.w3.org/1999/xlink" width="482px" height="349px" viewBox="0 0 482 349">
  <title>RSVP-bro</title>
  <g id="RSVP" stroke="none" stroke-width="1" fill="none" fill-rule="evenodd">
    <g id="RSVP-Participant" transform="translate(-777.000000, -434.000000)" fill-rule="nonzero">
      <g id="Group-5" transform="translate(181.000000, 304.000000)">
        <g id="Group-3" transform="translate(0.000000, 130.000000)">
          <g id="Invite-bro" transform="translate(596.000000, 0.000000)">
            <g id="freepik--background-simple--inject-51" transform="translate(19.515513, 0.000000)">
              <path d="M411.719928,344.391408 C416.311814,344.391408 426.425442,304.924153 427.584893,300.768496 C437.977887,263.875124 442.186704,225.514769 440.040382,187.245609 C437.227852,139.776993 432.004582,88.1412411 404.866539,51.4520764 C349.878711,-22.9709069 247.594463,-13.5919809 195.60284,59.8207876 C180.231504,81.5059666 164.159905,103.742172 143.49642,118.068854 C120.020406,134.415967 92.3887351,132.200382 67.1907637,142.325489 C28.9059189,157.708305 -0.826539379,211.307088 0.183675418,261.152005 C0.998735084,301.514678 26.013031,342.348019 60.3947733,345.298305 C93.3415513,348.122315 411.582172,344.391408 411.719928,344.391408 Z" id="Path" fill="#A9CEF4"></path>
              <path d="M411.719928,344.391408 C416.311814,344.391408 426.425442,304.924153 427.584893,300.768496 C437.977887,263.875124 442.186704,225.514769 440.040382,187.245609 C437.227852,139.776993 432.004582,88.1412411 404.866539,51.4520764 C349.878711,-22.9709069 247.594463,-13.5919809 195.60284,59.8207876 C180.231504,81.5059666 164.159905,103.742172 143.49642,118.068854 C120.020406,134.415967 92.3887351,132.200382 67.1907637,142.325489 C28.9059189,157.708305 -0.826539379,211.307088 0.183675418,261.152005 C0.998735084,301.514678 26.013031,342.348019 60.3947733,345.298305 C93.3415513,348.122315 411.582172,344.391408 411.719928,344.391408 Z" id="Path" fill="#FFFFFF" opacity="0.7"></path>
              <path d="M360.979594,40.4774702 C356.387709,37.997852 354.367279,40.0642005 352.7142,37.997852 C351.061122,35.9315036 357.306086,30.5589976 344.862076,25.1750119 C344.862076,25.1750119 344.035537,13.6034606 327.08,13.1901909 C310.124463,12.7769212 314.681909,24.7617422 310.135943,27.6546301 C305.589976,30.5475179 304.396086,26.0015513 299.8042,28.9059189 C295.212315,31.8102864 297.324582,37.5845823 293.605155,38.4111217 C289.885728,39.2376611 284.915012,34.6916945 280.369045,37.5845823 C275.823079,40.4774702 275.77716,42.9570883 273.75673,42.9570883 C271.736301,42.9570883 267.557685,41.3040095 265.078067,42.9570883 C262.598449,44.6101671 259.705561,46.6765155 259.705561,46.6765155 L364.285752,46.6765155 C364.285752,46.6765155 365.525561,42.9570883 360.979594,40.4774702 Z" id="Path" fill="#FFFFFF"></path>
              <path d="M163.781074,42.8193317 C160.922625,41.2580907 159.613938,42.5552983 158.580764,41.2580907 C157.547589,39.9608831 161.439212,36.5858473 153.633007,33.2222912 C153.633007,33.2222912 153.11642,25.9441527 142.463246,25.6801193 C131.810072,25.4160859 134.657041,32.9582578 131.798592,34.7835322 C128.940143,36.6088067 128.159523,33.7388783 125.301074,35.5641527 C122.442625,37.3894272 123.739833,41.0284964 121.397971,41.5450835 C119.05611,42.0616706 115.945107,39.2491408 113.086659,41.0284964 C110.22821,42.807852 110.21673,44.4035322 108.919523,44.4035322 C107.622315,44.4035322 105.01642,43.3588783 103.466659,44.4035322 L100.080143,46.6994749 L165.858902,46.6994749 C165.858902,46.6994749 166.639523,44.3805728 163.781074,42.8193317 Z" id="Path" fill="#A9CEF4"></path>
              <path d="M163.781074,42.8193317 C160.922625,41.2580907 159.613938,42.5552983 158.580764,41.2580907 C157.547589,39.9608831 161.439212,36.5858473 153.633007,33.2222912 C153.633007,33.2222912 153.11642,25.9441527 142.463246,25.6801193 C131.810072,25.4160859 134.657041,32.9582578 131.798592,34.7835322 C128.940143,36.6088067 128.159523,33.7388783 125.301074,35.5641527 C122.442625,37.3894272 123.739833,41.0284964 121.397971,41.5450835 C119.05611,42.0616706 115.945107,39.2491408 113.086659,41.0284964 C110.22821,42.807852 110.21673,44.4035322 108.919523,44.4035322 C107.622315,44.4035322 105.01642,43.3588783 103.466659,44.4035322 L100.080143,46.6994749 L165.858902,46.6994749 C165.858902,46.6994749 166.639523,44.3805728 163.781074,42.8193317 Z" id="Path" fill="#A9CEF4"></path>
              <path d="M163.781074,42.8193317 C160.922625,41.2580907 159.613938,42.5552983 158.580764,41.2580907 C157.547589,39.9608831 161.439212,36.5858473 153.633007,33.2222912 C153.633007,33.2222912 153.11642,25.9441527 142.463246,25.6801193 C131.810072,25.4160859 134.657041,32.9582578 131.798592,34.7835322 C128.940143,36.6088067 128.159523,33.7388783 125.301074,35.5641527 C122.442625,37.3894272 123.739833,41.0284964 121.397971,41.5450835 C119.05611,42.0616706 115.945107,39.2491408 113.086659,41.0284964 C110.22821,42.807852 110.21673,44.4035322 108.919523,44.4035322 C107.622315,44.4035322 105.01642,43.3588783 103.466659,44.4035322 L100.080143,46.6994749 L165.858902,46.6994749 C165.858902,46.6994749 166.639523,44.3805728 163.781074,42.8193317 Z" id="Path" fill="#FFFFFF" opacity="0.7"></path>
            </g>
            <g id="freepik--floor--inject-51" transform="translate(27.551313, 339.799523)" fill="#263238">
              <rect id="Rectangle" x="0" y="0.929856802" width="453.035418" height="7.33553699"></rect>
            </g>
            <g id="freepik--plants--inject-51" transform="translate(0.000000, 33.143198)">
              <path d="M462.219189,199.343962 C459.923246,179.323341 452.415513,180.1958 450.073652,160.175179 C447.73179,140.154558 455.182124,139.2821 452.840263,119.26148 C450.498401,99.2408592 443.036587,100.113317 440.683246,80.0926969 C438.329905,60.0720764 445.803198,59.1996181 443.449857,39.1789976 C441.096516,19.1583771 433.646181,20.0308353 431.30432,0.0216945107 L430.156348,4.07403341 C427.860406,20.1456325 421.29401,20.9721718 419.698329,39.6611456 C417.976372,59.7506444 425.438186,60.3935084 423.739189,80.4944869 C422.040191,100.595465 414.555418,99.9526014 412.810501,120.05358 C411.065585,140.154558 418.550358,140.785943 416.85136,160.886921 C415.152363,180.9879 407.667589,180.402434 405.934153,200.446014 C405.207089,206.972072 405.800503,213.577707 407.679069,219.86969 C409.228831,223.46284 415.772267,236.756348 428.962458,240.613532 C429.799545,240.856309 430.650613,241.047991 431.510955,241.187518 L431.510955,308.320883 L434.530119,308.320883 L434.530119,241.428592 C446.652697,241.50895 454.711456,229.558568 460.830143,219.559737 L460.910501,219.433461 C462.71987,212.897578 463.165332,206.059347 462.219189,199.343962 Z M448.581289,191.422959 L433.600263,219.226826 L433.600263,240.142864 L432.314535,240.142864 L432.314535,219.249785 L415.634511,191.859189 C415.448899,191.541516 415.550837,191.133765 415.864105,190.940811 C416.184743,190.757227 416.593352,190.864487 416.782482,191.181885 L432.360453,216.747208 L432.360453,137.904535 C432.243744,137.864632 432.140412,137.793094 432.061981,137.6979 L418.734033,120.478329 C418.592538,120.295821 418.559158,120.05169 418.646467,119.837898 C418.733777,119.624105 418.928511,119.473132 419.157315,119.441847 C419.386119,119.410563 419.614233,119.503721 419.755728,119.686229 L432.383413,135.952983 L432.383413,60.9904535 L423.417757,43.0591408 C423.280453,42.7325431 423.428022,42.3559892 423.750668,42.209642 C424.052827,42.0793489 424.404592,42.1982554 424.565728,42.4851551 L432.371933,58.1090453 L432.371933,31.9812172 C432.371933,31.6261732 432.659753,31.3383532 433.014797,31.3383532 C433.369841,31.3383532 433.657661,31.6261732 433.657661,31.9812172 L433.657661,31.9812172 L433.657661,57.3973031 L438.869451,44.2185919 C438.999423,43.8857382 439.374616,43.7212696 439.70747,43.8512411 C440.040324,43.9812125 440.204792,44.3564064 440.074821,44.6892601 L440.074821,44.6892601 L433.657661,60.9215752 L433.657661,135.069045 L445.860597,120.593126 C446.008244,120.41677 446.23876,120.332579 446.465313,120.372267 C446.691865,120.411955 446.880035,120.569493 446.95894,120.785537 C447.037846,121.001581 446.995499,121.24331 446.847852,121.419666 L433.657661,137.077995 L433.657661,216.506134 L447.502196,190.803055 C447.673607,190.492678 448.06395,190.379684 448.374654,190.550501 C448.518297,190.638314 448.620919,190.779859 448.65972,190.943685 C448.698521,191.10751 448.670286,191.280047 448.581289,191.422959 Z" id="Shape" fill="#77C1D0"></path>
              <path d="M470.668258,308.297924 L467.086587,307.149952 C465.238353,306.587446 464.629928,304.911408 462.793174,301.559332 C460.95642,298.207255 456.043103,303.23537 452.358115,303.23537 C448.673126,303.23537 452.966539,299.320788 451.129785,295.968711 C449.293031,292.616635 444.379714,296.531217 440.086301,295.406205 C435.792888,294.281193 441.923055,284.224964 435.792888,284.78747 C434.644916,284.890788 433.806897,285.797685 433.164033,287.19821 C432.578568,285.797685 431.809427,284.902267 430.776253,284.78747 C425.185632,284.224964 430.776253,294.292673 426.861671,295.406205 C422.947088,296.519737 418.48148,292.616635 416.805442,295.968711 C415.129403,299.320788 419.032506,303.23537 415.65747,303.23537 C412.282434,303.23537 407.828305,298.207255 406.152267,301.559332 C404.476229,304.911408 403.913723,306.587446 402.237685,307.149952 L398.977446,308.297924 L470.668258,308.297924 Z" id="Path" fill="#263238"></path>
              <path d="M153.828162,144.344654 L153.828162,144.287255 L153.759284,144.287255 L153.759284,144.229857 L153.759284,144.229857 C152.163604,144.069141 135.644296,142.657136 120.571432,150.486301 C127.22701,142.120706 130.294266,131.457556 129.100859,120.8342 C125.47327,84.4435084 91.1259666,63.6078282 88.4856325,62.0580668 L88.4856325,61.9662291 L88.3249165,61.9662291 L88.3249165,62.1384248 C85.6731026,63.6881862 51.3372792,84.5238663 47.69821,120.914558 C46.920677,127.958957 48.0052769,135.084066 50.8436516,141.578043 C31.5118138,130.017971 8.96565632,131.969523 6.88782816,132.164678 L6.88782816,132.164678 L6.65823389,132.164678 L6.65823389,132.233556 C5.63653938,134.529499 -7.26665871,165.616563 8.23095465,191.928067 C22.0984487,215.495919 51.1765632,209.273914 59.0746062,207.058329 C65.7098807,214.026516 77.8094988,229.88 83.1820048,256.960644 L75.6513126,256.960644 L79.2903819,308.229045 L96.2344391,308.229045 L99.8735084,257.029523 L90.9996897,257.029523 C95.0649532,238.681012 102.398721,221.213735 112.65043,205.462649 C120.548473,207.43716 141.958138,210.766277 152.507995,192.834964 C165.089761,171.425298 154.608783,146.261766 153.828162,144.344654 Z M87.8657279,144.149499 L69.9573747,119.272959 C69.8806479,119.169658 69.848398,119.039972 69.8678025,118.912764 C69.887207,118.785557 69.9566558,118.671384 70.0606921,118.595656 L70.0606921,118.595656 C70.2795874,118.434641 70.5874549,118.480821 70.7494749,118.698974 L87.8427685,142.49642 L87.8427685,117.321408 L87.8427685,117.321408 L69.9344153,92.4563484 C69.7733998,92.2374531 69.8195799,91.9295857 70.0377327,91.7675656 C70.2610693,91.6154174 70.5645965,91.6660052 70.7265155,91.8823628 L87.8657279,115.702768 L87.8657279,78.967685 C87.9125848,78.7016946 88.1603976,78.5196281 88.4282339,78.5544153 C88.6432996,78.5834649 88.8124539,78.7526192 88.8415036,78.967685 L88.8415036,114.42852 L107.43864,90.8377088 C107.603275,90.630465 107.902065,90.5899511 108.115943,90.7458711 L108.115943,90.7458711 C108.319472,90.9138611 108.354871,91.2122233 108.196301,91.4231742 L88.8185442,116.093079 L88.8185442,141.348449 L107.41568,117.757637 C107.495022,117.653723 107.613163,117.586484 107.743024,117.571334 C107.872885,117.556184 108.003331,117.59442 108.104463,117.677279 C108.204966,117.756417 108.269901,117.872251 108.284972,117.999281 C108.300044,118.126311 108.264016,118.254124 108.184821,118.354582 L108.184821,118.354582 L88.8185442,142.921169 L88.8185442,164.227518 L107.41568,140.648186 C107.580316,140.440942 107.879105,140.400428 108.092983,140.556348 L108.092983,140.556348 C108.296513,140.724338 108.331911,141.022701 108.173341,141.233652 L88.8185442,165.800239 L88.8185442,166.270907 L87.2458234,166.270907 L69.9229356,142.163508 C69.7619201,141.944613 69.8081002,141.636746 70.026253,141.474726 C70.2495896,141.322577 70.5531168,141.373165 70.7150358,141.589523 L87.8427685,165.455847 L87.8427685,144.10358 L87.8657279,144.149499 Z M59.361599,204.865704 L57.6052029,202.454964 L32.3498329,195.429379 C32.1539818,195.351544 32.0480737,195.138801 32.1040242,194.935613 C32.1599747,194.732424 32.3598587,194.603885 32.5679475,194.637279 L56.8245823,201.387351 L46.297685,186.99179 L21.0997136,179.966205 C20.8818832,179.904819 20.7539444,179.679647 20.8127208,179.461098 C20.8739053,179.249462 21.094099,179.126563 21.3063484,179.185585 L21.3063484,179.185585 L45.5170644,185.935656 L33.0730549,168.899761 L7.81768496,161.874177 C7.71772073,161.849961 7.63190012,161.786138 7.57993963,161.697372 C7.5280443,161.608607 7.51434584,161.502528 7.54217184,161.403508 L7.54217184,161.403508 C7.56910652,161.299702 7.63642265,161.210972 7.72913538,161.157069 C7.8218481,161.103167 7.93226238,161.088565 8.03579952,161.116516 L8.03579952,161.116516 L32.2465155,167.866587 L14.7973508,143.919905 C14.6654986,143.735737 14.706456,143.479753 14.8891885,143.345919 C15.0617301,143.217833 15.3045111,143.24818 15.4402148,143.414797 L15.4402148,143.414797 L33.5552029,168.188019 L33.3830072,143.644391 C33.3632126,143.535892 33.3888887,143.424026 33.4540162,143.335018 C33.5191438,143.246011 33.6179959,143.187688 33.7273986,143.173723 C33.8341647,143.153801 33.9444483,143.17795 34.0331183,143.240668 C34.1217884,143.303386 34.1812909,143.399329 34.1980668,143.506635 C34.2097317,143.551813 34.2097317,143.599213 34.1980668,143.644391 L34.4391408,169.267112 L34.4391408,169.267112 L46.8716706,186.291527 L46.6994749,161.73642 C46.6796803,161.627921 46.7053564,161.516055 46.770484,161.427047 C46.8356116,161.338039 46.9344637,161.279717 47.0438663,161.265752 C47.1506325,161.24583 47.2609161,161.269979 47.3495861,161.332697 C47.4382562,161.395415 47.4977587,161.491358 47.5145346,161.598663 C47.5261995,161.643842 47.5261995,161.691242 47.5145346,161.73642 L47.69821,187.3821 L47.69821,187.3821 L58.0299523,201.731742 L57.8462768,177.176635 C57.8581788,176.955427 58.0380911,176.780512 58.2595465,176.774845 C58.481449,176.774845 58.6613365,176.954732 58.6613365,177.176635 L58.6613365,177.176635 L58.8450119,202.810835 L58.8450119,202.810835 L60.3488544,204.865704 L59.361599,204.865704 Z M62.2315274,204.865704 C65.9050358,199.275084 76.5122912,180.919021 70.1754893,163.251742 C75.1011105,166.502706 80.3718597,169.197757 85.8912172,171.287542 L85.8912172,251.002673 C80.0710024,226.573842 69.1078759,211.971647 62.4381623,204.865704 L62.2315274,204.865704 Z M89.7828401,246.089356 L89.7828401,171.654893 C95.0361138,169.740819 100.072937,167.278201 104.809785,164.307876 C94.6961575,180.517232 105.957757,199.240644 109.01136,203.660334 C100.513525,216.760758 94.0317052,231.06333 89.7828401,246.089356 Z M152.829427,168.383174 L132.384057,174.123031 L122.281909,187.898687 L141.923699,182.411384 C142.010525,182.387011 142.103524,182.398904 142.181421,182.444344 C142.259318,182.489784 142.315447,182.564882 142.336969,182.652458 C142.38125,182.82638 142.279696,183.004099 142.107375,183.054248 L121.650525,188.794105 L113.121098,200.468974 L132.762888,194.99315 C132.93681,194.94887 133.114528,195.050423 133.164678,195.222745 C133.209715,195.399572 133.109013,195.580835 132.935084,195.636014 L112.489714,201.375871 L111.410621,202.845274 C111.215465,202.730477 111.02031,202.62716 110.848115,202.500883 L111.456539,201.662864 L111.456539,201.662864 L111.605776,180.861623 C111.611726,180.680283 111.757347,180.534662 111.938687,180.528711 C112.122549,180.528711 112.271599,180.677761 112.271599,180.861623 L112.271599,180.861623 L112.133842,200.778926 L120.66327,189.115537 L120.66327,189.115537 L120.812506,168.314296 C120.812506,168.130434 120.961556,167.981384 121.145418,167.981384 L121.145418,167.981384 C121.326758,167.987335 121.472379,168.132956 121.478329,168.314296 L121.329093,188.243079 L131.419761,174.467422 L131.419761,174.467422 L131.568998,153.654702 C131.598604,153.497337 131.736044,153.383343 131.896169,153.383343 C132.056294,153.383343 132.193735,153.497337 132.223341,153.654702 L132.223341,153.654702 L132.016706,173.491647 L146.71074,153.390668 C146.819891,153.247142 147.02347,153.216605 147.169928,153.32179 C147.239999,153.370469 147.287842,153.445009 147.302915,153.528987 C147.317988,153.612965 147.299054,153.69949 147.250286,153.769499 L147.250286,153.769499 L133.049881,173.204654 L152.680191,167.75179 C152.854113,167.707509 153.031832,167.809063 153.081981,167.981384 C153.135052,168.142997 153.047959,168.317184 152.886826,168.371695 L152.829427,168.383174 Z" id="Shape" fill="#77C1D0"></path>
            </g>
            <g id="freepik--Character--inject-51" transform="translate(118.093079, 47.066826)">
              <polygon id="Path" fill="#FFFFFF" points="230.775418 60.2570167 227.733294 51.1421241 221.327613 42.3716229 217.654105 52.6000477 226.045776 63.6320525"></polygon>
              <path d="M225.930979,64.4241527 L217.011241,52.7033652 L221.143938,41.1547733 L228.28432,50.9699284 L231.452721,60.486611 L225.930979,64.4241527 Z M218.26253,52.50821 L226.137613,62.8399523 L230.063675,60.0389021 L227.182267,51.4176372 L221.442411,43.5769928 L218.26253,52.50821 Z" id="Shape" fill="#263238"></path>
              <path d="M276.120286,88.5889499 L250.589403,89.4843675 C248.663351,89.5587526 246.870176,88.5052621 245.997518,86.7866348 L230.775418,60.2570167 C230.775418,60.2570167 226.390167,62.6218377 226.045776,63.6320525 C225.701384,64.6422673 236.216802,90.1501909 240.728329,101.515107 C241.502998,103.477981 243.442118,104.729175 245.549809,104.62611 L274.099857,103.478138" id="Path" fill="#A9CEF4"></path>
              <path d="M245.343174,105.223055 C243.08612,105.234092 241.049574,103.870333 240.200263,101.779141 C239.281885,99.4831981 238.122434,96.5673508 236.848186,93.4104296 C226.895274,68.5798091 225.288115,64.1601193 225.506229,63.4942959 C225.87358,62.3463246 229.122339,60.5440095 230.499905,59.7978282 L230.993532,59.5337947 L246.491146,86.5455609 C247.266096,88.0724189 248.8551,89.0123937 250.566444,88.9563007 L276.097327,88.0608831 L276.097327,89.2088544 L250.566444,90.1042721 C248.419605,90.1730865 246.423907,89.0033488 245.435012,87.0965871 L230.511384,61.0835561 C229.078047,61.7958789 227.755596,62.7123147 226.585322,63.8042482 C226.895274,65.6065632 233.47315,82.0455131 237.869881,92.9856802 C239.132649,96.1426014 240.30358,99.046969 241.221957,101.354391 C241.90405,103.090936 243.617392,104.199297 245.480931,104.109523 L274.030979,102.961551 L274.030979,104.109523 L245.480931,105.257494 L245.343174,105.223055 Z" id="Path" fill="#263238"></path>
              <rect id="Rectangle" fill="#263238" transform="translate(230.659623, 65.835958) rotate(-22.520000) translate(-230.659623, -65.835958) " x="228.495697" y="65.4054682" width="4.32785203" height="1"></rect>
              <rect id="Rectangle" fill="#A9CEF4" x="0.698997613" y="109.700143" width="241.418377" height="182.493007"></rect>
              <path d="M242.117375,292.732697 L0.698997613,292.732697 C0.381994076,292.732697 0.125011933,292.475715 0.125011933,292.158711 L0.125011933,109.631265 C0.125011933,109.314261 0.381994076,109.057279 0.698997613,109.057279 L242.117375,109.057279 C242.429366,109.069065 242.679575,109.319274 242.69136,109.631265 L242.69136,292.158711 C242.69136,292.475715 242.434378,292.732697 242.117375,292.732697 Z M1.29594272,291.584726 L241.566348,291.584726 L241.566348,110.205251 L1.29594272,110.205251 L1.29594272,291.584726 Z" id="Shape" fill="#263238"></path>
              <path d="M0.698997613,109.700143 L107.758807,5.14291169 C114.480072,-0.550909737 124.310061,-0.628197119 131.120024,4.95923628 L242.117375,109.700143 L0.698997613,109.700143 Z" id="Path" fill="#A9CEF4"></path>
              <path d="M242.117375,110.27415 L0.698997613,110.27415 C0.466311531,110.276148 0.256401766,110.134687 0.170930788,109.918258 C0.0831222631,109.701467 0.132772563,109.453216 0.297207637,109.286874 L107.357017,4.74112172 C114.281958,-1.14975135 124.428534,-1.2463854 131.464415,4.51152745 L242.484726,109.286874 C242.65902,109.447328 242.714102,109.699786 242.622482,109.918258 C242.537771,110.125115 242.340675,110.263978 242.117375,110.27415 Z M2.11100239,109.126158 L240.670931,109.126158 L130.729714,5.37250597 C124.13534,-0.0225289702 114.626619,0.0692727063 108.137637,5.59062053 L2.11100239,109.126158 Z" id="Shape" fill="#263238"></path>
              <rect id="Rectangle" fill="#FFFFFF" x="20.7196181" y="22.5920764" width="201.377136" height="169.94568"></rect>
              <path d="M222.096754,193.100263 L20.7196181,193.100263 C20.4026146,193.100263 20.1456325,192.84328 20.1456325,192.526277 L20.1456325,22.6265155 C20.1456325,22.309512 20.4026146,22.0525298 20.7196181,22.0525298 L222.096754,22.0525298 C222.413758,22.0525298 222.67074,22.309512 222.67074,22.6265155 L222.67074,192.526277 C222.67074,192.84328 222.413758,193.100263 222.096754,193.100263 Z M21.2936038,191.952291 L221.522768,191.952291 L221.522768,23.2005012 L21.2936038,23.2005012 L21.2936038,191.952291 Z" id="Shape" fill="#263238"></path>
              <path d="M213.268854,182.194535 L29.5934368,182.194535 C29.3525141,182.194535 29.1572076,181.999228 29.1572076,181.758305 L29.1572076,181.758305 L29.1572076,33.3600477 C29.1634316,33.1236198 29.3569269,32.9352983 29.5934368,32.9352983 L213.268854,32.9352983 C213.498503,32.946802 213.6821,33.1303988 213.693604,33.3600477 L213.693604,181.758305 C213.693604,181.994815 213.505282,182.188311 213.268854,182.194535 Z M29.9952267,181.379475 L212.832625,181.379475 L212.832625,33.7962768 L29.9952267,33.7962768 L29.9952267,181.379475 Z" id="Shape" fill="#A9CEF4"></path>
              <path d="M207.402721,178.165155 L35.4136516,178.165155 C34.7796445,178.165155 34.2656802,177.651191 34.2656802,177.017184 L34.2656802,38.1126492 C34.2656802,37.4786421 34.7796445,36.9646778 35.4136516,36.9646778 L207.402721,36.9646778 C208.036728,36.9646778 208.550692,37.4786421 208.550692,38.1126492 L208.550692,177.017184 C208.550692,177.651191 208.036728,178.165155 207.402721,178.165155 Z M36.5616229,175.869212 L206.254749,175.869212 L206.254749,39.2606205 L36.5616229,39.2606205 L36.5616229,175.869212 Z" id="Shape" fill="#A9CEF4"></path>
              <path d="M114.726993,86.7981146 C115.576492,88.1412411 116.46043,88.8185442 117.378807,88.8185442 L117.378807,88.9218616 C116.781862,88.9218616 116.001241,89.4499284 115.082864,90.5060621 C115.082864,90.7930549 114.979547,90.9308115 114.761432,90.9308115 C114.761432,90.3912649 114.417041,89.9320764 113.705298,89.5532458 C113.01136,89.2239122 112.244673,89.0776883 111.478234,89.1284964 L87.8185442,89.1284964 L85.5914797,89.9779952 L85.2700477,90.2994272 L85.097852,90.2994272 C84.7257135,90.0620422 84.4648533,89.6847934 84.3741369,89.2528105 C84.2834205,88.8208276 84.3704924,88.370513 84.6157041,88.0034845 C84.7400847,87.810133 84.9045005,87.6457172 85.097852,87.5213365 L85.3044869,87.5213365 C85.9828596,88.0175032 86.7700785,88.344199 87.6004296,88.4741527 L87.8185442,88.6922673 L112.189976,88.6922673 C113.877494,88.3937947 114.726993,87.8083294 114.726993,86.7981146 Z M118.549737,86.0634129 C119.479594,86.0634129 120.225776,86.7292363 120.765322,88.0723628 L120.765322,88.2904773 L120.45537,88.2904773 C118.963007,87.8083294 118.228305,87.2458234 118.228305,86.5914797 L118.228305,86.3733652 L118.549737,86.0634129 Z M120.340573,89.507327 L120.558687,89.507327 L120.765322,89.7254415 C120.765322,90.3109069 120.168377,90.9767303 118.963007,91.7343914 L118.85969,91.7343914 C118.492339,91.7343914 118.274224,91.631074 118.228305,91.4244391 L118.228305,90.9996897 C118.730447,90.2717917 119.481905,89.7531223 120.340573,89.5417661 L120.340573,89.507327 Z M124.369952,86.0634129 L124.588067,86.3733652 L124.588067,86.5914797 C124.588067,87.0851074 123.945203,87.6476134 122.682434,88.2904773 L122.03957,88.2904773 L122.03957,88.0723628 C122.03957,87.4868974 122.602076,86.8555131 123.738568,86.1667303 L124.369952,86.0634129 Z M122.257685,89.507327 C122.761905,89.5391099 123.243568,89.7277611 123.635251,90.0468735 C124.266635,90.4142243 124.588067,90.8045346 124.588067,91.1948449 L124.588067,91.4129594 C124.519189,91.6195943 124.301074,91.7229117 123.945203,91.7229117 L123.841885,91.7229117 C123.185618,91.3872953 122.636732,90.8742068 122.257685,90.2420286 L122.03957,89.9205967 L122.03957,89.7139618 L122.257685,89.507327 Z M128.0779,86.7521957 C128.0779,87.7624105 128.927399,88.3937947 130.626396,88.6693079 L154.997828,88.6693079 C155.45609,88.3274791 156.010389,88.1386962 156.582029,88.1297613 L157.534845,87.4983771 L157.752959,87.4983771 C158.214684,87.8046505 158.492265,88.3218733 158.492265,88.8759427 C158.492265,89.4300121 158.214684,89.947235 157.752959,90.2535084 L157.534845,90.2535084 C156.702852,89.6897629 155.765848,89.2993445 154.779714,89.105537 L131.361098,89.105537 C129.639141,89.105537 128.537088,89.6106444 128.0779,90.5978998 L128.0779,90.907852 C127.193962,89.7598807 126.45926,89.105537 125.850835,89.105537 C125.850835,88.9677804 125.713079,88.8989021 125.437566,88.8989021 C125.437566,88.7611456 125.67864,88.6922673 126.172267,88.6922673 C127.003106,88.3169724 127.651239,87.6275562 127.974582,86.7751551 L128.0779,86.7521957 Z" id="Shape" fill="#A9CEF4"></path>
              <polygon id="Path" fill="#A9CEF4" points="0.698997613 110.744797 121.408186 201.985561 242.105895 110.744797 242.105895 293.226325 0.698997613 293.226325"></polygon>
              <path d="M242.117375,293.80031 L0.698997613,293.80031 C0.381994076,293.80031 0.125011933,293.543328 0.125011933,293.226325 L0.125011933,110.698878 C0.137904852,110.486615 0.258700832,110.295774 0.445032479,110.193292 C0.631364126,110.090809 0.857221701,110.09099 1.04338902,110.193771 L121.408186,201.170501 L241.761504,110.205251 C242.009104,110.009891 242.367946,110.050901 242.565084,110.297088 C242.645325,110.398509 242.689728,110.523645 242.69136,110.652959 L242.69136,293.180406 C242.707369,293.332792 242.661784,293.485254 242.564756,293.603844 C242.467728,293.722434 242.327312,293.797306 242.174773,293.81179 L242.117375,293.80031 Z M1.27298329,292.652339 L241.543389,292.652339 L241.543389,111.892768 L121.752578,202.444749 C121.547268,202.59409 121.269104,202.59409 121.063795,202.444749 L1.29594272,111.892768 L1.27298329,292.652339 Z" id="Shape" fill="#263238"></path>
              <polygon id="Path" fill="#A9CEF4" points="0.698997613 293.226325 104.624845 189.300477 138.180048 189.300477 242.105895 293.226325"></polygon>
              <path d="M242.117375,293.80031 L0.698997613,293.80031 C0.470918092,293.798178 0.264840021,293.663779 0.170930788,293.455919 C0.0764933644,293.239797 0.126910721,292.98771 0.297207637,292.824535 L104.223055,188.898687 C104.326694,188.787175 104.472619,188.724636 104.624845,188.726451 L138.180048,188.726451 C138.332273,188.724636 138.478198,188.787175 138.581838,188.898687 L242.519165,292.824535 C242.678297,292.993653 242.727288,293.238605 242.645442,293.455919 C242.551532,293.663779 242.345454,293.798178 242.117375,293.80031 L242.117375,293.80031 Z M2.08804296,292.652339 L240.728329,292.652339 L137.904535,189.874463 L104.865919,189.874463 L2.08804296,292.652339 Z" id="Shape" fill="#263238"></path>
              <polygon id="Path" fill="#FFFFFF" points="269.347255 75.8349881 269.014344 85.5123866 280.551456 83.6756325 280.953246 66.8004535"></polygon>
              <path d="M268.417399,86.1896897 L268.77327,75.5479952 L281.561671,65.6065632 L281.113962,84.1692601 L268.417399,86.1896897 Z M269.909761,76.1219809 L269.611289,84.8350835 L279.943031,83.1820048 L280.298902,67.9943437 L269.909761,76.1219809 Z" id="Shape" fill="#263238"></path>
              <path d="M259.589499,290.907422 C259.349037,290.232289 259.153456,289.542002 259.004033,288.841074 L258.34969,283.985155 L249.854702,282.630549 L242.771718,287.670143 L238.271671,290.149761 L238.179833,290.149761 C237.07255,290.598094 236.014613,291.159762 235.022912,291.8258 C234.27673,292.480143 234.644081,293.214845 236.882625,293.214845 L259.13031,293.214845 C259.13031,293.214845 260.209403,292.583461 259.589499,290.907422 Z" id="Path" fill="#FFFFFF"></path>
              <path d="M259.245107,293.80031 L236.848186,293.80031 C235.298425,293.80031 234.380048,293.455919 234.127494,292.778616 C233.964436,292.263307 234.160823,291.702202 234.609642,291.40105 C235.648257,290.693387 236.760658,290.100619 237.927279,289.633174 L238.053556,289.633174 L242.461766,287.210955 L249.682506,282.068043 L258.866277,283.537446 L259.566539,288.806635 C259.71906,289.462959 259.906834,290.110588 260.129045,290.746706 L260.129045,290.746706 C260.678665,291.793327 260.375363,293.084806 259.417303,293.777351 L259.245107,293.80031 Z M235.218067,292.434224 C235.743886,292.604438 236.296115,292.678328 236.848186,292.652339 L258.900716,292.652339 C259.072912,292.480143 259.371384,292.020955 259.026993,291.114057 L259.026993,291.114057 C258.773603,290.412825 258.566523,289.695714 258.407088,288.967351 L257.810143,284.490263 L249.969499,283.227494 L243.081671,288.140811 L238.340549,290.712267 C237.302386,291.125106 236.309824,291.644469 235.378783,292.262029 C235.317346,292.308148 235.266466,292.366856 235.229547,292.434224 L235.218067,292.434224 Z" id="Shape" fill="#263238"></path>
              <path d="M259.727255,291.584726 L235.367303,291.584726 C235.231438,291.667027 235.104481,291.763207 234.988473,291.871718 C234.242291,292.526062 234.609642,293.260764 236.848186,293.260764 L259.095871,293.260764 C259.621883,292.878097 259.870045,292.219338 259.727255,291.584726 L259.727255,291.584726 Z" id="Path" fill="#FFFFFF"></path>
              <path d="M259.245107,293.80031 L236.848186,293.80031 C235.298425,293.80031 234.380048,293.455919 234.127494,292.778616 C233.964436,292.263307 234.160823,291.702202 234.609642,291.40105 C234.749258,291.281105 234.899061,291.173554 235.057351,291.079618 L235.195107,290.976301 L260.220883,290.976301 L260.301241,291.469928 C260.493688,292.351059 260.129898,293.260533 259.382864,293.765871 L259.245107,293.80031 Z M235.218067,292.434224 C235.743886,292.604438 236.296115,292.678328 236.848186,292.652339 L258.889236,292.652339 C259.027867,292.506536 259.119806,292.322659 259.15327,292.124272 L235.539499,292.124272 L235.367303,292.262029 C235.305866,292.308148 235.254986,292.366856 235.218067,292.434224 L235.218067,292.434224 Z" id="Shape" fill="#263238"></path>
              <path d="M297.070764,290.907422 C296.831814,290.230819 296.632495,289.540867 296.473819,288.841074 L295.830955,283.985155 L287.335967,282.630549 L280.252983,287.670143 L275.752936,290.149761 L275.661098,290.149761 C274.550162,290.598049 273.488413,291.159699 272.492697,291.8258 C271.746516,292.480143 272.125346,293.214845 274.352411,293.214845 L296.600095,293.214845 C296.600095,293.214845 297.713628,292.583461 297.070764,290.907422 Z" id="Path" fill="#FFFFFF"></path>
              <path d="M296.760811,293.80031 L274.352411,293.80031 C272.802649,293.80031 271.895752,293.455919 271.631718,292.778616 C271.468661,292.263307 271.665047,291.702202 272.113866,291.40105 C273.152481,290.693387 274.264883,290.100619 275.431504,289.633174 L275.56926,289.633174 L279.96599,287.210955 L287.19821,282.068043 L296.381981,283.537446 L297.082243,288.806635 C297.230909,289.462761 297.414852,290.110392 297.63327,290.746706 C298.193537,291.791951 297.888509,293.090779 296.921527,293.777351 L296.760811,293.80031 Z M272.733771,292.434224 C273.254325,292.610109 273.803867,292.684161 274.352411,292.652339 L296.40494,292.652339 C296.577136,292.480143 296.887088,292.020955 296.531217,291.114057 L296.531217,291.114057 C296.288363,290.410448 296.085235,289.69375 295.922792,288.967351 L295.314368,284.490263 L287.473723,283.227494 L280.585895,288.140811 L275.844773,290.712267 C274.80661,291.125106 273.814049,291.644469 272.883007,292.262029 C272.824609,292.311317 272.774258,292.369414 272.733771,292.434224 Z" id="Shape" fill="#263238"></path>
              <path d="M297.242959,291.584726 L272.883007,291.584726 C272.745615,291.67006 272.615113,291.766017 272.492697,291.871718 C271.746516,292.526062 272.125346,293.260764 274.352411,293.260764 L296.600095,293.260764 C297.127917,292.879098 297.380159,292.221468 297.242959,291.584726 L297.242959,291.584726 Z" id="Path" fill="#FFFFFF"></path>
              <path d="M296.760811,293.80031 L274.352411,293.80031 C272.802649,293.80031 271.895752,293.455919 271.631718,292.778616 C271.468661,292.263307 271.665047,291.702202 272.113866,291.40105 C272.253483,291.281105 272.403286,291.173554 272.561575,291.079618 L272.710811,290.976301 L297.736587,290.976301 L297.805465,291.469928 C298.003616,292.348884 297.643888,293.259586 296.898568,293.765871 L296.760811,293.80031 Z M272.733771,292.434224 C273.254325,292.610109 273.803867,292.684161 274.352411,292.652339 L296.40494,292.652339 C296.541896,292.505366 296.633569,292.32202 296.668974,292.124272 L273.055203,292.124272 L272.871527,292.262029 C272.81313,292.311317 272.762779,292.369414 272.722291,292.434224 L272.733771,292.434224 Z" id="Shape" fill="#263238"></path>
              <path d="M256.467017,148.69673 L255.445322,161.324415 C255.445322,161.324415 248.385298,211.559642 248.71821,217.333938 C249.051122,223.108234 249.866181,282.687947 249.866181,282.687947 L258.361169,284.042554 L267.912291,217.953842 L281.320597,150.797518 L256.467017,148.69673 Z" id="Path" fill="#A9CEF4"></path>
              <path d="M258.808878,284.696897 L249.257757,283.112697 L249.257757,282.630549 C249.257757,282.033604 248.500095,223.016396 248.167184,217.310979 C247.834272,211.605561 254.607303,163.241527 254.894296,161.186659 L255.95043,148.076826 L281.97494,150.212053 L281.848663,150.843437 L268.428878,218.011241 L258.808878,284.696897 Z M250.405728,282.136921 L257.844582,283.284893 L267.303866,217.770167 L280.597375,151.187828 L257.006563,149.236277 L256.030788,161.232578 C255.961909,161.772124 248.982243,211.513723 249.303675,217.161742 C249.625107,222.809761 250.31389,276.442983 250.405728,282.136921 Z" id="Shape" fill="#263238"></path>
              <path d="M255.789714,281.37926 L254.997613,281.252983 C254.997613,281.069308 258.671122,262.368854 258.671122,252.301146 C258.671122,242.233437 258.671122,232.613437 261.12778,223.154153 C263.55,213.878544 266.867637,194.753341 266.867637,194.558186 L267.717136,194.707422 C267.717136,194.902578 264.410979,214.05074 261.977279,223.406706 C259.54358,232.762673 259.589499,242.221957 259.589499,252.335585 C259.589499,262.449212 255.824153,281.252983 255.789714,281.37926 Z" id="Path" fill="#263238"></path>
              <path d="M273.709547,145.597208 C279.323126,142.669881 285.349976,140.70685 287.048974,144.621432 C290.492888,152.439117 286.371671,164.3321 286.371671,164.3321 L289.436754,219.136253 L295.532482,284.019594 L285.946921,283.927757 C285.946921,283.927757 273.56031,228.09043 271.528401,224.692434 C269.496492,221.294439 266.270692,173.504391 266.270692,173.504391 L259.842053,167.603819" id="Path" fill="#A9CEF4"></path>
              <path d="M296.209785,284.59358 L285.533652,284.490263 L285.430334,284.042554 C281.159881,264.768115 272.653413,227.608282 271.080692,224.979427 C269.060263,221.615871 266.155895,179.657518 265.765585,173.768425 L259.451742,168.028568 L260.220883,167.179069 L266.879117,173.205919 L266.879117,173.435513 C268.164845,192.595155 270.610024,221.960263 272.056468,224.371002 C274.042458,227.68864 285.17778,277.671313 286.440549,283.330811 L294.935537,283.411169 L288.897208,219.124773 L285.774726,164.159905 L285.774726,164.045107 C285.774726,163.93031 289.735227,152.266921 286.463508,144.759189 C286.165293,143.996835 285.542244,143.407463 284.764511,143.152029 C282.675203,142.405847 278.921337,143.404582 273.916181,146.010477 L273.388115,144.988783 C278.749141,142.187733 282.709642,141.211957 285.154821,142.072936 C286.23086,142.43372 287.095002,143.247523 287.519642,144.3 C290.8258,151.92253 287.324487,163.023413 286.888258,164.309141 L289.99926,219.009976 L296.209785,284.59358 Z" id="Path" fill="#263238"></path>
              <path d="M291.342387,280.931551 C291.342387,280.701957 288.851289,257.455537 285.21222,240.90179 C282.457088,228.354463 282.663723,227.596802 282.916277,226.46031 C283.067122,225.938528 283.133016,225.395871 283.111432,224.85315 L283.111432,222.557208 C283.18031,218.654105 283.283628,212.753532 282.284893,209.458854 C280.758091,204.350382 279.98895,197.060764 279.782315,187.165251 L280.643294,187.165251 C280.79253,196.980406 281.607589,204.189666 283.111432,209.22926 C284.144606,212.673174 284.041289,218.631146 283.972411,222.580167 L283.972411,224.87611 C283.99197,225.495824 283.918447,226.114966 283.754296,226.712864 C283.501742,227.6542 283.295107,228.388902 286.050239,240.741074 C289.700788,257.34074 292.168926,280.633079 292.203365,280.920072 L291.342387,280.931551 Z" id="Path" fill="#263238"></path>
              <path d="M280.700692,180.816969 L279.839714,180.816969 L279.839714,177.809284 C280.184105,161.565489 279.943031,159.763174 279.839714,159.568019 L280.230024,159.418783 L279.839714,159.223628 L280.333341,158.994033 C280.76957,159.097351 281.056563,159.166229 280.654773,177.832243 C280.723652,178.853938 280.712172,179.852673 280.700692,180.816969 Z" id="Path" fill="#263238"></path>
              <path d="M261.885442,168.281122 C261.75892,168.278157 261.638924,168.224365 261.55253,168.131885 L259.566539,165.835943 C259.461385,165.725679 259.430007,165.564306 259.486181,165.422673 L260.794869,161.485131 L261.058902,155.745274 C261.061834,155.630536 261.111076,155.521868 261.195414,155.444018 C261.279751,155.366168 261.392005,155.325763 261.506611,155.332005 C261.738523,155.344227 261.920203,155.536 261.919881,155.768234 L261.919881,155.768234 L261.644368,161.508091 C261.655588,161.549435 261.655588,161.593023 261.644368,161.634368 L260.393079,165.388234 L262.229833,167.53494 C262.393229,167.700378 262.393229,167.966447 262.229833,168.131885 L262.229833,168.131885 C262.143399,168.230999 262.016865,168.28583 261.885442,168.281122 L261.885442,168.281122 Z" id="Path" fill="#263238"></path>
              <path d="M267.705656,162.150955 C261.288496,162.150955 258.682601,159.625418 258.521885,159.499141 C258.444072,159.421597 258.400334,159.316263 258.400334,159.206408 C258.400334,159.096554 258.444072,158.991219 258.521885,158.913675 L258.521885,158.913675 C258.687323,158.750279 258.953393,158.750279 259.118831,158.913675 C259.118831,158.913675 262.447947,162.082076 270.74778,161.11778 C270.857561,161.101452 270.969295,161.129967 271.057825,161.196905 C271.146356,161.263843 271.204241,161.363577 271.218449,161.473652 L271.218449,161.473652 C271.252736,161.704919 271.09368,161.920415 270.862578,161.9558 L270.862578,161.9558 C269.815175,162.084516 268.760938,162.149687 267.705656,162.150955 Z" id="Path" fill="#263238"></path>
              <path d="M279.288687,156.33074 C285.763246,155.067971 286.176516,153.242697 288.3921,151.738854 C288.414309,149.297637 287.958005,146.875719 287.048974,144.609952 C285.349976,140.69537 279.323126,142.658401 273.709547,145.585728 L271.069212,149.890621 L256.524415,148.742649 L256.065227,154.482506 C263.541903,156.973018 271.512207,157.607333 279.288687,156.33074 L279.288687,156.33074 Z" id="Path" fill="#263238"></path>
              <polygon id="Path" fill="#FFFFFF" points="257.913461 152.645752 257.775704 154.918735 261.472172 155.768234 261.747685 152.794988"></polygon>
              <path d="M261.885442,156.30778 L257.362434,155.263126 L257.54611,152.198043 L262.252792,152.381718 L261.885442,156.30778 Z M258.257852,154.585823 L261.116301,155.240167 L261.311456,153.208258 L258.361169,153.093461 L258.257852,154.585823 Z" id="Shape" fill="#263238"></path>
              <polyline id="Path" fill="#A9CEF4" points="283.685418 156.009308 283.054033 150.372768 284.936706 149.741384 285.878043 154.758019"></polyline>
              <polygon id="Path" fill="#263238" points="283.111432 156.078186 282.434129 149.970979 285.372936 148.983723 286.440549 154.654702 285.315537 154.861337 284.488998 150.499045 283.673938 150.763079 284.247924 155.951909"></polygon>
              <polyline id="Path" fill="#A9CEF4" points="269.255418 157.903461 267.992649 151.314105 271.126611 151.314105 272.389379 156.962124"></polyline>
              <polygon id="Path" fill="#263238" points="268.681432 158.006778 267.303866 150.740119 271.597279 150.740119 272.951885 156.835847 271.826874 157.076921 270.667422 151.888091 268.692912 151.888091 269.817924 157.788663"></polygon>
              <path d="M265.788544,85.5583055 C265.788544,85.5583055 259.692816,92.4461337 257.259117,95.3045823 C254.825418,98.163031 254.825418,128.595752 254.825418,133.08432 C254.825418,137.572888 252.391718,149.718425 256.455537,152.152124 C260.519356,154.585823 285.292578,153.782243 287.726277,149.718425 C290.159976,145.654606 291.778616,96.9117422 291.376826,92.4690931 C290.975036,88.0264439 287.301527,84.4332936 284.488998,83.1246062 C281.676468,81.8159189 265.788544,85.5583055 265.788544,85.5583055 Z" id="Path" fill="#FFFFFF"></path>
              <path d="M267.487542,154.092196 C262.608663,154.092196 257.890501,153.678926 256.157064,152.645752 C252.71315,150.590883 253.447852,142.876516 253.964439,137.239976 C254.113675,135.552458 254.251432,134.106014 254.251432,133.08432 C254.251432,119.951527 254.584344,97.4972076 256.822888,94.9372315 C259.233628,92.1247017 265.294916,85.2483532 265.363795,85.1794749 L265.478592,85.0417184 L265.662267,85.0417184 C267.303866,84.6514081 281.733866,81.287852 284.707112,82.6424582 C288.00179,84.1577804 291.537542,88.0034845 291.950811,92.4461337 C292.364081,96.8887828 290.722482,145.8842 288.219905,150.039857 C286.520907,152.886826 276.820549,153.736325 272.733771,153.977399 C271.069212,154.046277 269.255418,154.092196 267.487542,154.092196 Z M266.098496,86.097852 C265.226038,87.0851074 259.910931,93.1234368 257.695346,95.7063723 C256.283341,97.3594511 255.399403,111.686134 255.399403,133.107279 C255.399403,134.186372 255.261647,135.655776 255.112411,137.366253 C254.653222,142.394368 253.964439,149.993938 256.75401,151.681456 C258.533365,152.749069 265.375274,153.242697 272.664893,152.829427 C280.436659,152.381718 286.291313,151.027112 287.232649,149.454391 C289.528592,145.574248 291.20463,96.9576611 290.80284,92.5494511 C290.40105,88.1412411 286.647184,84.7891647 284.224964,83.6756325 C282.307852,82.7572554 272.400859,84.6054893 266.098496,86.097852 Z" id="Shape" fill="#263238"></path>
              <path d="M284.466038,83.1246062 C284.130745,82.9849307 283.772925,82.9071436 283.409905,82.8950119 L281.653508,83.813389 C281.653508,83.813389 286.520907,87.5787351 287.393365,93.3300716 C288.211338,98.7623169 288.137666,104.29162 287.175251,109.700143 C286.291313,115.681074 272.125346,109.700143 274.78864,111.915728 C277.451933,114.131313 287.416325,117.896659 287.841074,119.882649 C288.265823,121.86864 282.973675,125.197757 280.953246,125.415871 C278.932816,125.633986 282.284893,130.065155 284.282363,133.830501 C286.279833,137.595847 285.60253,142.899475 280.953246,146.458186 C276.303962,150.016897 265.662267,151.807733 261.047422,151.991408 C259.54358,152.048807 258.602243,152.381718 258.33821,152.829427 C265.421193,154.402148 285.510692,153.380453 287.691838,149.741384 C290.137017,145.677566 291.744177,96.9347017 291.342387,92.4920525 C290.940597,88.0494033 287.301527,84.4332936 284.466038,83.1246062 Z" id="Path" fill="#A9CEF4"></path>
              <path d="M278.266993,116.473174 C271.723556,114.429785 266.006659,108.701408 266.006659,108.701408 C267.452076,115.480042 271.394237,121.467046 277.050143,125.47327" id="Path" fill="#FFFFFF"></path>
              <path d="M277.050143,125.898019 C276.959163,125.901509 276.869825,125.873084 276.797589,125.817661 C271.070574,121.726308 267.072241,115.649006 265.581909,108.770286 C265.54831,108.586289 265.642477,108.402664 265.811504,108.322578 C265.972936,108.23257 266.174504,108.260696 266.305131,108.391456 C266.305131,108.448854 272.044988,114.131313 278.404749,116.059905 C278.62686,116.136259 278.748647,116.374759 278.680263,116.599451 C278.651155,116.709393 278.578025,116.802481 278.478099,116.856789 C278.378173,116.911096 278.260283,116.921824 278.152196,116.886444 L278.152196,116.886444 C273.933412,115.368811 270.058497,113.027473 266.75284,109.998616 C268.423642,116.102699 272.144949,121.445492 277.291217,125.128878 C277.384151,125.191556 277.447638,125.289297 277.467118,125.399686 C277.486599,125.510075 277.460402,125.623642 277.394535,125.714344 L277.394535,125.714344 C277.317702,125.829337 277.188442,125.898306 277.050143,125.898019 L277.050143,125.898019 Z" id="Path" fill="#263238"></path>
              <polygon id="Path" fill="#FF9000" points="283.249189 78.6589976 263.756635 83.1246062 262.539785 88.8070644 284.466038 83.1246062"></polygon>
              <path d="M261.782124,89.5991647 L263.274487,82.6424582 L283.696897,77.9702148 L285.21222,83.5378759 L261.782124,89.5991647 Z M264.238783,83.6067542 L263.297446,88.0264439 L283.765776,82.7113365 L282.847399,79.3363007 L264.238783,83.6067542 Z" id="Shape" fill="#263238"></path>
              <path d="M227.06747,52.8066826 L221.821241,49.7760382 C221.821241,49.7760382 219.789332,49.5120048 220.67327,51.7964678 L225.908019,55.837327" id="Path" fill="#FFFFFF"></path>
              <path d="M225.896539,56.4342721 C225.771929,56.4369334 225.65024,56.3963705 225.552148,56.3194749 L220.305919,52.267136 C220.222918,52.2059773 220.159178,52.1223184 220.122243,52.0260621 C219.754029,51.334855 219.780249,50.5001699 220.191122,49.8334368 C220.628337,49.3717742 221.259229,49.1458468 221.890119,49.2250119 C221.966155,49.2356546 222.039876,49.2589349 222.108234,49.2938902 L227.354463,52.3360143 C227.554175,52.4115576 227.695447,52.5917146 227.721188,52.803679 C227.746929,53.0156433 227.652884,53.2243774 227.477059,53.3455263 C227.301234,53.4666751 227.072693,53.4802127 226.883795,53.3806683 L226.780477,53.3232697 L221.706444,50.3615036 C221.499948,50.3415205 221.293854,50.4033486 221.132458,50.5336993 C221.017661,50.6829356 221.040621,51.027327 221.189857,51.4635561 L226.298329,55.4125776 C226.41937,55.5018217 226.499635,55.6358168 226.521204,55.7846456 C226.542774,55.9334744 226.503851,56.0847432 226.413126,56.2046778 L226.413126,56.2046778 C226.289097,56.3614163 226.095994,56.4472396 225.896539,56.4342721 Z" id="Path" fill="#263238"></path>
              <path d="M226.298329,60.7162053 C226.057477,60.0886721 225.694612,59.5151111 225.230716,59.0286874 L224.25494,57.9725537 L224.25494,57.9725537 L218.928353,51.3717184 C218.928353,51.3717184 217.275274,50.223747 217.642625,52.6574463 L220.948783,59.0746062 L215.071169,53.5758234 C215.071169,53.5758234 213.923198,52.6574463 213.923198,53.9316945 C213.923198,55.2059427 219.249785,60.9113604 219.249785,60.9113604 L213.372172,58.1562291 C213.372172,58.1562291 212.086444,59.0746062 213.004821,59.9929833 C213.923198,60.9113604 218.882434,62.7481146 218.882434,62.7481146 L214.474224,62.5644391 C214.474224,62.5644391 213.188496,63.7124105 214.106874,64.0338425 C215.025251,64.3552745 220.168162,65.5032458 220.168162,65.5032458 C220.823458,66.0553847 221.569094,66.4903387 222.372267,66.7889737 L223.657995,69.1767542 L228.594272,66.697136 L226.298329,60.7162053 Z" id="Path" fill="#FFFFFF"></path>
              <path d="M223.715394,69.704821 C223.505725,69.7029571 223.313061,69.5891102 223.210286,69.4063484 L222.062315,67.2022434 C221.301023,66.9125492 220.5916,66.5016264 219.961527,65.9853938 C218.928353,65.7557995 214.864535,64.8374224 213.992076,64.5274702 C213.645719,64.4030456 213.38911,64.1072923 213.314773,63.7468496 C213.199976,63.012148 213.969117,62.288926 214.198711,62.0822912 C214.312713,61.9913492 214.454681,61.9426745 214.600501,61.9445346 L215.679594,61.9445346 C214.617981,61.5410913 213.617385,60.9925023 212.706348,60.3144153 C212.358895,59.999744 212.176638,59.5419816 212.212721,59.0746062 C212.318027,58.4818341 212.651957,57.9541434 213.142578,57.6052029 C213.307809,57.4794518 213.529702,57.4572625 213.716563,57.5478043 L217.011241,59.0975656 C215.323723,57.157494 213.45253,54.8041527 213.45253,53.8398568 C213.394249,53.3734235 213.626215,52.918588 214.037995,52.6918854 C214.554734,52.547612 215.109241,52.6873304 215.495919,53.0592363 L218.939833,56.3194749 L217.148998,52.8755609 C217.137556,52.8187324 217.137556,52.7601936 217.148998,52.7033652 C217.148998,52.3245346 216.919403,51.1536038 217.665585,50.6714558 C218.211458,50.4185928 218.852536,50.4893325 219.330143,50.8551313 C219.377516,50.8871516 219.420043,50.9258123 219.45642,50.9699284 L224.783007,57.5822434 C224.820273,57.6317294 224.85113,57.6857299 224.874845,57.7429594 L225.712864,58.6498568 C226.208638,59.1923774 226.598052,59.8232281 226.860835,60.5095704 L229.214177,66.4445823 C229.329123,66.7205669 229.208101,67.0382517 228.938663,67.1678043 L224.002387,69.6589021 C223.910373,69.6917786 223.813071,69.7073469 223.715394,69.704821 Z M214.451265,63.4828162 C215.404081,63.8157279 218.985752,64.6307876 220.340358,64.894821 C220.486218,64.9249003 220.614196,65.0115953 220.696229,65.135895 C221.278577,65.6007301 221.934224,65.9654093 222.636301,66.2149881 C222.761793,66.2624829 222.867162,66.351642 222.934773,66.4675418 L223.956468,68.3731742 L227.928449,66.3757041 L225.758783,60.9228401 L225.758783,60.9228401 C225.531014,60.3699813 225.208579,59.8610774 224.805967,59.4189976 L223.818711,58.362864 C223.761303,58.2958135 223.718318,58.2176588 223.692434,58.1332697 L218.549523,51.7620286 C218.437563,51.703101 218.317713,51.6605738 218.193652,51.6357518 C218.147762,51.8977913 218.147762,52.1658126 218.193652,52.427852 L221.45389,58.7761337 C221.582327,59.0206626 221.514224,59.3222633 221.293174,59.4878759 C221.082096,59.669899 220.769551,59.669899 220.558473,59.4878759 L214.680859,53.9776134 L214.543103,53.8857757 L214.543103,53.8857757 C214.543103,54.5975179 217.263795,57.8577566 219.708974,60.4751313 C219.817636,60.5829066 219.878758,60.729615 219.878758,60.8826611 C219.878758,61.0357072 219.817636,61.1824156 219.708974,61.2901909 C219.542103,61.4557947 219.288541,61.4972866 219.077589,61.3935084 L213.544368,58.7990931 C213.428891,58.9158798 213.349226,59.0632589 213.314773,59.2238425 C213.328149,59.3467681 213.385175,59.4608181 213.475489,59.5452745 C215.261921,60.6271856 217.164158,61.505141 219.146468,62.1626492 C219.410978,62.2633051 219.565619,62.538759 219.513819,62.8169928 C219.457725,63.0929481 219.209726,63.2874568 218.928353,63.2761814 L214.761217,63.1039857 C214.64136,63.215774 214.537106,63.3431963 214.451265,63.4828162 Z" id="Shape" fill="#263238"></path>
              <path d="M282.950716,104.465394 L245.331695,113.44253 C242.223736,113.985683 239.164047,112.261306 238.019117,109.321313 L223.715394,69.142315 L228.651671,66.6626969 L244.906945,93.1808353 C245.875116,94.9536042 247.888052,95.8855193 249.866181,95.476778 L272.3779,89.105537" id="Path" fill="#FFFFFF"></path>
              <path d="M244.218162,114.050955 C241.244125,114.052203 238.573808,112.229003 237.49105,109.459069 L223.003652,68.8782816 L228.858305,65.9279952 L245.400573,92.9053222 C246.22871,94.4862977 248.002751,95.3288504 249.751384,94.9716706 L272.217184,88.5889499 L272.527136,89.7369212 L250.015418,96.1081623 C247.771595,96.5706354 245.49003,95.5068382 244.401838,93.4907876 L228.433556,67.4433174 L224.427136,69.463747 L238.558663,109.057279 C239.607348,111.734558 242.395565,113.30383 245.228377,112.811146 L282.812959,103.83401 L283.076993,104.981981 L245.469451,113.970597 C245.055264,114.031649 244.636756,114.058525 244.218162,114.050955 Z" id="Path" fill="#263238"></path>
              <path d="M228.996062,85.1450358 C228.996062,85.1450358 240.71685,107.266444 245.148019,108.816205 C249.579189,110.365967 258.866277,107.048329 258.866277,107.048329 C258.866277,107.048329 246.031957,105.900358 250.451647,105.498568 C254.871337,105.096778 259.968329,106.164391 268.382959,104.178401 C276.797589,102.192411 281.010644,98.4385442 278.78358,102.180931 C276.556516,105.923317 264.169905,108.379976 259.750215,109.929737 C255.330525,111.479499 245.584248,113.913198 242.71432,113.465489 C240.877337,113.060341 239.325871,111.838614 238.501265,110.147852 L228.996062,85.1450358 Z" id="Path" fill="#A9CEF4"></path>
              <rect id="Rectangle" fill="#263238" transform="translate(228.557806, 72.961107) rotate(-26.600000) translate(-228.557806, -72.961107) " x="225.354966" y="72.5306176" width="6.40568019" height="1"></rect>
              <path d="M286.934177,59.8781862 C288.028776,59.6992265 289.109847,60.2655018 289.58599,61.2672315 C290.227072,62.5741724 290.162251,64.1169323 289.413795,65.3654893 C287.622959,68.5109308 283.363986,69.624463 283.363986,69.624463 C283.363986,69.624463 279.323126,75.4561575 275.328186,77.0288783 C271.333246,78.601599 264.835728,78.9574702 262.987494,70.7494749 C262.183914,67.1448449 264.560215,52.3819332 264.560215,52.3819332 C264.70452,50.207893 265.713265,48.1821347 267.361265,46.7568735 C270.024558,44.7249642 276.223604,44.3461337 279.770835,45.4826253 C283.318067,46.6191169 285.510692,49.9137947 286.486468,52.4508115 C287.115635,54.3230306 287.373009,56.3001264 287.244129,58.2710263 L286.865298,59.924105 L286.934177,59.8781862 Z" id="Path" fill="#FFFFFF"></path>
              <path d="M270.793699,78.4982816 C269.42055,78.5212185 268.063326,78.2016396 266.844678,77.5684248 C264.617613,76.4204535 263.113771,74.1245107 262.390549,70.8757518 C261.56401,67.2022434 263.848473,52.8755609 263.95179,52.267136 C264.099856,49.9417862 265.190283,47.7775176 266.970955,46.2747255 C269.840883,44.09358 276.281002,43.7491885 279.908592,44.9201193 C284.202005,46.297685 286.279833,50.4763007 286.968616,52.2097375 C287.636075,54.164751 287.909204,56.2327217 287.772196,58.2939857 L287.554081,59.2927208 C288.655912,59.3631809 289.632248,60.0272655 290.102578,61.0261575 C290.815345,62.4907218 290.74637,64.2150881 289.918902,65.618043 C288.231384,68.5568496 284.626754,69.8081384 283.708377,70.0951313 C282.996635,71.0938663 279.300167,76.0531026 275.488902,77.5339857 C273.994241,78.1340989 272.403897,78.4607219 270.793699,78.4982816 L270.793699,78.4982816 Z M274.995274,45.4022673 C272.205704,45.4022673 269.255418,45.976253 267.671217,47.1816229 C266.154843,48.5040657 265.225764,50.3746103 265.088282,52.3819332 C265.088282,52.588568 262.723461,67.1678043 263.504081,70.6231981 C264.158425,73.5390453 265.467112,75.5365155 267.384224,76.55821 C270.254153,78.0850119 273.721026,77.0288783 275.075632,76.5008115 C278.898377,75.0084487 282.847399,69.3604296 282.893317,69.303031 L283.008115,69.1308353 L283.214749,69.0734368 C283.214749,69.0734368 287.267088,67.9254654 288.954606,65.0784964 C289.620992,63.9951059 289.677489,62.6435301 289.103842,61.5083055 C288.726031,60.7423273 287.891732,60.3135256 287.048974,60.4521718 L286.107637,60.6014081 L286.681623,58.12179 L286.681623,58.12179 C286.777523,56.2667842 286.528406,54.4100864 285.946921,52.6459666 C285.304057,51.0617661 283.421384,47.2390215 279.58716,46.0106921 C278.096681,45.5741161 276.548018,45.3689183 274.995274,45.4022673 L274.995274,45.4022673 Z" id="Shape" fill="#263238"></path>
              <path d="M273.629189,59.8667064 C273.491432,60.4521718 273.629189,61.0146778 273.904702,61.0146778 C274.180215,61.0146778 274.547566,60.6702864 274.685322,60.084821 C274.823079,59.4993556 274.685322,58.9368496 274.409809,58.9368496 C274.134296,58.9368496 273.766945,59.2812411 273.629189,59.8667064 Z" id="Path" fill="#263238"></path>
              <path d="M267.395704,58.6957757 C267.257947,59.2697613 267.395704,59.843747 267.671217,59.843747 C267.94673,59.843747 268.314081,59.4993556 268.451838,58.9253699 C268.589594,58.3513842 268.451838,57.7773986 268.176325,57.7773986 C267.900811,57.7773986 267.533461,58.1103103 267.395704,58.6957757 Z" id="Path" fill="#263238"></path>
              <path d="M277.532291,57.7888783 C277.345842,57.789112 277.175969,57.681824 277.096062,57.5133652 C276.465583,56.4348591 275.335781,55.7449036 274.088377,55.676611 C273.957339,55.6677892 273.835219,55.6071119 273.74904,55.5080061 C273.662861,55.4089003 273.619729,55.2795376 273.629189,55.1485442 L273.629189,55.1485442 C273.659214,54.876834 273.89572,54.6755522 274.168735,54.6893556 C275.763188,54.7833673 277.199817,55.6834237 277.98,57.077136 C278.041078,57.1897491 278.054828,57.3220402 278.018213,57.4448069 C277.981599,57.5675735 277.897631,57.6707208 277.784845,57.7314797 L277.784845,57.7314797 C277.707684,57.7738539 277.620187,57.7937397 277.532291,57.7888783 L277.532291,57.7888783 Z" id="Path" fill="#263238"></path>
              <path d="M265.845943,56.4572315 C265.712243,56.4565461 265.584269,56.4028795 265.490072,56.3079952 C265.396834,56.2153354 265.344404,56.0893142 265.344404,55.957864 C265.344404,55.8264137 265.396834,55.7003925 265.490072,55.6077327 L265.490072,55.6077327 C266.53447,54.5310739 268.143188,54.2277157 269.507971,54.8500716 C269.622674,54.915033 269.706629,55.0231735 269.74113,55.1503987 C269.775632,55.277624 269.757814,55.4133638 269.691647,55.5273747 C269.570308,55.7471225 269.300662,55.8370046 269.071742,55.7340095 L269.071742,55.7340095 C268.07606,55.3062889 266.919591,55.5394112 266.167375,56.3194749 C266.081246,56.4040013 265.966551,56.4531563 265.845943,56.4572315 Z" id="Path" fill="#263238"></path>
              <path d="M270.036038,64.8374224 L270.036038,64.8374224 C269.163954,64.8158583 268.398197,64.2518581 268.118926,63.4254177 C267.923771,62.6562768 268.440358,62.1167303 268.899547,61.6460621 C269.263748,61.3455356 269.53457,60.947268 269.680167,60.4980907 C269.921241,59.3501193 270.219714,57.237852 270.219714,57.2263723 C270.244321,57.0500161 270.361145,56.9001844 270.526178,56.8333173 C270.691211,56.7664502 270.87938,56.7927065 271.019805,56.9021956 C271.160231,57.0116847 271.231577,57.1877727 271.206969,57.3641289 L271.206969,57.3641289 C271.206969,57.4559666 270.897017,59.4763962 270.644463,60.6932458 C270.473924,61.3323003 270.113698,61.9046593 269.611289,62.3348449 C269.209499,62.7481146 269.025823,62.9547494 269.071742,63.1613842 C269.220979,63.7468496 270.104916,63.8272076 270.104916,63.8386874 C270.235954,63.8475091 270.358075,63.9081864 270.444254,64.0072922 C270.530433,64.106398 270.573565,64.2357607 270.564105,64.3667542 L270.564105,64.3667542 C270.558155,64.4977223 270.50035,64.620944 270.403439,64.7092407 C270.306528,64.7975374 270.178473,64.8436553 270.047518,64.8374224 L270.036038,64.8374224 Z" id="Path" fill="#263238"></path>
              <path d="M272.561575,68.8782816 C272.083335,68.8788156 271.607603,68.8091963 271.14957,68.6716468 C271.02472,68.6320973 270.920704,68.544555 270.860419,68.4282907 C270.800134,68.3120264 270.788521,68.1765709 270.828138,68.0517422 L270.828138,68.0517422 C270.915574,67.7902121 271.196605,67.6471418 271.459523,67.7303103 C272.354127,68.0172045 273.329009,67.9042354 274.134296,67.420358 C274.275791,67.313724 274.463426,67.2906769 274.626522,67.3598982 C274.789617,67.4291196 274.903394,67.580093 274.924994,67.7559484 C274.946594,67.9318037 274.872736,68.1058243 274.731241,68.2124582 C274.097131,68.6592843 273.33717,68.8924997 272.561575,68.8782816 Z" id="Path" fill="#263238"></path>
              <path d="M282.916277,42.0387112 C282.916277,42.0387112 277.98,37.7682578 273.261838,37.7682578 C268.543675,37.7682578 264.74389,40.4659905 261.782124,40.684105 C258.820358,40.9022196 256.845847,38.2159666 255.043532,41.8320764 C253.241217,45.4481862 259.979809,51.4750358 264.468377,52.3819332 C268.956945,53.2888305 275.236348,51.9342243 277.038663,51.7046301 C278.754474,51.5783662 280.477244,51.5783662 282.193055,51.7046301 C282.193055,51.7046301 280.849928,55.9636038 282.193055,57.31821 C283.156453,58.0776643 283.73266,59.2258724 283.765776,60.4521718 C283.846688,61.4333891 283.996291,62.4077268 284.213484,63.3680191 L285.556611,63.8157279 L286.233914,61.3475895 C288.052689,59.4077161 289.293223,56.9982168 289.815585,54.3908831 C290.492888,50.3615036 287.129332,46.3550835 287.129332,46.3550835 L282.916277,42.0387112 Z" id="Path" fill="#263238"></path>
              <path d="M269.232458,51.188043 C267.471766,51.1882978 265.713779,51.0501155 263.974749,50.7747733 C263.845511,50.7514242 263.758741,50.6289243 263.779594,50.4992601 L263.779594,50.4992601 C263.785191,50.4359732 263.816762,50.3778346 263.866795,50.3386781 C263.916828,50.2995216 263.980851,50.2828482 264.043628,50.2926253 L264.043628,50.2926253 C264.112506,50.2926253 271.712076,51.7046301 277.57821,49.2709308 C279.17389,48.6165871 280.080788,47.7326492 280.287422,46.6305967 C280.689212,44.5183294 278.358831,42.2453461 278.335871,42.2223866 C278.285908,42.1767154 278.257449,42.1121426 278.257449,42.0444511 C278.257449,41.9767595 278.285908,41.9121868 278.335871,41.8665155 C278.436676,41.7745652 278.590937,41.7745652 278.691742,41.8665155 C278.79506,41.9583532 281.240239,44.3461337 280.78105,46.7224344 C280.382538,48.1831852 279.244061,49.3260242 277.784845,49.7301193 C275.052241,50.7538348 272.149897,51.2485968 269.232458,51.188043 L269.232458,51.188043 Z" id="Path" fill="#FFFFFF"></path>
              <path d="M281.400955,51.8079587 C281.273885,51.8091338 281.165724,51.7157214 281.148401,51.5898329 C281.134825,51.4541777 281.231365,51.332233 281.366516,51.3143198 C281.446874,51.3143198 283.306587,51.0732458 284.270883,48.3755131 C284.51357,47.4104134 284.302187,46.3873205 283.696897,45.5974224 C282.709311,44.0423142 281.347643,42.7595843 279.736396,41.8665155 C279.596915,41.8665155 279.483842,41.7534434 279.483842,41.6139618 L279.483842,41.6139618 C279.483842,41.4808203 279.591775,41.3728878 279.724916,41.3728878 L279.724916,41.3728878 C280.252983,41.3728878 282.491527,43.0030072 283.823174,44.8971599 C284.709611,45.8850689 285.049237,47.2478703 284.730072,48.5362291 C283.650979,51.5553938 281.504272,51.8079587 281.412434,51.8079587 L281.400955,51.8079587 Z" id="Path" fill="#FFFFFF"></path>
              <text id="RSVP" fill="#263238" font-family="Helvetica" font-size="18.5010975" font-weight="normal">
                <tspan x="96.984908" y="77.2927208">RSVP</tspan>
              </text>
            </g>
          </g>
        </g>
      </g>
    </g>
  </g>
</svg>
